<?xml version="1.0" encoding="UTF-8" standalone="no"?>
<svg
   version="1.1"
   width="55"
   height="55"
   id="svg8"
   xmlns="http://www.w3.org/2000/svg"
   xmlns:svg="http://www.w3.org/2000/svg">
  <defs
     id="defs12" />
  <g
     transform="matrix(3.78,0,0,3.78,2.741,2.741)"
     id="g6">
    <path
       d="M 6.55,6.55 M 0,6.55 a 6.55,6.55 0 0 1 13.1,0 6.55,6.55 0 0 1 -13.1,0 m 10.388345,1.1256592 q 0.0076,-0.024128 0.01398,-0.039673 c 0.0064,-0.015544 0.01011,-0.023217 0.01817,-0.038049 0.0081,-0.014832 0.01255,-0.022107 0.02217,-0.036111 0.0096,-0.014004 0.01486,-0.020827 0.02595,-0.033909 0.01108,-0.013082 0.01703,-0.019412 0.02948,-0.031499 0.01245,-0.012087 0.01905,-0.017896 0.03277,-0.028936 0.01372,-0.01104 0.02093,-0.016308 0.03583,-0.026262 0.01491,-0.00995 0.02268,-0.014668 0.03869,-0.023511 0.01601,-0.00884 0.02432,-0.012992 0.04137,-0.020702 0.01705,-0.00771 0.02585,-0.011288 0.04388,-0.017849 0.01803,-0.00656 0.0273,-0.00956 0.04625,-0.014957 0.01895,-0.0054 0.02867,-0.00781 0.0485,-0.012025 0.01982,-0.00422 0.02997,-0.00603 0.05063,-0.00905 0.02065,-0.00302 0.0312,-0.00423 0.05264,-0.00604 0.02144,-0.0018 0.03237,-0.00241 0.05455,-0.00297 0.02218,-5.652e-4 0.03347,-5.47e-4 0.05635,1.451e-4 0.02288,6.92e-4 0.03451,0.00134 0.05805,0.00332 0.02354,0.00197 0.03532,0.00324 0.05964,0.00654 q 0.02433,0.0033 0.062,0.00997 0.04335,0.00379 0.07235,0.00396 c 0.029,1.767e-4 0.04343,-9.024e-4 0.07263,-0.00308 0.0292,-0.00218 0.0439,-0.00389 0.07336,-0.00781 0.02946,-0.00392 0.04426,-0.00636 0.07392,-0.011792 0.02965,-0.00543 0.04455,-0.00856 0.07436,-0.015361 0.02981,-0.00681 0.04477,-0.010575 0.07471,-0.018665 0.02994,-0.00809 0.04495,-0.012473 0.07498,-0.021782 0.03003,-0.00931 0.04508,-0.014282 0.07519,-0.024762 0.0301,-0.010479 0.04518,-0.016023 0.07532,-0.027634 0.03015,-0.011611 0.04524,-0.01771 0.0754,-0.030423 0.03017,-0.012713 0.04526,-0.019353 0.07542,-0.033143 0.03016,-0.01379 0.04525,-0.020961 0.07539,-0.035806 0.03014,-0.014845 0.04521,-0.022538 0.0753,-0.038421 0.03009,-0.015883 0.04513,-0.02409 0.07516,-0.040995 0.03002,-0.016906 0.04503,-0.025619 0.07496,-0.043533 0.02994,-0.017914 0.04489,-0.027128 0.07472,-0.046039 0.02983,-0.018911 0.04472,-0.02862 0.07442,-0.048517 0.0297,-0.019897 0.04452,-0.030095 0.07407,-0.050968 q 0.02955,-0.020873 0.07367,-0.053396 a 6.05,6.05 0 0 1 0,-0.5118528 q -0.04412,-0.032523 -0.07367,-0.053396 c -0.02955,-0.020873 -0.04437,-0.031072 -0.07407,-0.050969 -0.0297,-0.019897 -0.04459,-0.029606 -0.07442,-0.048517 -0.02983,-0.018911 -0.04478,-0.028125 -0.07472,-0.046039 -0.02994,-0.017914 -0.04494,-0.026627 -0.07496,-0.043533 -0.03002,-0.016906 -0.04507,-0.025112 -0.07516,-0.040995 -0.03009,-0.015883 -0.04516,-0.023576 -0.0753,-0.038421 -0.03014,-0.014846 -0.04523,-0.022016 -0.07539,-0.035806 -0.03016,-0.01379 -0.04526,-0.02043 -0.07542,-0.033143 -0.03017,-0.012713 -0.04526,-0.018811 -0.0754,-0.030423 -0.03014,-0.011611 -0.04522,-0.017155 -0.07532,-0.027634 -0.0301,-0.010479 -0.04515,-0.015453 -0.07519,-0.024761 -0.03003,-0.00931 -0.04504,-0.013693 -0.07498,-0.021782 -0.02994,-0.00809 -0.04489,-0.01186 -0.07471,-0.018665 -0.02981,-0.00681 -0.0447,-0.00993 -0.07436,-0.015361 -0.02966,-0.00543 -0.04446,-0.00787 -0.07392,-0.011792 -0.02946,-0.00392 -0.04416,-0.00563 -0.07336,-0.00781 -0.0292,-0.00218 -0.04363,-0.00326 -0.07263,-0.00308 q -0.029,1.767e-4 -0.07235,0.00396 -0.03767,0.00667 -0.062,0.00997 c -0.02433,0.0033 -0.0361,0.00457 -0.05964,0.00654 -0.02354,0.00197 -0.03517,0.00262 -0.05805,0.00331 -0.02288,6.921e-4 -0.03417,7.103e-4 -0.05635,1.451e-4 -0.02218,-5.652e-4 -0.03311,-0.00117 -0.05455,-0.00297 -0.02144,-0.0018 -0.03199,-0.00302 -0.05264,-0.00604 -0.02065,-0.00302 -0.0308,-0.00484 -0.05063,-0.00905 -0.01983,-0.00422 -0.02955,-0.00663 -0.0485,-0.012025 -0.01895,-0.0054 -0.02823,-0.0084 -0.04625,-0.014957 -0.01803,-0.00656 -0.02683,-0.010139 -0.04388,-0.017849 -0.01705,-0.00771 -0.02536,-0.01186 -0.04137,-0.020702 -0.01601,-0.00884 -0.02379,-0.013556 -0.03869,-0.023511 -0.0149,-0.00995 -0.02211,-0.015223 -0.03583,-0.026262 -0.01372,-0.01104 -0.02032,-0.016849 -0.03277,-0.028936 -0.01245,-0.012087 -0.01839,-0.018418 -0.02948,-0.031499 -0.01108,-0.013082 -0.01632,-0.019905 -0.02595,-0.033908 -0.0096,-0.014004 -0.0141,-0.021279 -0.02217,-0.036111 -0.0081,-0.014832 -0.01174,-0.022505 -0.01817,-0.038049 q -0.0064,-0.015544 -0.01398,-0.039673 a 4,4 0 0 1 -0.07141,-0.2197859 q -0.0081,-0.02396 -0.01201,-0.040316 c -0.0039,-0.016356 -0.0055,-0.024723 -0.0077,-0.041465 -0.0022,-0.016743 -0.0028,-0.025261 -0.0033,-0.042247 -4.45e-4,-0.016986 -2.18e-4,-0.025585 0.0011,-0.042683 0.0013,-0.017099 0.0024,-0.025714 0.0053,-0.04281 0.003,-0.017096 0.0049,-0.025675 0.0095,-0.04267 0.0046,-0.016996 0.0073,-0.025494 0.01355,-0.042308 0.0062,-0.016814 0.0097,-0.025197 0.01748,-0.041762 0.0078,-0.016565 0.01204,-0.024804 0.0213,-0.041063 0.0093,-0.016259 0.01428,-0.024329 0.02501,-0.040233 0.01073,-0.015904 0.01647,-0.023783 0.02863,-0.039288 0.01216,-0.015505 0.01861,-0.023172 0.03217,-0.038235 0.01356,-0.015063 0.0207,-0.0225 0.03564,-0.037081 0.01494,-0.014581 0.02276,-0.021767 0.03904,-0.035825 0.01628,-0.014059 0.02477,-0.020973 0.04239,-0.034468 0.01761,-0.013495 0.02676,-0.020118 0.04568,-0.033008 0.01892,-0.01289 0.02871,-0.0192 0.04891,-0.031441 0.0202,-0.012242 0.03048,-0.018139 0.0521,-0.029767 q 0.02162,-0.011628 0.05602,-0.028373 0.0373,-0.022417 0.06086,-0.039317 c 0.02356,-0.0169 0.03461,-0.026258 0.05695,-0.045182 0.02234,-0.018924 0.03323,-0.028953 0.05476,-0.049438 0.02153,-0.020485 0.03207,-0.031163 0.05287,-0.052987 0.0208,-0.021824 0.03101,-0.033105 0.05113,-0.056135 0.02012,-0.02303 0.03,-0.034872 0.04947,-0.059013 0.01947,-0.024142 0.02903,-0.036511 0.04786,-0.061695 0.01883,-0.025184 0.02808,-0.038054 0.04627,-0.064225 0.01819,-0.026171 0.02713,-0.039518 0.0447,-0.066631 0.01756,-0.027113 0.02619,-0.040917 0.04312,-0.068933 0.01693,-0.028016 0.02524,-0.042261 0.04154,-0.071146 0.0163,-0.028885 0.02429,-0.043555 0.03994,-0.07328 0.01566,-0.029725 0.02333,-0.044806 0.03834,-0.075343 0.01501,-0.030537 0.02235,-0.046017 0.03671,-0.077342 0.01435,-0.031325 0.02137,-0.047192 0.03506,-0.079281 0.01369,-0.032089 0.02037,-0.048332 0.03339,-0.081163 0.01301,-0.032831 0.01936,-0.04944 0.03169,-0.082993 0.01233,-0.033553 0.01833,-0.050517 0.02997,-0.084772 q 0.01164,-0.034255 0.02822,-0.086502 A 6.05,6.05 0 0 1 11.289742,2.7900336 q -0.05481,-3.768e-4 -0.09099,1.048e-4 c -0.03617,4.816e-4 -0.05416,9.443e-4 -0.08988,0.0023 -0.03572,0.00136 -0.05348,0.00226 -0.08872,0.00449 -0.03525,0.00223 -0.05276,0.00357 -0.08751,0.00667 -0.03475,0.0031 -0.05201,0.00487 -0.08623,0.00884 -0.03423,0.00397 -0.05122,0.00617 -0.0849,0.01101 -0.03368,0.00484 -0.05039,0.00747 -0.0835,0.013176 -0.03311,0.0057 -0.04953,0.00877 -0.08204,0.015344 -0.03251,0.00657 -0.04862,0.010074 -0.0805,0.017519 -0.03188,0.00745 -0.04767,0.011383 -0.07888,0.019708 -0.03121,0.00833 -0.04667,0.012702 -0.07718,0.021917 -0.03051,0.00922 -0.04561,0.014038 -0.07538,0.02416 -0.02977,0.010122 -0.04449,0.015398 -0.07346,0.026451 -0.02898,0.011053 -0.04329,0.016794 -0.07141,0.028813 -0.02812,0.012018 -0.042,0.018242 -0.06919,0.03128 -0.02718,0.013038 -0.0406,0.019766 -0.06673,0.033908 -0.026135,0.014142 -0.039039,0.021402 -0.06394,0.036802 -0.024902,0.0154 -0.037214,0.023012 -0.060568,0.040198 Q 9.855381,3.1499104 9.822535,3.1784554 9.795981,3.2059934 9.77824,3.2229644 c -0.017741,0.016972 -0.026524,0.024919 -0.044409,0.04035 -0.017885,0.015431 -0.026913,0.022796 -0.045018,0.036805 -0.018105,0.014009 -0.02723,0.020662 -0.045507,0.033242 -0.018277,0.012581 -0.027476,0.018517 -0.045879,0.029661 -0.018403,0.011144 -0.027653,0.016361 -0.046136,0.026059 -0.018483,0.0097 -0.027762,0.014191 -0.046278,0.022433 -0.018517,0.00824 -0.027801,0.012005 -0.046304,0.018778 -0.018503,0.00677 -0.027771,0.0098 -0.046212,0.015087 -0.018441,0.00529 -0.027667,0.00757 -0.045992,0.011353 -0.018325,0.00378 -0.027484,0.00531 -0.045635,0.00757 -0.018151,0.00226 -0.027211,0.00301 -0.045121,0.00372 C 9.25784,3.4687297 9.248912,3.4687042 9.231324,3.4678373 9.213735,3.4669705 9.204982,3.4661473 9.187806,3.4636873 9.17063,3.4612273 9.1621,3.4595973 9.145443,3.4555273 9.128786,3.4514573 9.120538,3.4490173 9.104521,3.4433453 9.088504,3.4376753 9.080603,3.4344253 9.065357,3.4271643 9.050111,3.4199043 9.042629,3.4158593 9.028289,3.4070643 q -0.01434,-0.0088 -0.034633,-0.023876 A 4,4 0 0 1 8.8066793,3.2473649 Q 8.786066,3.2327256 8.77327,3.2218051 C 8.760474,3.2108841 8.754312,3.2050201 8.742699,3.1927621 8.731087,3.1805041 8.725552,3.1739951 8.715208,3.1605151 8.704864,3.1470351 8.699993,3.1399451 8.690977,3.1253601 8.681957,3.1107751 8.677777,3.1031661 8.670128,3.0875911 8.662478,3.0720161 8.658994,3.0639451 8.652734,3.0474851 8.646474,3.0310251 8.643694,3.0225421 8.63883,3.0052911 8.63397,2.9880401 8.63189,2.9791891 8.628426,2.9612291 c -0.00346,-0.01796 -0.00484,-0.027141 -0.00691,-0.045739 -0.00206,-0.018598 -0.00275,-0.028077 -0.00342,-0.047249 -6.694e-4,-0.019172 -6.551e-4,-0.028921 6.87e-5,-0.048612 7.238e-4,-0.019691 0.00143,-0.029684 0.00355,-0.049841 0.00212,-0.020157 0.00352,-0.03037 0.00703,-0.050946 0.00351,-0.020575 0.00562,-0.030985 0.010527,-0.051931 0.00491,-0.020946 0.00771,-0.031529 0.014032,-0.0528 0.00632,-0.02127 0.00982,-0.032004 0.017553,-0.053552 0.00773,-0.021548 0.011943,-0.032409 0.021092,-0.054188 0.00915,-0.021778 0.013993,-0.032587 0.024652,-0.054704 q 0.010659,-0.022117 0.028643,-0.055881 0.016998,-0.040059 0.026126,-0.06758 c 0.00913,-0.027521 0.012562,-0.041583 0.019514,-0.070025 0.00695,-0.028442 0.00987,-0.042958 0.015242,-0.072183 0.00537,-0.029225 0.00763,-0.044062 0.011627,-0.073944 0.004,-0.029882 0.00563,-0.045009 0.00837,-0.075467 0.00274,-0.030457 0.00378,-0.045848 0.00534,-0.07682 0.00156,-0.030973 0.00203,-0.046603 0.00245,-0.078043 4.277e-4,-0.03144 3.482e-4,-0.04729 -3.161e-4,-0.079157 -6.644e-4,-0.031867 -0.00128,-0.047919 -0.00301,-0.080177 -0.00173,-0.032258 -0.00286,-0.048496 -0.00563,-0.081113 -0.00277,-0.032617 -0.00442,-0.049026 -0.00821,-0.081974 -0.00379,-0.032947 -0.00595,-0.049513 -0.010757,-0.082763 -0.00481,-0.03325 -0.00746,-0.04996 -0.013272,-0.083487 -0.00581,-0.033527 -0.00896,-0.050368 -0.015764,-0.084147 -0.0068,-0.033778 -0.010451,-0.050739 -0.018238,-0.084746 -0.00779,-0.034006 -0.011929,-0.051075 -0.020697,-0.085286 -0.00877,-0.034211 -0.0134,-0.051376 -0.023146,-0.085769 -0.00975,-0.034393 -0.014864,-0.051643 -0.025585,-0.0861954 Q 8.6785676,0.9323573 8.6612706,0.8803428 A 6.05,6.05 0 0 1 8.1744789,0.72217292 q -0.044567,0.0319138 -0.073549,0.0535661 c -0.028982,0.0216522 -0.043263,0.0325993 -0.071363,0.0546951 -0.0281,0.0220958 -0.041936,0.0332605 -0.069139,0.0557837 -0.027203,0.0225232 -0.040586,0.0338976 -0.066874,0.0568322 -0.026288,0.0229346 -0.039211,0.0345107 -0.064567,0.0578409 -0.025356,0.02333 -0.037809,0.0351 -0.062214,0.05881 -0.024405,0.02371 -0.036378,0.035666 -0.05981,0.059741 -0.023432,0.024075 -0.034914,0.036209 -0.05735,0.060634 -0.022436,0.024425 -0.033415,0.03673 -0.054828,0.06149 -0.021413,0.02476 -0.031876,0.037229 -0.052235,0.062311 -0.020359,0.025082 -0.03029,0.037707 -0.049558,0.063098 -0.019268,0.02539 -0.028649,0.038166 -0.046783,0.063853 -0.018134,0.025687 -0.026942,0.038608 -0.043887,0.064581 -0.016945,0.025973 -0.025153,0.039033 -0.040838,0.065285 -0.015685,0.026252 -0.023259,0.039447 -0.037587,0.065973 -0.014329,0.026526 -0.021226,0.039854 -0.034056,0.066656 -0.012831,0.026802 -0.019003,0.040261 -0.030097,0.067356 -0.011094,0.027095 -0.016581,0.040491 -0.025373,0.068121 q -0.00879,0.02763 -0.018586,0.07003 -0.0053,0.037886 -0.00967,0.062045 c -0.00438,0.024158 -0.00681,0.03575 -0.012211,0.058747 -0.0054,0.022997 -0.00837,0.034261 -0.014787,0.056237 -0.00641,0.021976 -0.00988,0.032721 -0.017277,0.053642 -0.00739,0.020921 -0.011345,0.031131 -0.019683,0.050963 -0.00834,0.019833 -0.012755,0.02949 -0.022008,0.048201 -0.00925,0.01871 -0.014118,0.027799 -0.024254,0.045351 -0.010135,0.017552 -0.015435,0.026054 -0.026423,0.042409 -0.010988,0.016355 -0.016707,0.024251 -0.028518,0.039368 -0.011811,0.015117 -0.017934,0.022385 -0.030536,0.036218 -0.012602,0.013832 -0.019114,0.020449 -0.032472,0.032944 -0.013358,0.012495 -0.020243,0.018433 -0.034316,0.029532 -0.014073,0.011099 -0.021311,0.016326 -0.03605,0.025963 -0.014739,0.00964 -0.022303,0.014118 -0.037646,0.022223 -0.015343,0.0081 -0.0232,0.011801 -0.039067,0.018301 -0.015867,0.0065 -0.023975,0.00937 -0.040267,0.014198 -0.016292,0.00483 -0.024595,0.00684 -0.041195,0.00993 -0.0166,0.00309 -0.025032,0.00421 -0.041803,0.00553 q -0.016771,0.00131 -0.042052,0.00104 a 4,4 0 0 1 -0.2310966,0 q -0.025281,2.727e-4 -0.042052,-0.00104 c -0.016771,-0.00131 -0.025204,-0.00244 -0.041803,-0.00553 -0.0166,-0.00309 -0.024903,-0.0051 -0.041195,-0.00993 -0.016292,-0.00483 -0.0244,-0.0077 -0.040267,-0.014198 -0.015867,-0.0065 -0.023724,-0.010196 -0.039067,-0.018301 -0.015343,-0.0081 -0.022907,-0.012586 -0.037646,-0.022223 -0.014739,-0.00964 -0.021977,-0.014864 -0.03605,-0.025963 -0.014073,-0.011099 -0.020958,-0.017037 -0.034316,-0.029532 -0.013358,-0.012495 -0.01987,-0.019112 -0.032472,-0.032944 -0.012602,-0.013833 -0.018725,-0.021101 -0.030536,-0.036218 -0.011811,-0.015117 -0.01753,-0.023013 -0.028518,-0.039368 -0.010988,-0.016355 -0.016288,-0.024857 -0.026423,-0.042409 -0.010135,-0.017552 -0.015001,-0.02664 -0.024254,-0.045351 -0.00925,-0.01871 -0.01367,-0.028368 -0.022008,-0.048201 -0.00834,-0.019833 -0.012291,-0.030042 -0.019683,-0.050963 -0.00739,-0.020921 -0.010864,-0.031666 -0.017277,-0.053642 -0.00641,-0.021976 -0.00939,-0.03324 -0.014787,-0.056237 -0.0054,-0.022997 -0.00783,-0.034588 -0.012211,-0.058747 q -0.00438,-0.024158 -0.00967,-0.062045 -0.00979,-0.0424 -0.018586,-0.07003 c -0.00879,-0.02763 -0.014279,-0.041026 -0.025373,-0.068121 -0.011094,-0.027095 -0.017266,-0.040554 -0.030097,-0.067356 -0.012831,-0.026803 -0.019728,-0.040131 -0.034056,-0.066656 -0.014329,-0.026526 -0.021902,-0.039721 -0.037588,-0.065973 -0.015685,-0.026252 -0.023893,-0.039312 -0.040838,-0.065285 -0.016945,-0.025973 -0.025753,-0.038894 -0.043887,-0.064581 -0.018134,-0.025687 -0.027515,-0.038463 -0.046783,-0.063853 -0.019268,-0.02539 -0.0292,-0.038016 -0.049558,-0.063098 -0.020358,-0.025082 -0.030822,-0.037551 -0.052235,-0.062311 -0.021413,-0.02476 -0.032392,-0.037065 -0.054828,-0.06149 -0.022436,-0.024425 -0.033918,-0.036559 -0.05735,-0.060634 -0.023432,-0.024075 -0.035405,-0.036031 -0.05981,-0.059741 -0.024405,-0.02371 -0.036857,-0.03548 -0.062213,-0.05881 -0.025356,-0.0233302 -0.038279,-0.0349063 -0.064567,-0.0578409 -0.026288,-0.0229346 -0.039672,-0.034309 -0.066874,-0.0568322 -0.027203,-0.0225232 -0.041038,-0.033688 -0.069139,-0.0557837 -0.0281,-0.0220958 -0.042381,-0.0330429 -0.071363,-0.0546951 Q 4.9700877,0.75408676 4.9255211,0.72217292 A 6.05,6.05 0 0 1 4.4387202,0.88034414 q -0.017297,0.0520144 -0.028017,0.0865669 c -0.01072,0.0345524 -0.015839,0.0518026 -0.025585,0.0861954 -0.00975,0.034393 -0.014377,0.051558 -0.023146,0.085769 -0.00877,0.034211 -0.01291,0.05128 -0.020697,0.085286 -0.00779,0.034006 -0.011438,0.050967 -0.018238,0.084746 -0.0068,0.033778 -0.00996,0.05062 -0.015764,0.084147 -0.00581,0.033527 -0.00847,0.050237 -0.013272,0.083487 -0.00481,0.03325 -0.00696,0.049816 -0.010757,0.082763 -0.00379,0.032947 -0.00544,0.049356 -0.00821,0.081974 -0.00277,0.032617 -0.00391,0.048855 -0.00563,0.081113 -0.00173,0.032258 -0.00234,0.04831 -0.00301,0.080177 -6.643e-4,0.031867 -7.438e-4,0.047717 -3.161e-4,0.079157 4.276e-4,0.03144 8.966e-4,0.04707 0.00245,0.078043 0.00156,0.030973 0.00259,0.046363 0.00534,0.07682 0.00274,0.030457 0.00437,0.045584 0.00837,0.075467 0.004,0.029882 0.00625,0.044719 0.011627,0.073944 0.00537,0.029225 0.00829,0.043741 0.015242,0.072183 0.00695,0.028442 0.010386,0.042504 0.019514,0.070025 q 0.00913,0.027521 0.026126,0.06758 0.017984,0.033764 0.028643,0.055881 c 0.010659,0.022117 0.015503,0.032926 0.024652,0.054704 0.00915,0.021778 0.013363,0.03264 0.021092,0.054188 0.00773,0.021548 0.011236,0.032282 0.017553,0.053552 0.00632,0.02127 0.00912,0.031853 0.014032,0.0528 0.00491,0.020946 0.00701,0.031356 0.010527,0.051931 0.00351,0.020575 0.00492,0.030788 0.00703,0.050946 0.00212,0.020157 0.00283,0.03015 0.00355,0.049841 7.238e-4,0.019691 7.381e-4,0.02944 6.87e-5,0.048612 -6.693e-4,0.019172 -0.00135,0.028652 -0.00342,0.047249 -0.00206,0.018598 -0.00344,0.027779 -0.00691,0.045739 -0.00346,0.01796 -0.00554,0.026811 -0.010404,0.044062 -0.00486,0.017251 -0.00764,0.025734 -0.013904,0.042194 -0.00626,0.01646 -0.00975,0.024531 -0.017394,0.040106 -0.00765,0.015575 -0.011833,0.023184 -0.020849,0.037769 -0.00902,0.014585 -0.013886,0.021675 -0.024231,0.035155 -0.010344,0.01348 -0.015879,0.019989 -0.027491,0.032247 -0.011612,0.012258 -0.017775,0.018122 -0.030571,0.029043 q -0.012796,0.010921 -0.033409,0.02556 A 4,4 0 0 1 4.1063596,3.3832001 q -0.020293,0.015081 -0.034633,0.023876 c -0.01434,0.0088 -0.021822,0.012844 -0.037068,0.0201 -0.015246,0.00726 -0.023147,0.010508 -0.039164,0.016181 -0.016017,0.00567 -0.024265,0.00811 -0.040922,0.012182 -0.016657,0.00407 -0.025187,0.0057 -0.042363,0.00816 -0.017176,0.00246 -0.02593,0.00328 -0.043518,0.00415 -0.017589,8.669e-4 -0.026516,8.924e-4 -0.044426,1.851e-4 -0.017909,-7.072e-4 -0.026969,-0.00146 -0.045121,-0.00372 -0.018151,-0.00226 -0.027309,-0.00378 -0.045635,-0.00757 -0.018325,-0.00378 -0.027551,-0.00606 -0.045992,-0.011353 -0.018441,-0.00529 -0.027708,-0.00831 -0.046212,-0.015087 -0.018503,-0.00677 -0.027788,-0.010536 -0.046304,-0.018778 -0.018517,-0.00824 -0.027795,-0.012735 -0.046278,-0.022433 -0.018483,-0.0097 -0.027733,-0.014915 -0.046136,-0.026059 -0.018403,-0.011144 -0.027602,-0.01708 -0.045879,-0.029661 -0.018277,-0.012581 -0.027402,-0.019233 -0.045507,-0.033242 -0.018105,-0.014009 -0.027132,-0.021374 -0.045018,-0.036805 -0.017885,-0.015431 -0.026668,-0.023378 -0.044409,-0.04035 Q 3.3040337,3.2060012 3.2774794,3.1784637 3.2446334,3.1499187 3.22128,3.1327331 C 3.197927,3.1155471 3.185614,3.1079351 3.160712,3.0925351 3.13581,3.0771351 3.122906,3.0698751 3.096772,3.0557331 3.070638,3.0415911 3.057224,3.0348621 3.03004,3.0218251 3.002856,3.0087871 2.988973,3.0025641 2.960853,2.9905451 2.932733,2.9785271 2.918416,2.9727851 2.889441,2.9617321 2.860466,2.9506791 2.845745,2.9454031 2.815976,2.9352811 2.786207,2.9251591 2.771108,2.9203371 2.740596,2.9111211 2.710084,2.9019011 2.694628,2.8975291 2.663415,2.8892041 2.632202,2.8808741 2.616408,2.8769421 2.584531,2.8694961 2.552654,2.8620461 2.536539,2.8585491 2.504031,2.8519771 2.471524,2.8454071 2.455102,2.8423371 2.421994,2.8366331 c -0.033108,-0.0057 -0.049822,-0.00834 -0.083502,-0.013176 -0.03368,-0.00484 -0.050673,-0.00704 -0.0849,-0.01101 -0.034227,-0.00397 -0.051486,-0.00574 -0.086234,-0.00884 -0.034748,-0.0031 -0.052261,-0.00444 -0.087508,-0.00667 -0.035246,-0.00223 -0.053002,-0.00313 -0.088723,-0.00449 -0.035721,-0.00136 -0.053709,-0.00182 -0.089883,-0.0023 Q 1.8650718,2.7896568 1.8102582,2.7900336 A 6.05,6.05 0 0 1 1.5093987,3.2041312 q 0.01658,0.052247 0.028216,0.086502 c 0.011637,0.034255 0.017635,0.051219 0.029966,0.084772 0.012331,0.033553 0.018674,0.050162 0.031688,0.082993 0.013015,0.032831 0.019697,0.049075 0.033385,0.081163 0.013689,0.032089 0.020705,0.047956 0.035058,0.079281 0.014353,0.031325 0.021699,0.046805 0.036707,0.077342 0.015008,0.030537 0.022679,0.045619 0.038335,0.075343 0.015656,0.029725 0.023648,0.044395 0.039944,0.07328 0.016296,0.028885 0.024606,0.04313 0.041538,0.071146 0.016931,0.028016 0.025557,0.04182 0.04312,0.068933 0.017563,0.027113 0.026502,0.04046 0.044695,0.066631 0.018193,0.026171 0.027445,0.039041 0.046271,0.064225 0.018826,0.025184 0.028393,0.037554 0.047858,0.061695 0.019466,0.024142 0.02935,0.035984 0.04947,0.059013 0.02012,0.023029 0.030329,0.03431 0.051129,0.056135 0.0208,0.021824 0.031344,0.032502 0.05287,0.052987 0.021526,0.020485 0.032418,0.030514 0.054759,0.049438 0.022341,0.018924 0.033386,0.028282 0.056947,0.045182 q 0.023561,0.0169 0.060859,0.039317 0.034395,0.016745 0.056019,0.028373 c 0.021623,0.011628 0.031896,0.017525 0.052098,0.029767 0.020203,0.012242 0.029996,0.018551 0.048915,0.031441 0.018918,0.01289 0.028065,0.019512 0.045678,0.033008 0.017613,0.013495 0.026101,0.020409 0.042387,0.034468 0.016285,0.014059 0.024105,0.021244 0.039041,0.035825 0.014935,0.014581 0.022075,0.022018 0.035636,0.037081 0.013561,0.015063 0.020009,0.022731 0.032168,0.038235 0.01216,0.015505 0.017901,0.023383 0.028629,0.039288 0.010728,0.015904 0.015748,0.023974 0.025009,0.040233 0.00926,0.016259 0.013542,0.024498 0.021298,0.041063 0.00776,0.016565 0.011275,0.024948 0.017482,0.041762 0.00621,0.016814 0.00894,0.025313 0.013552,0.042308 0.00461,0.016996 0.00653,0.025574 0.0095,0.04267 0.00297,0.017096 0.00405,0.025711 0.00533,0.04281 0.00128,0.017099 0.00151,0.025697 0.00106,0.042683 -4.452e-4,0.016986 -0.0011,0.025505 -0.00329,0.042247 -0.00219,0.016743 -0.00373,0.025109 -0.00766,0.041465 q -0.00393,0.016356 -0.012005,0.040316 a 4,4 0 0 1 -0.071413,0.2197859 q -0.00755,0.024128 -0.013985,0.039673 c -0.00643,0.015544 -0.010105,0.023217 -0.018175,0.038049 -0.00807,0.014832 -0.01255,0.022107 -0.022174,0.036111 -0.00962,0.014004 -0.014862,0.020827 -0.025947,0.033908 -0.011085,0.013082 -0.017028,0.019412 -0.029478,0.031499 -0.012449,0.012087 -0.019048,0.017896 -0.032768,0.028936 -0.01372,0.01104 -0.020928,0.016308 -0.035832,0.026262 -0.014905,0.00995 -0.022679,0.014668 -0.038691,0.023511 -0.016011,0.00884 -0.024317,0.012992 -0.041366,0.020702 -0.01705,0.00771 -0.025854,0.011288 -0.043881,0.017849 -0.018027,0.00656 -0.027303,0.00956 -0.046254,0.014957 -0.01895,0.0054 -0.028674,0.00781 -0.048499,0.012025 -0.019825,0.00422 -0.029972,0.00603 -0.050626,0.00905 -0.020654,0.00302 -0.031203,0.00423 -0.052642,0.00604 -0.021439,0.0018 -0.03237,0.00241 -0.054551,0.00297 -0.022181,5.652e-4 -0.033474,5.47e-4 -0.056355,-1.451e-4 -0.022882,-6.92e-4 -0.034514,-0.00134 -0.058054,-0.00331 -0.02354,-0.00197 -0.035316,-0.00324 -0.059645,-0.00654 q -0.024328,-0.0033 -0.061997,-0.00997 -0.043351,-0.00379 -0.072346,-0.00396 c -0.028995,-1.767e-4 -0.04343,9.024e-4 -0.072628,0.00308 -0.029197,0.00218 -0.043904,0.00389 -0.07336,0.00781 -0.029456,0.00392 -0.044262,0.00636 -0.073918,0.011792 -0.029655,0.00543 -0.044546,0.00856 -0.074359,0.015361 -0.029814,0.00681 -0.044771,0.010575 -0.074709,0.018665 -0.029938,0.00809 -0.044948,0.012473 -0.074982,0.021782 -0.030033,0.00931 -0.045083,0.014282 -0.075185,0.024761 C 1.2991387,5.855685 1.2840617,5.861229 1.2539167,5.87284 1.2237717,5.884451 1.2086797,5.89055 1.1785147,5.903263 1.1483497,5.915976 1.1332537,5.922616 1.1030917,5.936406 1.0729297,5.950196 1.0578407,5.957367 1.0277037,5.972212 0.9975661,5.987057 0.9824956,5.99475 0.9524043,6.010633 0.922313,6.026516 0.9072712,6.034723 0.8772473,6.051628 0.8472234,6.068534 0.8322207,6.077247 0.802285,6.095161 0.7723494,6.113076 0.757396,6.122289 0.7275691,6.1412 0.6977422,6.160111 0.6828484,6.16982 0.6531506,6.189717 0.6234528,6.209614 0.6086286,6.219812 0.5790801,6.240686 Q 0.5495315,6.261559 0.5054079,6.294082 a 6.05,6.05 0 0 1 0,0.5118528 q 0.0441237,0.032523 0.0736722,0.053396 c 0.0295486,0.020873 0.0443727,0.031071 0.0740705,0.050968 0.0296978,0.019897 0.0445916,0.029606 0.0744185,0.048517 0.0298269,0.018911 0.0447803,0.028125 0.0747159,0.046039 0.0299357,0.017914 0.0449384,0.026627 0.0749623,0.043533 0.0300238,0.016906 0.0450657,0.025112 0.075157,0.040995 0.0300913,0.015883 0.0451618,0.023576 0.0752994,0.038421 0.030138,0.014845 0.045226,0.022016 0.075388,0.035806 0.030162,0.01379 0.045258,0.02043 0.075423,0.033143 0.030165,0.012713 0.045257,0.018811 0.075402,0.030423 0.030145,0.011612 0.045222,0.017155 0.075324,0.027634 0.030102,0.010479 0.045151,0.015453 0.075185,0.024762 0.030033,0.00931 0.045044,0.013693 0.074982,0.021782 0.029938,0.00809 0.044896,0.01186 0.074709,0.018665 0.029814,0.00681 0.044704,0.00993 0.074359,0.015361 0.029655,0.00543 0.044462,0.00787 0.073918,0.011792 0.029456,0.00392 0.044163,0.00563 0.07336,0.00781 0.029198,0.00218 0.043633,0.00326 0.072628,0.00308 q 0.028995,-1.767e-4 0.072346,-0.00396 0.037669,-0.00667 0.061997,-0.00997 c 0.024328,-0.0033 0.036105,-0.00457 0.059645,-0.00654 0.02354,-0.00197 0.035172,-0.00262 0.058054,-0.00332 0.022882,-6.921e-4 0.034174,-7.103e-4 0.056355,-1.451e-4 0.022181,5.652e-4 0.033113,0.00117 0.054551,0.00297 0.021439,0.0018 0.031989,0.00302 0.052642,0.00604 0.020653,0.00302 0.030801,0.00484 0.050626,0.00905 0.019825,0.00422 0.029548,0.00663 0.048499,0.012025 0.018951,0.0054 0.028227,0.0084 0.046254,0.014957 0.018027,0.00656 0.026832,0.010139 0.043881,0.017849 0.01705,0.00771 0.025355,0.01186 0.041366,0.020702 0.016011,0.00884 0.023786,0.013556 0.038691,0.023511 0.014905,0.00995 0.022112,0.015223 0.035832,0.026262 0.01372,0.01104 0.020319,0.016849 0.032768,0.028936 0.012449,0.012087 0.018393,0.018418 0.029478,0.031499 0.011085,0.013082 0.016323,0.019905 0.025947,0.033909 0.00962,0.014004 0.014104,0.021279 0.022174,0.036111 0.00807,0.014832 0.011743,0.022505 0.018175,0.038049 q 0.00643,0.015544 0.013985,0.039673 a 4,4 0 0 1 0.071413,0.2197859 q 0.00807,0.02396 0.012005,0.040316 c 0.00393,0.016356 0.00547,0.024723 0.00766,0.041465 0.00219,0.016743 0.00284,0.025261 0.00329,0.042247 4.453e-4,0.016986 2.184e-4,0.025585 -0.00106,0.042684 -0.00128,0.017099 -0.00237,0.025714 -0.00533,0.04281 -0.00297,0.017096 -0.00489,0.025675 -0.0095,0.04267 -0.00461,0.016996 -0.00735,0.025494 -0.013552,0.042308 -0.00621,0.016814 -0.00973,0.025197 -0.017482,0.041762 -0.00776,0.016565 -0.012036,0.024804 -0.021298,0.041063 -0.00926,0.016259 -0.014282,0.024329 -0.025009,0.040233 -0.010728,0.015904 -0.01647,0.023783 -0.028629,0.039288 -0.012159,0.015505 -0.018607,0.023172 -0.032168,0.038235 -0.013561,0.015063 -0.020701,0.0225 -0.035636,0.037081 -0.014935,0.014581 -0.022755,0.021767 -0.039041,0.035825 -0.016285,0.014059 -0.024774,0.020973 -0.042387,0.034468 -0.017613,0.013495 -0.026759,0.020118 -0.045678,0.033008 -0.018919,0.01289 -0.028712,0.019199 -0.048915,0.031441 -0.020203,0.012242 -0.030475,0.018139 -0.052098,0.029767 q -0.021623,0.011628 -0.056019,0.028373 -0.037298,0.022417 -0.060859,0.039317 c -0.023561,0.0169 -0.034605,0.026258 -0.056947,0.045182 -0.022341,0.018924 -0.033233,0.028953 -0.054759,0.049438 -0.021526,0.020485 -0.03207,0.031163 -0.05287,0.052987 -0.0208,0.021824 -0.031009,0.033105 -0.051129,0.056135 -0.02012,0.02303 -0.030004,0.034871 -0.04947,0.059013 -0.019466,0.024142 -0.029032,0.036511 -0.047858,0.061695 -0.018826,0.025184 -0.028078,0.038054 -0.046271,0.064225 -0.018193,0.026171 -0.027132,0.039518 -0.044695,0.066631 -0.017563,0.027113 -0.026188,0.040917 -0.04312,0.068933 -0.016931,0.028016 -0.025241,0.042261 -0.041538,0.071146 -0.016296,0.028885 -0.024288,0.043555 -0.039944,0.07328 -0.015656,0.029725 -0.023327,0.044806 -0.038335,0.075343 -0.015008,0.030537 -0.022354,0.046017 -0.036707,0.077342 -0.014353,0.031325 -0.021369,0.047192 -0.035058,0.079281 -0.013689,0.032089 -0.020371,0.048332 -0.033385,0.081163 -0.013015,0.032831 -0.019358,0.04944 -0.031688,0.082993 -0.012331,0.033553 -0.018329,0.050517 -0.029966,0.084772 q -0.011636,0.034255 -0.028216,0.086502 a 6.05,6.05 0 0 1 0.3008595,0.4140974 q 0.054814,3.77e-4 0.090988,-1.04e-4 c 0.036174,-4.82e-4 0.054162,-9.45e-4 0.089883,-0.0023 0.035721,-0.0014 0.053477,-0.0023 0.088723,-0.0045 0.035246,-0.0022 0.052759,-0.0036 0.087508,-0.0067 0.034748,-0.0031 0.052007,-0.0049 0.086234,-0.0088 0.034227,-0.004 0.051219,-0.0062 0.0849,-0.01101 0.03368,-0.0048 0.050394,-0.0075 0.083502,-0.01318 0.033108,-0.0057 0.04953,-0.0088 0.082037,-0.01534 0.032507,-0.0066 0.048623,-0.01007 0.0805,-0.01752 0.031877,-0.0074 0.047671,-0.01138 0.078884,-0.01971 0.031213,-0.0083 0.046669,-0.0127 0.077181,-0.02192 0.030512,-0.0092 0.045611,-0.01404 0.07538,-0.02416 0.029769,-0.01012 0.044489,-0.0154 0.073465,-0.02645 0.028975,-0.01105 0.043292,-0.01679 0.071412,-0.02881 0.02812,-0.01202 0.042003,-0.01824 0.069187,-0.03128 0.027184,-0.01304 0.040597,-0.01977 0.066732,-0.03391 0.026134,-0.01414 0.039038,-0.0214 0.06394,-0.0368 0.024901,-0.015399 0.037214,-0.023012 0.060568,-0.040197 q 0.023353,-0.017186 0.056199,-0.045731 0.026554,-0.027537 0.044295,-0.044509 c 0.017741,-0.016972 0.026524,-0.024919 0.044409,-0.04035 0.017885,-0.015431 0.026913,-0.022796 0.045018,-0.036805 0.018105,-0.014009 0.02723,-0.020662 0.045507,-0.033242 0.018277,-0.012581 0.027476,-0.018517 0.045879,-0.029661 0.018403,-0.011144 0.027653,-0.016361 0.046136,-0.026059 0.018483,-0.0097 0.027762,-0.014191 0.046278,-0.022433 0.018517,-0.00824 0.027801,-0.012005 0.046304,-0.018778 0.018503,-0.00677 0.027771,-0.0098 0.046212,-0.015087 0.018441,-0.00529 0.027667,-0.00757 0.045992,-0.011353 0.018325,-0.00378 0.027484,-0.00531 0.045635,-0.00757 0.018151,-0.00226 0.027211,-0.00301 0.045121,-0.00372 0.017909,-7.073e-4 0.026837,-6.818e-4 0.044426,1.851e-4 0.017589,8.668e-4 0.026342,0.00169 0.043518,0.00415 0.017176,0.00246 0.025706,0.00409 0.042363,0.00816 0.016657,0.00407 0.024905,0.00651 0.040922,0.012182 0.016017,0.00567 0.023918,0.00892 0.039164,0.016181 0.015246,0.00726 0.022728,0.011305 0.037068,0.0201 q 0.01434,0.0088 0.034633,0.023876 a 4,4 0 0 1 0.1869611,0.1358352 q 0.020613,0.014639 0.033409,0.02556 c 0.012796,0.010921 0.018958,0.016785 0.030571,0.029043 0.011612,0.012258 0.017147,0.018767 0.027491,0.032247 0.010344,0.01348 0.015215,0.02057 0.024231,0.035155 0.00902,0.014585 0.0132,0.022194 0.020849,0.037769 0.00765,0.01558 0.011134,0.02365 0.017394,0.04011 0.00626,0.01646 0.00904,0.02494 0.013904,0.04219 0.00486,0.01725 0.00694,0.0261 0.010404,0.04406 0.00346,0.01796 0.00484,0.02714 0.00691,0.04574 0.00206,0.0186 0.00275,0.02808 0.00342,0.04725 6.694e-4,0.01917 6.551e-4,0.02892 -6.87e-5,0.04861 -7.238e-4,0.01969 -0.00143,0.02968 -0.00355,0.04984 -0.00212,0.02016 -0.00352,0.03037 -0.00703,0.05094 -0.00351,0.02058 -0.00562,0.03099 -0.010527,0.05193 -0.00491,0.02095 -0.00771,0.03153 -0.014032,0.0528 -0.00632,0.02127 -0.00982,0.03201 -0.017553,0.05355 -0.00773,0.02155 -0.011944,0.03241 -0.021092,0.05419 -0.00915,0.02178 -0.013993,0.03259 -0.024652,0.0547 q -0.010659,0.02212 -0.028643,0.05588 -0.016998,0.04006 -0.026126,0.06758 c -0.00913,0.02752 -0.012562,0.04158 -0.019514,0.07002 -0.00695,0.02844 -0.00987,0.04296 -0.015242,0.07218 -0.00537,0.02923 -0.00763,0.04406 -0.011627,0.07394 -0.004,0.02988 -0.00563,0.04501 -0.00837,0.07547 -0.00274,0.03046 -0.00378,0.04585 -0.00534,0.07682 -0.00156,0.03097 -0.00203,0.0466 -0.00245,0.07804 -4.277e-4,0.03144 -3.482e-4,0.04729 3.161e-4,0.07916 6.644e-4,0.03187 0.00128,0.04792 0.00301,0.08018 0.00173,0.03226 0.00286,0.0485 0.00563,0.08111 0.00277,0.03262 0.00442,0.04903 0.00821,0.08197 0.00379,0.03295 0.00595,0.04951 0.010757,0.08276 0.00481,0.03325 0.00746,0.04996 0.013272,0.08349 0.00581,0.03353 0.00896,0.05037 0.015764,0.08415 0.0068,0.03378 0.010451,0.05074 0.018238,0.08475 0.00779,0.03401 0.011929,0.05108 0.020697,0.08529 0.00877,0.03421 0.0134,0.05138 0.023146,0.08577 0.00975,0.03439 0.014864,0.05164 0.025585,0.0862 q 0.01072,0.03455 0.028017,0.08657 a 6.05,6.05 0 0 1 0.4868009,0.158171 q 0.044567,-0.03191 0.073549,-0.05357 c 0.028982,-0.02165 0.043263,-0.0326 0.071363,-0.0547 0.0281,-0.0221 0.041936,-0.03326 0.069139,-0.05578 0.027203,-0.02252 0.040586,-0.0339 0.066874,-0.05683 0.026288,-0.02294 0.039211,-0.03451 0.064567,-0.05784 0.025356,-0.02333 0.037809,-0.0351 0.062213,-0.05881 0.024405,-0.02371 0.036378,-0.03567 0.05981,-0.05974 0.023432,-0.02407 0.034915,-0.03621 0.05735,-0.06063 0.022436,-0.02443 0.033416,-0.03673 0.054828,-0.06149 0.021412,-0.02476 0.031876,-0.03723 0.052235,-0.06231 0.020359,-0.02508 0.03029,-0.03771 0.049558,-0.0631 0.019268,-0.02539 0.028649,-0.03817 0.046783,-0.06385 0.018134,-0.02569 0.026942,-0.03861 0.043887,-0.06458 0.016945,-0.02597 0.025153,-0.03903 0.040838,-0.06528 0.015685,-0.02625 0.023259,-0.03945 0.037588,-0.06597 0.014329,-0.02652 0.021226,-0.03985 0.034056,-0.06666 0.012831,-0.0268 0.019003,-0.04026 0.030097,-0.06736 0.011094,-0.0271 0.016581,-0.04049 0.025373,-0.06812 q 0.00879,-0.02763 0.018586,-0.07003 0.0053,-0.03789 0.00967,-0.06204 c 0.00438,-0.02416 0.00681,-0.03575 0.012211,-0.05875 0.0054,-0.023 0.00837,-0.03426 0.014787,-0.05624 0.00641,-0.02197 0.00988,-0.03272 0.017277,-0.05364 0.00739,-0.02092 0.011345,-0.03113 0.019683,-0.05096 0.00834,-0.01983 0.012755,-0.02949 0.022008,-0.0482 0.00925,-0.01871 0.014118,-0.0278 0.024254,-0.04535 0.010136,-0.01755 0.015435,-0.02605 0.026423,-0.04241 0.010988,-0.01636 0.016707,-0.02425 0.028518,-0.03937 0.011811,-0.01512 0.017934,-0.02239 0.030536,-0.03622 0.012601,-0.01383 0.019114,-0.02045 0.032472,-0.03294 0.013358,-0.0125 0.020243,-0.01843 0.034316,-0.02953 0.014073,-0.0111 0.021311,-0.01633 0.03605,-0.02596 0.014739,-0.0096 0.022303,-0.01412 0.037646,-0.02222 0.015343,-0.0081 0.0232,-0.0118 0.039067,-0.0183 0.015867,-0.0065 0.023974,-0.0094 0.040267,-0.0142 0.016292,-0.0048 0.024596,-0.0068 0.041195,-0.0099 0.0166,-0.0031 0.025032,-0.0042 0.041803,-0.0055 q 0.016771,-0.0013 0.042052,-10e-4 a 4,4 0 0 1 0.2310966,0 q 0.025281,-2.73e-4 0.042052,10e-4 c 0.016771,0.0013 0.025204,0.0024 0.041803,0.0055 0.0166,0.0031 0.024903,0.0051 0.041195,0.0099 0.016292,0.0048 0.0244,0.0077 0.040267,0.0142 0.015867,0.0065 0.023724,0.0102 0.039067,0.0183 0.015343,0.0081 0.022907,0.01259 0.037646,0.02222 0.014739,0.0096 0.021977,0.01486 0.03605,0.02596 0.014073,0.0111 0.020958,0.01704 0.034316,0.02953 0.013358,0.01249 0.01987,0.01911 0.032472,0.03294 0.012601,0.01383 0.018725,0.0211 0.030536,0.03622 0.011811,0.01512 0.01753,0.02301 0.028518,0.03937 0.010988,0.01636 0.016288,0.02486 0.026423,0.04241 0.010136,0.01755 0.015002,0.02664 0.024254,0.04535 0.00925,0.01871 0.01367,0.02837 0.022008,0.0482 0.00834,0.01983 0.012291,0.03004 0.019683,0.05096 0.00739,0.02092 0.010864,0.03167 0.017277,0.05364 0.00641,0.02198 0.00939,0.03324 0.014787,0.05624 0.0054,0.023 0.00783,0.03459 0.012211,0.05875 q 0.00438,0.02416 0.00967,0.06204 0.00979,0.0424 0.018586,0.07003 c 0.00879,0.02763 0.014279,0.04102 0.025373,0.06812 0.011094,0.02709 0.017266,0.04055 0.030097,0.06736 0.012831,0.0268 0.019728,0.04013 0.034056,0.06666 0.014329,0.02653 0.021902,0.03972 0.037587,0.06597 0.015685,0.02625 0.023893,0.03931 0.040838,0.06528 0.016945,0.02597 0.025753,0.03889 0.043887,0.06458 0.018134,0.02569 0.027515,0.03846 0.046783,0.06385 0.019268,0.02539 0.0292,0.03802 0.049558,0.0631 0.020359,0.02508 0.030822,0.03755 0.052235,0.06231 0.021413,0.02476 0.032392,0.03706 0.054828,0.06149 0.022436,0.02442 0.033918,0.03656 0.05735,0.06063 0.023432,0.02407 0.035405,0.03603 0.05981,0.05974 0.024405,0.02371 0.036857,0.03548 0.062214,0.05881 0.025356,0.02333 0.038279,0.03491 0.064567,0.05784 0.026288,0.02294 0.039672,0.03431 0.066874,0.05683 0.027203,0.02252 0.041038,0.03369 0.069139,0.05578 0.0281,0.0221 0.042381,0.03304 0.071363,0.0547 q 0.028982,0.02165 0.073549,0.05357 a 6.05,6.05 0 0 1 0.4868009,-0.158171 q 0.017297,-0.05202 0.028017,-0.08657 c 0.01072,-0.03455 0.015839,-0.0518 0.025585,-0.0862 0.00975,-0.03439 0.014377,-0.05156 0.023146,-0.08577 0.00877,-0.03421 0.01291,-0.05128 0.020697,-0.08529 0.00779,-0.03401 0.011438,-0.05097 0.018238,-0.08475 0.0068,-0.03378 0.00996,-0.05062 0.015764,-0.08415 0.00581,-0.03353 0.00847,-0.05024 0.013272,-0.08349 0.00481,-0.03325 0.00696,-0.04982 0.010757,-0.08276 0.00379,-0.03295 0.00544,-0.04936 0.00821,-0.08197 0.00277,-0.03262 0.00391,-0.04885 0.00563,-0.08111 0.00173,-0.03226 0.00234,-0.04831 0.00301,-0.08018 6.643e-4,-0.03187 7.438e-4,-0.04772 3.161e-4,-0.07916 -4.276e-4,-0.03144 -8.966e-4,-0.04707 -0.00245,-0.07804 -0.00156,-0.03097 -0.00259,-0.04636 -0.00534,-0.07682 -0.00274,-0.03046 -0.00437,-0.04559 -0.00837,-0.07547 -0.004,-0.02988 -0.00625,-0.04472 -0.011627,-0.07394 -0.00537,-0.02923 -0.00829,-0.04374 -0.015242,-0.07218 -0.00695,-0.02844 -0.010386,-0.0425 -0.019514,-0.07002 q -0.00913,-0.02752 -0.026126,-0.06758 -0.017984,-0.03376 -0.028643,-0.05588 c -0.010659,-0.02212 -0.015503,-0.03293 -0.024652,-0.0547 -0.00915,-0.02178 -0.013363,-0.03264 -0.021092,-0.05419 -0.00773,-0.02155 -0.011236,-0.03228 -0.017553,-0.05355 -0.00632,-0.02127 -0.00912,-0.03185 -0.014032,-0.0528 -0.00491,-0.02095 -0.00701,-0.03136 -0.010527,-0.05193 -0.00351,-0.02057 -0.00492,-0.03079 -0.00703,-0.05094 -0.00212,-0.02016 -0.00283,-0.03015 -0.00355,-0.04984 -7.238e-4,-0.01969 -7.381e-4,-0.02944 -6.87e-5,-0.04861 6.693e-4,-0.01917 0.00135,-0.02865 0.00342,-0.04725 0.00206,-0.0186 0.00344,-0.02778 0.00691,-0.04574 0.00346,-0.01796 0.00554,-0.02681 0.010404,-0.04406 0.00486,-0.01725 0.00764,-0.02573 0.013904,-0.04219 0.00626,-0.01646 0.00975,-0.02453 0.017394,-0.04011 0.00765,-0.015575 0.011833,-0.023184 0.020849,-0.037769 0.00902,-0.014585 0.013886,-0.021675 0.024231,-0.035155 0.010344,-0.01348 0.015879,-0.019989 0.027491,-0.032247 0.011612,-0.012258 0.017775,-0.018122 0.030571,-0.029043 q 0.012796,-0.010921 0.033409,-0.02556 A 4,4 0 0 1 8.9936404,9.7167999 q 0.020293,-0.015081 0.034633,-0.023876 c 0.01434,-0.0088 0.021822,-0.012844 0.037068,-0.0201 0.015246,-0.00726 0.023147,-0.010508 0.039164,-0.016181 0.016017,-0.00567 0.024265,-0.00811 0.040922,-0.012182 0.016657,-0.00407 0.025187,-0.0057 0.042363,-0.00816 0.017176,-0.00246 0.02593,-0.00328 0.043518,-0.00415 0.017589,-8.669e-4 0.026516,-8.924e-4 0.044425,-1.851e-4 0.017909,7.072e-4 0.026969,0.00146 0.045121,0.00372 0.018151,0.00226 0.027309,0.00378 0.045635,0.00757 0.018325,0.00378 0.027551,0.00606 0.045992,0.011353 0.018441,0.00529 0.027708,0.00831 0.046212,0.015087 0.018503,0.00677 0.027788,0.010536 0.046304,0.018778 0.018517,0.00824 0.027795,0.012735 0.046278,0.022433 0.018483,0.0097 0.027733,0.014915 0.046136,0.026059 0.018403,0.011144 0.027602,0.01708 0.045879,0.029661 0.018277,0.012581 0.027402,0.019233 0.045507,0.033242 0.018105,0.014009 0.027132,0.021374 0.045018,0.036805 0.017885,0.015431 0.026668,0.023378 0.044409,0.04035 q 0.017741,0.016972 0.044295,0.044509 0.032846,0.028545 0.056199,0.045731 c 0.023353,0.017186 0.035666,0.024798 0.060568,0.040197 0.024902,0.0154 0.037806,0.02266 0.06394,0.0368 0.02613,0.01414 0.03955,0.02087 0.06673,0.03391 0.02718,0.01304 0.04107,0.01926 0.06919,0.03128 0.02812,0.01202 0.04244,0.01776 0.07141,0.02881 0.02897,0.01105 0.0437,0.01633 0.07346,0.02645 0.02977,0.01012 0.04487,0.01494 0.07538,0.02416 0.03051,0.0092 0.04597,0.01359 0.07718,0.02192 0.03121,0.0083 0.04701,0.01226 0.07888,0.01971 0.03188,0.0074 0.04799,0.01095 0.0805,0.01752 0.03251,0.0066 0.04893,0.0096 0.08204,0.01534 0.03311,0.0057 0.04982,0.0083 0.0835,0.01318 0.03368,0.0048 0.05067,0.007 0.0849,0.01101 0.03423,0.004 0.05149,0.0057 0.08623,0.0088 0.03475,0.0031 0.05226,0.0044 0.08751,0.0067 0.03525,0.0022 0.053,0.0031 0.08872,0.0045 0.03572,0.0014 0.05371,0.0018 0.08988,0.0023 q 0.03617,4.81e-4 0.09099,1.04e-4 A 6.05,6.05 0 0 1 11.590585,9.895857 Q 11.574005,9.84361 11.562365,9.809355 C 11.550725,9.7751 11.544725,9.758136 11.532395,9.724583 11.520065,9.69103 11.513725,9.674421 11.500705,9.64159 c -0.01301,-0.032831 -0.0197,-0.049075 -0.03339,-0.081163 -0.01369,-0.032089 -0.0207,-0.047956 -0.03506,-0.079281 -0.01435,-0.031325 -0.0217,-0.046805 -0.03671,-0.077342 -0.01501,-0.030537 -0.02268,-0.045619 -0.03834,-0.075343 -0.01566,-0.029725 -0.02365,-0.044395 -0.03994,-0.07328 -0.0163,-0.028885 -0.02461,-0.04313 -0.04154,-0.071146 -0.01693,-0.028016 -0.02556,-0.04182 -0.04312,-0.068933 -0.01756,-0.027113 -0.0265,-0.04046 -0.0447,-0.066631 -0.01819,-0.026171 -0.02745,-0.039041 -0.04627,-0.064225 -0.01883,-0.025184 -0.02839,-0.037554 -0.04786,-0.061695 -0.01947,-0.024142 -0.02935,-0.035984 -0.04947,-0.059013 -0.02012,-0.023029 -0.03033,-0.03431 -0.05113,-0.056135 -0.0208,-0.021824 -0.03134,-0.032502 -0.05287,-0.052987 -0.02153,-0.020485 -0.03242,-0.030514 -0.05476,-0.049438 -0.02234,-0.018924 -0.03339,-0.028282 -0.05695,-0.045182 q -0.02356,-0.0169 -0.06086,-0.039317 -0.03439,-0.016745 -0.05602,-0.028373 c -0.02162,-0.011628 -0.0319,-0.017525 -0.0521,-0.029767 -0.0202,-0.012242 -0.03,-0.018551 -0.04891,-0.031441 -0.01892,-0.01289 -0.02806,-0.019512 -0.04568,-0.033008 -0.01761,-0.013495 -0.0261,-0.020409 -0.04239,-0.034468 -0.01629,-0.014059 -0.02411,-0.021244 -0.03904,-0.035825 -0.01493,-0.014581 -0.02207,-0.022018 -0.03564,-0.037081 -0.01356,-0.015063 -0.02001,-0.022731 -0.03217,-0.038235 -0.01216,-0.015505 -0.0179,-0.023383 -0.02863,-0.039288 -0.01073,-0.015904 -0.01575,-0.023974 -0.02501,-0.040233 -0.0093,-0.016259 -0.01354,-0.024498 -0.0213,-0.041063 -0.0078,-0.016565 -0.01127,-0.024948 -0.01748,-0.041762 -0.0062,-0.016814 -0.0089,-0.025313 -0.01355,-0.042308 -0.0046,-0.016996 -0.0065,-0.025574 -0.0095,-0.04267 -0.003,-0.017096 -0.0041,-0.025711 -0.0053,-0.04281 -0.0013,-0.017099 -0.0015,-0.025697 -0.0011,-0.042684 4.46e-4,-0.016986 0.0011,-0.025505 0.0033,-0.042247 0.0022,-0.016742 0.0037,-0.025109 0.0077,-0.041465 q 0.0039,-0.016356 0.01201,-0.040316 a 4,4 0 0 1 0.07141,-0.2197859"
       fill="#d28232"
       id="path2" />
    <path
       d="m 10.291649,7.4270166 q 0.01391,-0.026307 0.02483,-0.042819 c 0.01092,-0.016512 0.01694,-0.024538 0.02976,-0.03974 0.01282,-0.015202 0.01977,-0.022519 0.03435,-0.036269 0.01459,-0.01375 0.02238,-0.020294 0.03857,-0.032479 0.0162,-0.012185 0.02475,-0.01791 0.04241,-0.028447 0.01766,-0.010537 0.0269,-0.01541 0.04588,-0.024238 0.01898,-0.00883 0.02884,-0.012827 0.049,-0.019904 0.02016,-0.00708 0.03058,-0.010187 0.0518,-0.015482 0.02122,-0.00529 0.03214,-0.0075 0.05431,-0.010992 0.02217,-0.00349 0.03353,-0.00479 0.05656,-0.00645 0.02303,-0.00166 0.03478,-0.00204 0.05856,-0.00185 0.02378,1.878e-4 0.03589,7.362e-4 0.06034,0.00279 0.02445,0.00206 0.03687,0.00354 0.06189,0.00749 0.02502,0.00394 0.03771,0.00638 0.06322,0.012231 0.02551,0.00585 0.03843,0.00925 0.06434,0.017028 0.02592,0.00778 0.03901,0.012146 0.06524,0.021875 0.02623,0.00973 0.03946,0.015074 0.06592,0.026769 0.02646,0.011696 0.03959,0.017946 0.06637,0.031709 q 0.02678,0.013763 0.06755,0.037107 0.03745,0.00393 0.06258,0.00458 c 0.02513,6.516e-4 0.03763,9.21e-5 0.06307,-0.00132 0.02544,-0.00141 0.03831,-0.00266 0.06413,-0.00574 0.02582,-0.00308 0.03885,-0.00508 0.06497,-0.00967 0.02613,-0.0046 0.03928,-0.0073 0.06565,-0.013312 0.02637,-0.00601 0.03963,-0.00939 0.0662,-0.016761 0.02656,-0.00737 0.03991,-0.011403 0.06662,-0.020079 0.02671,-0.00868 0.04012,-0.01335 0.06694,-0.023298 0.02682,-0.00995 0.04027,-0.015249 0.06716,-0.026443 0.02689,-0.011195 0.04036,-0.01711 0.06728,-0.02953 0.02692,-0.01242 0.0404,-0.018942 0.0673,-0.032571 0.02691,-0.013628 0.04038,-0.020749 0.06724,-0.035572 0.02686,-0.014822 0.0403,-0.022536 0.06708,-0.03854 0.02678,-0.016004 0.04017,-0.024305 0.06684,-0.041479 0.02667,-0.017174 0.03999,-0.026058 0.06651,-0.044392 0.02652,-0.018335 0.03975,-0.027795 0.06609,-0.047281 0.02633,-0.019485 0.03947,-0.029519 0.06558,-0.050146 0.02611,-0.020627 0.03913,-0.031229 0.06499,-0.052989 q 0.02586,-0.02176 0.06431,-0.05581 a 4,4 0 0 1 0,-0.4699696 q -0.03845,-0.03405 -0.06431,-0.05581 c -0.02586,-0.02176 -0.03887,-0.032362 -0.06499,-0.052989 -0.02611,-0.020627 -0.03925,-0.030661 -0.06558,-0.050146 -0.02633,-0.019485 -0.03957,-0.028946 -0.06609,-0.047281 -0.02652,-0.018334 -0.03984,-0.027218 -0.06651,-0.044392 -0.02667,-0.017174 -0.04005,-0.025475 -0.06684,-0.041479 -0.02678,-0.016004 -0.04022,-0.023718 -0.06708,-0.03854 -0.02686,-0.014822 -0.04033,-0.021943 -0.06724,-0.035572 -0.02691,-0.013629 -0.04039,-0.02015 -0.0673,-0.032571 -0.02692,-0.01242 -0.04039,-0.018336 -0.06728,-0.02953 -0.02689,-0.011195 -0.04034,-0.016495 -0.06716,-0.026443 -0.02682,-0.00995 -0.04023,-0.014623 -0.06694,-0.023298 -0.02671,-0.00868 -0.04006,-0.01271 -0.06662,-0.020078 -0.02656,-0.00737 -0.03983,-0.010747 -0.0662,-0.016762 -0.02637,-0.00601 -0.03952,-0.00871 -0.06565,-0.013312 -0.02612,-0.0046 -0.03915,-0.00659 -0.06497,-0.00967 C 11.456509,5.77407 11.443639,5.77282 11.418199,5.77141 11.392759,5.77 11.380259,5.76944 11.355129,5.77009 q -0.02513,6.516e-4 -0.06258,0.00458 -0.04076,0.023344 -0.06755,0.037107 c -0.02678,0.013763 -0.03991,0.020013 -0.06637,0.031709 -0.02646,0.011696 -0.03969,0.017041 -0.06592,0.02677 -0.02623,0.00973 -0.03932,0.014094 -0.06524,0.021875 -0.02592,0.00778 -0.03883,0.011176 -0.06434,0.017028 -0.02551,0.00585 -0.0382,0.00829 -0.06322,0.012231 -0.02502,0.00394 -0.03745,0.00543 -0.06189,0.00749 -0.02445,0.00206 -0.03656,0.0026 -0.06034,0.00279 -0.02378,1.878e-4 -0.03554,-1.925e-4 -0.05856,-0.00185 -0.02303,-0.00166 -0.03439,-0.00296 -0.05656,-0.00645 -0.02217,-0.00349 -0.03309,-0.0057 -0.05431,-0.010992 -0.02122,-0.00529 -0.03164,-0.0084 -0.0518,-0.015482 -0.02016,-0.00708 -0.03002,-0.011076 -0.049,-0.019904 -0.01897,-0.00883 -0.02822,-0.013701 -0.04588,-0.024238 -0.01766,-0.010537 -0.02621,-0.016262 -0.04241,-0.028447 -0.0162,-0.012185 -0.02399,-0.01873 -0.03857,-0.032479 -0.01459,-0.01375 -0.02153,-0.021067 -0.03435,-0.036269 -0.01282,-0.015202 -0.01884,-0.023228 -0.02976,-0.03974 Q 10.305559,5.699307 10.291649,5.673 A 1.95,1.95 0 0 1 10.180343,5.4801959 q -0.01583,-0.0252 -0.02467,-0.042911 c -0.0088,-0.017711 -0.01278,-0.026937 -0.01954,-0.045642 -0.0068,-0.018706 -0.0096,-0.028379 -0.01423,-0.047885 -0.0046,-0.019506 -0.0064,-0.029526 -0.0088,-0.049645 -0.0025,-0.020119 -0.0031,-0.030392 -0.0034,-0.050953 -2.96e-4,-0.020561 1.06e-4,-0.031003 0.0019,-0.05185 0.0018,-0.020847 0.0033,-0.031388 0.0073,-0.052384 0.004,-0.020997 0.0065,-0.031573 0.01249,-0.052599 0.006,-0.021026 0.0096,-0.031583 0.01764,-0.05253 0.0081,-0.020947 0.01262,-0.031436 0.0227,-0.052206 0.01008,-0.02077 0.01563,-0.031144 0.02768,-0.051645 0.01205,-0.020501 0.01858,-0.030716 0.03259,-0.050859 0.014,-0.020143 0.0215,-0.030158 0.03743,-0.049857 0.01593,-0.019699 0.02438,-0.02947 0.04221,-0.04864 0.01782,-0.01917 0.02722,-0.028654 0.04692,-0.047209 0.0197,-0.018555 0.03002,-0.02771 0.05156,-0.045564 0.02154,-0.017853 0.03279,-0.026637 0.05614,-0.043703 0.02336,-0.017066 0.03534,-0.025312 0.06065,-0.041625 q 0.02531,-0.016314 0.06591,-0.039942 0.02213,-0.030472 0.03526,-0.051911 c 0.01313,-0.021439 0.0189,-0.032544 0.03039,-0.055283 0.0115,-0.022739 0.01685,-0.034508 0.02709,-0.058411 0.01024,-0.023903 0.01503,-0.03618 0.02411,-0.061103 0.0091,-0.024923 0.01332,-0.037667 0.0213,-0.06351 0.008,-0.025843 0.01168,-0.039019 0.01858,-0.065707 0.0069,-0.026688 0.01008,-0.040264 0.01592,-0.067735 0.0058,-0.027471 0.0085,-0.041421 0.01329,-0.069621 0.0048,-0.028201 0.0069,-0.0425 0.01068,-0.071382 0.0037,-0.028882 0.0054,-0.043509 0.0081,-0.07303 0.0027,-0.029521 0.0038,-0.044455 0.0054,-0.074573 0.0017,-0.030118 0.0022,-0.04534 0.0028,-0.076016 5.96e-4,-0.030676 6.33e-4,-0.046168 1.65e-4,-0.077365 -4.67e-4,-0.031198 -9.64e-4,-0.04694 -0.0025,-0.078623 -0.0015,-0.031683 -0.0026,-0.047659 -0.0052,-0.079791 -0.0026,-0.032133 -0.0042,-0.048324 -0.0079,-0.080872 -0.0037,-0.032548 -0.0058,-0.048938 -0.01064,-0.081866 -0.0048,-0.032928 -0.0075,-0.0495 -0.0134,-0.082774 q -0.0059,-0.033274 -0.01618,-0.083598 A 4,4 0 0 1 10.343043,2.9743887 q -0.04871,0.016273 -0.08049,0.027788 c -0.03177,0.011515 -0.04746,0.017484 -0.07838,0.029786 -0.03092,0.012301 -0.04618,0.018658 -0.07622,0.03172 -0.03004,0.013062 -0.04485,0.019793 -0.07399,0.033591 -0.02914,0.013798 -0.04349,0.020891 -0.071697,0.035399 -0.028208,0.014509 -0.042089,0.02195 -0.069341,0.037144 -0.027252,0.015194 -0.040649,0.022971 -0.066918,0.038825 -0.026269,0.015854 -0.039169,0.023955 -0.064426,0.040444 -0.025257,0.016489 -0.037645,0.024902 -0.061859,0.042002 -0.024215,0.0171 -0.036075,0.025812 -0.059213,0.0435 -0.023138,0.017688 -0.034454,0.026687 -0.05648,0.044939 -0.022025,0.018253 -0.032778,0.027527 -0.053647,0.046323 -0.020869,0.018796 -0.031037,0.028336 -0.050699,0.047657 -0.019663,0.019321 -0.02922,0.029117 -0.047613,0.048945 -0.018393,0.019829 -0.02731,0.029873 -0.044353,0.050199 -0.017043,0.020326 -0.025282,0.030611 -0.040862,0.051431 -0.01558,0.02082 -0.023095,0.031342 -0.037039,0.052668 -0.013944,0.021326 -0.020679,0.031872 -0.03268,0.053962 q -0.012001,0.02209 -0.027327,0.05649 -1.642e-4,0.046973 -0.00164,0.07705 c -0.00147,0.030077 -0.00263,0.044573 -0.00573,0.073334 -0.0031,0.028761 -0.00509,0.04289 -0.00978,0.070473 -0.00469,0.027582 -0.00746,0.041103 -0.013677,0.067438 -0.00622,0.026335 -0.00974,0.039215 -0.017425,0.064236 -0.00769,0.025022 -0.011924,0.037228 -0.021021,0.060871 -0.0091,0.023643 -0.01402,0.035144 -0.024463,0.057343 -0.010443,0.022199 -0.016024,0.032963 -0.027752,0.053651 -0.011728,0.020689 -0.017937,0.030682 -0.030887,0.049792 -0.01295,0.01911 -0.019756,0.028299 -0.033863,0.045758 -0.014108,0.017459 -0.021478,0.025807 -0.036675,0.041538 -0.015196,0.015731 -0.023098,0.023198 -0.039306,0.037117 -0.016208,0.01392 -0.024603,0.020462 -0.041736,0.03248 -0.017133,0.012018 -0.025976,0.017588 -0.04393,0.027612 -0.017954,0.010023 -0.02719,0.014571 -0.045841,0.022506 -0.018651,0.00793 -0.028214,0.01141 -0.047415,0.017166 -0.0192,0.00576 -0.02901,0.00811 -0.048586,0.011616 -0.019576,0.0035 -0.029537,0.0047 -0.049296,0.0059 q -0.019758,0.0012 -0.049496,9.18e-5 a 1.95,1.95 0 0 1 -0.2226118,0 q -0.029738,0.00111 -0.049496,-9.18e-5 c -0.019758,-0.0012 -0.029719,-0.0024 -0.049296,-0.0059 -0.019576,-0.0035 -0.029386,-0.00586 -0.048586,-0.011616 -0.0192,-0.00576 -0.028763,-0.00923 -0.047415,-0.017166 -0.018651,-0.00793 -0.027887,-0.012482 -0.045841,-0.022506 -0.017954,-0.010023 -0.026797,-0.015593 -0.04393,-0.027612 -0.017133,-0.012018 -0.025528,-0.01856 -0.041736,-0.03248 -0.016208,-0.013919 -0.02411,-0.021386 -0.039306,-0.037117 -0.015196,-0.015731 -0.022567,-0.024079 -0.036675,-0.041538 -0.014108,-0.017459 -0.020913,-0.026648 -0.033864,-0.045758 -0.01295,-0.01911 -0.019159,-0.029104 -0.030887,-0.049792 -0.011728,-0.020689 -0.017309,-0.031452 -0.027752,-0.053651 -0.010443,-0.022199 -0.015366,-0.0337 -0.024463,-0.057343 -0.0091,-0.023643 -0.013331,-0.035849 -0.021021,-0.060871 -0.00769,-0.025021 -0.011205,-0.037902 -0.017425,-0.064236 -0.00622,-0.026335 -0.00899,-0.039856 -0.013677,-0.067438 -0.00469,-0.027582 -0.00668,-0.041711 -0.00978,-0.070473 -0.0031,-0.028761 -0.00425,-0.043257 -0.00573,-0.073334 q -0.00147,-0.030077 -0.00164,-0.07705 -0.015326,-0.034399 -0.027327,-0.05649 c -0.012001,-0.02209 -0.018736,-0.032636 -0.03268,-0.053962 -0.013944,-0.021326 -0.021459,-0.031848 -0.037039,-0.052668 -0.01558,-0.02082 -0.023819,-0.031105 -0.040862,-0.051431 -0.017043,-0.020326 -0.02596,-0.03037 -0.044353,-0.050199 -0.018393,-0.019829 -0.027951,-0.029625 -0.047613,-0.048945 -0.019662,-0.019321 -0.02983,-0.028861 -0.050699,-0.047657 -0.020869,-0.018796 -0.031622,-0.028071 -0.053647,-0.046323 -0.022025,-0.018252 -0.033341,-0.027251 -0.05648,-0.044939 -0.023138,-0.017688 -0.034999,-0.026399 -0.059213,-0.0435 -0.024215,-0.0171 -0.036602,-0.025513 -0.061859,-0.042002 -0.025257,-0.016489 -0.038157,-0.02459 -0.064426,-0.040444 -0.026269,-0.015854 -0.039666,-0.023632 -0.066918,-0.038825 -0.027252,-0.015194 -0.041133,-0.022635 -0.069341,-0.037144 -0.028208,-0.014509 -0.04256,-0.021601 -0.071697,-0.035399 -0.029137,-0.013798 -0.043948,-0.020529 -0.073989,-0.033591 -0.030041,-0.013062 -0.045297,-0.019419 -0.076217,-0.03172 -0.03092,-0.012301 -0.046609,-0.018271 -0.078383,-0.029786 Q 6.8056697,2.9906619 6.7569569,2.9743887 A 4,4 0 0 1 6.3499513,3.2093734 Q 6.339688,3.2596966 6.333773,3.292971 c -0.00591,0.033275 -0.00859,0.049846 -0.013397,0.082774 -0.00481,0.032928 -0.00693,0.049319 -0.010638,0.081866 -0.00371,0.032548 -0.00528,0.048739 -0.0079,0.080872 -0.00262,0.032133 -0.00365,0.048108 -0.00519,0.079791 -0.00154,0.031683 -0.00204,0.047425 -0.0025,0.078623 -4.677e-4,0.031198 -4.308e-4,0.046689 1.647e-4,0.077365 5.956e-4,0.030676 0.00116,0.045899 0.00281,0.076016 0.00165,0.030118 0.00274,0.045052 0.00545,0.074573 0.0027,0.029521 0.00432,0.044147 0.00807,0.07303 0.00375,0.028882 0.00588,0.043182 0.010679,0.071382 0.00479,0.028201 0.00745,0.04215 0.013294,0.069621 0.00584,0.027471 0.00902,0.041047 0.015922,0.067735 0.0069,0.026689 0.010606,0.039864 0.018582,0.065707 0.00798,0.025844 0.012215,0.038588 0.021297,0.06351 0.00908,0.024923 0.013869,0.0372 0.02411,0.061103 0.01024,0.023903 0.015595,0.035672 0.027092,0.058411 0.011497,0.022739 0.017263,0.033844 0.030393,0.055283 q 0.01313,0.021439 0.035258,0.051911 0.040597,0.023629 0.065909,0.039942 c 0.025311,0.016313 0.037289,0.02456 0.060647,0.041625 0.023358,0.017066 0.034601,0.02585 0.056143,0.043703 0.021542,0.017853 0.031868,0.027009 0.051565,0.045564 0.019697,0.018554 0.029093,0.028039 0.046918,0.047209 0.017825,0.01917 0.026279,0.02894 0.042205,0.04864 0.015927,0.019699 0.023426,0.029714 0.037429,0.049857 0.014003,0.020143 0.020534,0.030359 0.032587,0.050859 0.012053,0.020501 0.017603,0.030875 0.027678,0.051645 0.010075,0.02077 0.01463,0.031259 0.022696,0.052206 0.00807,0.020947 0.01161,0.031504 0.017636,0.05253 0.00603,0.021026 0.00854,0.031602 0.012491,0.052599 0.00395,0.020997 0.00542,0.031538 0.00726,0.052384 0.00184,0.020847 0.00224,0.03129 0.00195,0.05185 -2.965e-4,0.020561 -9.761e-4,0.030833 -0.00343,0.050953 -0.00245,0.02012 -0.00423,0.030139 -0.00884,0.049645 -0.00461,0.019506 -0.00748,0.029179 -0.014233,0.047885 -0.00675,0.018705 -0.010695,0.027932 -0.019536,0.045642 q -0.00884,0.017711 -0.024668,0.042911 a 1.95,1.95 0 0 1 -0.111306,0.1927875 q -0.01391,0.026307 -0.024828,0.042819 c -0.010917,0.016512 -0.016937,0.024538 -0.029759,0.03974 -0.012822,0.015202 -0.019768,0.022519 -0.034353,0.036269 -0.014585,0.01375 -0.022377,0.020294 -0.038573,0.032479 -0.016197,0.012185 -0.024753,0.01791 -0.042411,0.028447 -0.017658,0.010537 -0.026903,0.01541 -0.045877,0.024238 -0.018975,0.00883 -0.028838,0.012827 -0.048996,0.019904 -0.020159,0.00708 -0.030576,0.010187 -0.051798,0.015482 -0.021222,0.00529 -0.032137,0.0075 -0.054311,0.010992 -0.022174,0.00349 -0.033535,0.00479 -0.05656,0.00645 -0.023025,0.00166 -0.034784,0.00204 -0.058565,0.00185 -0.023781,-1.878e-4 -0.035893,-7.362e-4 -0.060339,-0.00279 -0.024446,-0.00206 -0.036868,-0.00354 -0.061892,-0.00749 -0.025023,-0.00394 -0.037712,-0.00638 -0.063226,-0.012231 -0.025514,-0.00585 -0.038426,-0.00925 -0.064343,-0.017028 -0.025917,-0.00778 -0.03901,-0.012146 -0.065242,-0.021875 -0.026232,-0.00973 -0.039461,-0.015074 -0.065919,-0.02677 -0.026458,-0.011696 -0.039589,-0.017946 -0.066372,-0.031709 q -0.026783,-0.013763 -0.067545,-0.037107 -0.037453,-0.00393 -0.062585,-0.00458 c -0.025131,-6.516e-4 -0.037632,-9.21e-5 -0.063073,0.00132 -0.025441,0.00141 -0.038311,0.00266 -0.064132,0.00574 -0.025821,0.00308 -0.038847,0.00508 -0.064972,0.00967 -0.026124,0.0046 -0.039281,0.0073 -0.06565,0.013312 -0.026369,0.00601 -0.039631,0.00939 -0.066195,0.016762 -0.026563,0.00737 -0.039909,0.011403 -0.066622,0.020078 -0.026712,0.00868 -0.040121,0.01335 -0.066941,0.023298 -0.02682,0.00995 -0.040271,0.015249 -0.067158,0.026443 -0.026887,0.011195 -0.040362,0.01711 -0.067278,0.02953 -0.026917,0.01242 -0.040396,0.018942 -0.067304,0.032571 -0.026909,0.013629 -0.040374,0.020749 -0.067239,0.035572 -0.026864,0.014822 -0.040299,0.022536 -0.067083,0.03854 -0.026784,0.016004 -0.040169,0.024305 -0.066838,0.041479 -0.026669,0.017174 -0.039987,0.026057 -0.066505,0.044392 -0.026518,0.018335 -0.039752,0.027795 -0.066085,0.047281 -0.026333,0.019485 -0.039466,0.029519 -0.065579,0.050146 -0.026113,0.020627 -0.039127,0.031229 -0.064986,0.052989 q -0.025859,0.02176 -0.064309,0.05581 a 4,4 0 0 1 0,0.4699696 q 0.03845,0.03405 0.064309,0.05581 c 0.025859,0.02176 0.038873,0.032362 0.064986,0.052989 0.026113,0.020627 0.039246,0.030661 0.065579,0.050146 0.026333,0.019485 0.039567,0.028946 0.066085,0.047281 0.026518,0.018334 0.039837,0.027218 0.066505,0.044392 0.026669,0.017174 0.040054,0.025475 0.066838,0.041479 0.026784,0.016004 0.040218,0.023718 0.067083,0.03854 0.026864,0.014822 0.04033,0.021943 0.067239,0.035572 0.026909,0.013629 0.040388,0.02015 0.067304,0.032571 0.026917,0.01242 0.040391,0.018336 0.067278,0.02953 0.026887,0.011195 0.040338,0.016495 0.067158,0.026443 0.02682,0.00995 0.040228,0.014623 0.066941,0.023298 0.026712,0.00868 0.040058,0.01271 0.066622,0.020079 0.026563,0.00737 0.039826,0.010747 0.066195,0.016761 0.026369,0.00601 0.039526,0.00871 0.06565,0.013312 0.026124,0.0046 0.039151,0.00659 0.064972,0.00967 0.025821,0.00308 0.038691,0.00433 0.064132,0.00574 0.025441,0.00141 0.037941,0.00197 0.063073,0.00132 q 0.025132,-6.516e-4 0.062585,-0.00458 0.040762,-0.023344 0.067545,-0.037107 c 0.026783,-0.013763 0.039914,-0.020013 0.066372,-0.031709 0.026458,-0.011696 0.039687,-0.017041 0.065919,-0.026769 0.026232,-0.00973 0.039325,-0.014094 0.065242,-0.021875 0.025917,-0.00778 0.038829,-0.011176 0.064343,-0.017028 0.025514,-0.00585 0.038202,-0.00829 0.063226,-0.012231 0.025024,-0.00394 0.037445,-0.00543 0.061892,-0.00749 0.024446,-0.00206 0.036559,-0.0026 0.060339,-0.00279 0.023781,-1.878e-4 0.03554,1.925e-4 0.058565,0.00185 0.023025,0.00166 0.034386,0.00296 0.05656,0.00645 0.022174,0.00349 0.033089,0.0057 0.054311,0.010992 0.021222,0.00529 0.031639,0.0084 0.051798,0.015482 0.020159,0.00708 0.030022,0.011076 0.048996,0.019904 0.018975,0.00883 0.02822,0.013701 0.045877,0.024238 0.017658,0.010537 0.026214,0.016262 0.042411,0.028447 0.016197,0.012185 0.023988,0.01873 0.038573,0.032479 0.014585,0.01375 0.021531,0.021067 0.034353,0.036269 0.012823,0.015202 0.018842,0.023228 0.029759,0.03974 q 0.010917,0.016512 0.024828,0.042819 a 1.95,1.95 0 0 1 0.111306,0.1927875 q 0.015827,0.0252 0.024668,0.042911 c 0.00884,0.017711 0.012782,0.026937 0.019536,0.045643 0.00675,0.018705 0.00962,0.028379 0.014233,0.047885 0.00461,0.019506 0.00639,0.029526 0.00884,0.049645 0.00245,0.02012 0.00313,0.030392 0.00343,0.050953 2.965e-4,0.020561 -1.061e-4,0.031003 -0.00195,0.05185 -0.00184,0.020847 -0.00331,0.031388 -0.00726,0.052384 -0.00395,0.020997 -0.00647,0.031573 -0.012491,0.052599 -0.00603,0.021026 -0.00957,0.031583 -0.017636,0.05253 -0.00807,0.020947 -0.012621,0.031436 -0.022696,0.052206 -0.010075,0.02077 -0.015625,0.031144 -0.027678,0.051645 -0.012053,0.020501 -0.018584,0.030716 -0.032587,0.050859 -0.014003,0.020143 -0.021502,0.030158 -0.037429,0.049857 -0.015927,0.019699 -0.024381,0.02947 -0.042205,0.04864 -0.017825,0.01917 -0.027221,0.028654 -0.046918,0.047209 -0.019697,0.018555 -0.030023,0.02771 -0.051565,0.045564 -0.021542,0.017853 -0.032785,0.026637 -0.056143,0.043703 -0.023358,0.017066 -0.035336,0.025312 -0.060647,0.041625 q -0.025311,0.016314 -0.065909,0.039942 -0.022128,0.030472 -0.035258,0.051911 c -0.01313,0.021439 -0.018896,0.032544 -0.030393,0.055283 -0.011497,0.022739 -0.016852,0.034508 -0.027092,0.058411 -0.01024,0.023903 -0.015028,0.03618 -0.02411,0.061103 -0.00908,0.024923 -0.013321,0.037667 -0.021297,0.06351 -0.00798,0.025844 -0.011681,0.039019 -0.018582,0.065707 -0.0069,0.026688 -0.010079,0.040264 -0.015922,0.067735 -0.00584,0.027471 -0.0085,0.041421 -0.013294,0.069621 -0.00479,0.028201 -0.00693,0.0425 -0.010679,0.071382 -0.00375,0.028882 -0.00536,0.043509 -0.00807,0.07303 -0.0027,0.029521 -0.00379,0.044455 -0.00545,0.074573 -0.00165,0.030118 -0.00222,0.04534 -0.00281,0.076016 -5.955e-4,0.030676 -6.324e-4,0.046168 -1.647e-4,0.077366 4.676e-4,0.031198 9.64e-4,0.04694 0.0025,0.078623 0.00154,0.031683 0.00257,0.047659 0.00519,0.079791 0.00262,0.032133 0.0042,0.048324 0.0079,0.080872 0.00371,0.032548 0.00583,0.048938 0.010638,0.081866 0.00481,0.032928 0.00748,0.0495 0.013397,0.082774 q 0.00591,0.033274 0.016178,0.083598 a 4,4 0 0 1 0.4070056,0.2349844 q 0.048713,-0.01627 0.080487,-0.02779 c 0.031774,-0.01151 0.047463,-0.01748 0.078383,-0.02979 0.03092,-0.0123 0.046176,-0.01866 0.076217,-0.03172 0.030041,-0.01306 0.044852,-0.01979 0.073989,-0.03359 0.029137,-0.013798 0.04349,-0.02089 0.071697,-0.035399 0.028208,-0.014509 0.042089,-0.02195 0.069341,-0.037144 0.027252,-0.015194 0.040649,-0.022971 0.066918,-0.038825 0.026269,-0.015854 0.039169,-0.023955 0.064426,-0.040444 0.025257,-0.016489 0.037645,-0.024902 0.061859,-0.042002 0.024215,-0.0171 0.036075,-0.025812 0.059213,-0.0435 0.023138,-0.017688 0.034454,-0.026687 0.05648,-0.044939 0.022025,-0.018253 0.032778,-0.027527 0.053647,-0.046323 0.020869,-0.018796 0.031037,-0.028336 0.050699,-0.047657 0.019662,-0.01932 0.02922,-0.029117 0.047613,-0.048946 0.018393,-0.019829 0.02731,-0.029873 0.044353,-0.050199 0.017043,-0.020326 0.025282,-0.030611 0.040862,-0.051431 0.01558,-0.02082 0.023095,-0.031342 0.037039,-0.052668 0.013944,-0.021326 0.020679,-0.031872 0.03268,-0.053962 q 0.012001,-0.02209 0.027327,-0.05649 1.642e-4,-0.046973 0.00164,-0.07705 c 0.00147,-0.030077 0.00263,-0.044573 0.00573,-0.073334 0.0031,-0.028761 0.00509,-0.04289 0.00978,-0.070473 0.00469,-0.027582 0.00746,-0.041103 0.013677,-0.067438 0.00622,-0.026335 0.00974,-0.039215 0.017425,-0.064236 0.00769,-0.025021 0.011924,-0.037228 0.021021,-0.060871 0.0091,-0.023643 0.01402,-0.035144 0.024463,-0.057343 0.010443,-0.022199 0.016024,-0.032963 0.027752,-0.053651 0.011728,-0.020689 0.017937,-0.030682 0.030887,-0.049792 0.01295,-0.01911 0.019756,-0.028299 0.033864,-0.045758 0.014108,-0.017459 0.021478,-0.025807 0.036675,-0.041538 0.015196,-0.015731 0.023098,-0.023198 0.039306,-0.037117 0.016209,-0.01392 0.024603,-0.020462 0.041736,-0.03248 0.017133,-0.012018 0.025975,-0.017588 0.04393,-0.027612 0.017954,-0.010023 0.02719,-0.014571 0.045841,-0.022506 0.018651,-0.00793 0.028214,-0.01141 0.047415,-0.017166 0.0192,-0.00576 0.02901,-0.00811 0.048586,-0.011616 0.019576,-0.0035 0.029537,-0.0047 0.049296,-0.0059 q 0.019758,-0.0012 0.049496,-9.18e-5 a 1.95,1.95 0 0 1 0.2226118,0 q 0.029738,-0.00111 0.049496,9.18e-5 c 0.019758,0.0012 0.029719,0.0024 0.049296,0.0059 0.019576,0.0035 0.029386,0.00586 0.048586,0.011616 0.0192,0.00576 0.028763,0.00923 0.047415,0.017166 0.018651,0.00793 0.027887,0.012482 0.045841,0.022506 0.017954,0.010023 0.026797,0.015593 0.04393,0.027612 0.017133,0.012018 0.025528,0.01856 0.041736,0.03248 0.016208,0.013919 0.02411,0.021386 0.039306,0.037117 0.015196,0.015731 0.022567,0.024079 0.036675,0.041538 0.014108,0.017459 0.020913,0.026648 0.033863,0.045758 0.01295,0.01911 0.019159,0.029104 0.030887,0.049792 0.011728,0.020689 0.017309,0.031452 0.027752,0.053651 0.010443,0.022199 0.015366,0.0337 0.024463,0.057343 0.0091,0.023643 0.013331,0.035849 0.021021,0.060871 0.00769,0.025021 0.011205,0.037902 0.017425,0.064236 0.00622,0.026335 0.00899,0.039856 0.013677,0.067438 0.00469,0.027582 0.00668,0.041711 0.00978,0.070473 0.0031,0.028761 0.00425,0.043257 0.00573,0.073334 q 0.00147,0.030077 0.00164,0.07705 0.015326,0.034399 0.027327,0.05649 c 0.012002,0.02209 0.018736,0.032636 0.03268,0.053962 0.013944,0.021326 0.021459,0.031848 0.037039,0.052668 0.01558,0.02082 0.023819,0.031105 0.040862,0.051431 0.017043,0.020326 0.02596,0.03037 0.044353,0.050199 0.018393,0.019829 0.027951,0.029625 0.047613,0.048946 0.019662,0.01932 0.02983,0.028861 0.050699,0.047657 0.020869,0.018796 0.031622,0.028071 0.053647,0.046323 0.022025,0.018252 0.033341,0.027251 0.05648,0.044939 0.023138,0.017688 0.034999,0.026399 0.059213,0.0435 0.024214,0.0171 0.036602,0.025513 0.061859,0.042002 0.025257,0.016489 0.038157,0.024591 0.064426,0.040444 0.026269,0.015854 0.039666,0.023632 0.066918,0.038825 0.027252,0.015194 0.041133,0.022635 0.069341,0.037144 0.028208,0.014509 0.04256,0.021601 0.071697,0.035399 0.02914,0.0138 0.04395,0.02053 0.07399,0.03359 0.03004,0.01306 0.0453,0.01942 0.07622,0.03172 0.03092,0.0123 0.04661,0.01827 0.07838,0.02979 q 0.03177,0.01151 0.08049,0.02779 a 4,4 0 0 1 0.407006,-0.2349844 q 0.01026,-0.050323 0.01618,-0.083598 c 0.0059,-0.033274 0.0086,-0.049846 0.0134,-0.082774 0.0048,-0.032928 0.0069,-0.049319 0.01064,-0.081866 0.0037,-0.032548 0.0053,-0.048739 0.0079,-0.080872 0.0026,-0.032133 0.0037,-0.048108 0.0052,-0.079791 0.0015,-0.031683 0.002,-0.047425 0.0025,-0.078623 4.68e-4,-0.031198 4.31e-4,-0.046689 -1.65e-4,-0.077366 -5.95e-4,-0.030676 -0.0012,-0.045899 -0.0028,-0.076016 -0.0017,-0.030118 -0.0027,-0.045052 -0.0054,-0.074573 -0.0027,-0.029521 -0.0043,-0.044147 -0.0081,-0.07303 -0.0037,-0.028882 -0.0059,-0.043182 -0.01068,-0.071382 -0.0048,-0.028201 -0.0075,-0.04215 -0.01329,-0.069621 -0.0058,-0.027471 -0.009,-0.041047 -0.01592,-0.067735 -0.0069,-0.026689 -0.01061,-0.039864 -0.01858,-0.065707 -0.008,-0.025844 -0.01222,-0.038588 -0.0213,-0.06351 -0.0091,-0.024923 -0.01387,-0.0372 -0.02411,-0.061103 -0.01024,-0.023903 -0.0156,-0.035672 -0.02709,-0.058411 -0.0115,-0.022739 -0.01726,-0.033844 -0.03039,-0.055283 q -0.01313,-0.021439 -0.03526,-0.051911 -0.0406,-0.023629 -0.06591,-0.039942 c -0.02531,-0.016314 -0.03729,-0.02456 -0.06065,-0.041625 -0.02336,-0.017066 -0.0346,-0.02585 -0.05614,-0.043703 -0.02154,-0.017853 -0.03187,-0.027009 -0.05156,-0.045564 -0.0197,-0.018554 -0.02909,-0.028039 -0.04692,-0.047209 -0.01782,-0.01917 -0.02628,-0.02894 -0.04221,-0.04864 -0.01593,-0.019699 -0.02343,-0.029713 -0.03743,-0.049857 -0.014,-0.020143 -0.02053,-0.030359 -0.03259,-0.050859 -0.01205,-0.020501 -0.0176,-0.030875 -0.02768,-0.051645 -0.01008,-0.02077 -0.01463,-0.031259 -0.0227,-0.052206 -0.0081,-0.020947 -0.01161,-0.031504 -0.01764,-0.05253 -0.006,-0.021026 -0.0085,-0.031602 -0.01249,-0.052599 -0.004,-0.020997 -0.0054,-0.031537 -0.0073,-0.052384 -0.0018,-0.020847 -0.0022,-0.03129 -0.0019,-0.05185 2.97e-4,-0.020561 9.76e-4,-0.030833 0.0034,-0.050953 0.0025,-0.02012 0.0042,-0.030139 0.0088,-0.049645 0.0046,-0.019506 0.0075,-0.029179 0.01423,-0.047885 0.0068,-0.018706 0.0107,-0.027932 0.01954,-0.045643 q 0.0088,-0.017711 0.02467,-0.042911 a 1.95,1.95 0 0 1 0.111306,-0.1927875"
       fill="#3282d2"
       id="path4" />
  </g>
</svg>
