<?xml version="1.0" encoding="UTF-8" standalone="no"?>
<svg
   xmlns:dc="http://purl.org/dc/elements/1.1/"
   xmlns:cc="http://creativecommons.org/ns#"
   xmlns:rdf="http://www.w3.org/1999/02/22-rdf-syntax-ns#"
   xmlns:svg="http://www.w3.org/2000/svg"
   xmlns="http://www.w3.org/2000/svg"
   version="1.1"
   width="14.601805mm"
   height="14.601813mm"
   id="svg8">
  <metadata
     id="metadata14">
    <rdf:RDF>
      <cc:Work
         rdf:about="">
        <dc:format>image/svg+xml</dc:format>
        <dc:type
           rdf:resource="http://purl.org/dc/dcmitype/StillImage" />
        <dc:title></dc:title>
      </cc:Work>
    </rdf:RDF>
  </metadata>
  <defs
     id="defs12" />
  <g
     transform="matrix(2.6728636,-2.6728636,2.6728636,2.6728636,-9.0695185,34.855986)"
     id="g6">
    <path
       d="m 8.5426518,4.3577348 q 0.0127,0.0321 0.022982,0.052659 c 0.010282,0.020559 0.016014,0.030661 0.028428,0.050137 0.012415,0.019475 0.019196,0.028989 0.033645,0.04724 0.014449,0.018251 0.022225,0.02711 0.038598,0.044014 0.016373,0.016904 0.025085,0.025052 0.043268,0.040504 0.018183,0.015452 0.027771,0.022843 0.047649,0.036757 0.019879,0.013914 0.030283,0.02051 0.051745,0.032814 0.021462,0.012304 0.032627,0.018073 0.055565,0.028707 0.022937,0.010633 0.034812,0.015549 0.059123,0.02446 0.024311,0.00891 0.036845,0.01295 0.062432,0.020091 0.025587,0.00714 0.038734,0.010284 0.065505,0.015613 0.026771,0.00533 0.040485,0.00755 0.06835,0.011032 0.027865,0.00348 0.042104,0.00477 0.070976,0.00635 0.028872,0.00159 0.043592,0.00192 0.073384,0.00158 0.029793,-3.397e-4 0.044951,-9.783e-4 0.075579,-0.00328 0.030627,-0.0023 0.046182,-0.00393 0.077558,-0.00823 0.031376,-0.0043 0.047284,-0.00694 0.079322,-0.013265 0.032038,-0.00633 0.048049,-0.00993 0.080867,-0.018379 q 0.032818,-0.00845 0.083221,-0.023848 0.040788,-0.00352 0.068007,-0.00375 c 0.027218,-2.337e-4 0.040702,6.722e-4 0.068085,0.00258 0.027383,0.00191 0.041183,0.00344 0.068831,0.00697 0.027648,0.00354 0.041552,0.00575 0.069407,0.010714 0.027855,0.00496 0.041847,0.00783 0.069869,0.01409 0.02802,0.00626 0.04208,0.00974 0.07024,0.017227 0.02815,0.00748 0.04227,0.011549 0.07053,0.020196 0.02826,0.00865 0.04242,0.013275 0.07075,0.023042 0.02833,0.00977 0.04253,0.01494 0.07091,0.025791 0.02838,0.010851 0.0426,0.016556 0.071,0.028463 0.02841,0.011907 0.04263,0.018133 0.07104,0.031074 0.02841,0.012942 0.04263,0.019677 0.07102,0.033634 0.02839,0.013957 0.04259,0.021194 0.07095,0.03615 0.02835,0.014956 0.04253,0.022688 0.07082,0.038629 0.02829,0.015941 0.04243,0.024161 0.07064,0.041075 0.02821,0.016913 0.0423,0.025617 0.07041,0.043493 0.02811,0.017875 0.04214,0.027057 0.07013,0.045884 0.02798,0.018827 0.04195,0.028482 0.06979,0.048252 q 0.02784,0.01977 0.06941,0.050599 a 5.5,5.5 0 0 1 0,0.5663798 q -0.04157,0.030828 -0.06941,0.050599 c -0.02784,0.01977 -0.04181,0.029425 -0.06979,0.048252 -0.02798,0.018827 -0.04202,0.028009 -0.07013,0.045884 -0.02811,0.017875 -0.0422,0.026579 -0.07041,0.043493 -0.02821,0.016914 -0.04235,0.025134 -0.07064,0.041075 -0.02829,0.015941 -0.04247,0.023673 -0.07082,0.038629 -0.02836,0.014956 -0.04256,0.022193 -0.07095,0.03615 -0.0284,0.013957 -0.04261,0.020692 -0.07102,0.033634 -0.02841,0.012942 -0.04263,0.019167 -0.07104,0.031074 -0.02841,0.011908 -0.04262,0.017613 -0.071,0.028463 -0.02838,0.010851 -0.04258,0.016024 -0.07091,0.025791 -0.02833,0.00977 -0.0425,0.014394 -0.07075,0.023042 -0.02826,0.00865 -0.04238,0.012712 -0.07053,0.020196 -0.02815,0.00748 -0.04222,0.010964 -0.07024,0.017227 -0.028021,0.00626 -0.042013,0.00913 -0.069869,0.01409 -0.027855,0.00496 -0.04176,0.00718 -0.069407,0.010714 -0.027648,0.00354 -0.041448,0.00506 -0.068831,0.00697 -0.027383,0.00191 -0.040867,0.00282 -0.068085,0.00258 q -0.027218,-2.338e-4 -0.068007,-0.00375 -0.050403,-0.015402 -0.083221,-0.023848 c -0.032818,-0.00845 -0.048829,-0.01205 -0.080867,-0.018379 -0.032038,-0.00633 -0.047946,-0.00897 -0.079322,-0.013265 -0.031376,-0.0043 -0.046931,-0.00593 -0.077558,-0.00823 -0.030627,-0.0023 -0.045786,-0.00294 -0.075579,-0.00328 -0.029793,-3.397e-4 -0.044512,-5.2e-6 -0.073384,0.00158 -0.028872,0.00159 -0.04311,0.00288 -0.070976,0.00635 -0.027865,0.00348 -0.041579,0.0057 -0.06835,0.011032 -0.026771,0.00533 -0.039917,0.00847 -0.065505,0.015613 -0.025587,0.00714 -0.038121,0.011181 -0.062432,0.020091 -0.024311,0.00891 -0.036185,0.013826 -0.059123,0.02446 -0.022938,0.010633 -0.034103,0.016402 -0.055565,0.028707 -0.021462,0.012304 -0.031866,0.0189 -0.051745,0.032814 -0.019879,0.013914 -0.029466,0.021305 -0.047649,0.036757 -0.018184,0.015452 -0.026895,0.0236 -0.043268,0.040504 -0.016373,0.016903 -0.02415,0.025763 -0.038598,0.044014 -0.014449,0.018251 -0.02123,0.027765 -0.033645,0.04724 -0.012415,0.019475 -0.018146,0.029578 -0.028428,0.050137 q -0.010282,0.020559 -0.022982,0.052659 a 3.25,3.25 0 0 1 0.022389,-0.061512 q -0.010905,0.032753 -0.016244,0.055112 c -0.00534,0.022358 -0.00744,0.033781 -0.01045,0.056681 -0.00301,0.022899 -0.00393,0.034546 -0.00459,0.057815 -6.631e-4,0.023268 -4.008e-4,0.035053 0.00128,0.058527 0.00168,0.023473 0.00311,0.035315 0.00711,0.05884 0.004,0.023525 0.00659,0.035349 0.012874,0.058786 0.00628,0.023437 0.010015,0.035177 0.018546,0.058398 0.00853,0.023221 0.013377,0.034817 0.024113,0.057707 0.010736,0.022889 0.016672,0.034288 0.029568,0.056741 0.012896,0.022452 0.0199,0.033604 0.034911,0.055521 0.015011,0.021917 0.023062,0.032775 0.040144,0.054066 0.017083,0.02129 0.026158,0.03181 0.045268,0.052385 0.019111,0.020575 0.029189,0.030715 0.050286,0.050489 0.021097,0.019774 0.032158,0.029492 0.055199,0.048382 0.023041,0.01889 0.035064,0.028145 0.060005,0.046068 0.024942,0.017923 0.037905,0.026674 0.064704,0.043549 0.026799,0.016875 0.04068,0.025081 0.06929,0.040826 0.02861,0.015745 0.043193,0.023276 0.073761,0.037901 q 0.030568,0.014625 0.07908,0.035225 0.033507,0.023523 0.054508,0.040839 c 0.021001,0.017317 0.030748,0.026678 0.050496,0.045743 0.019748,0.019066 0.02934,0.029104 0.048246,0.049585 0.018906,0.020481 0.028133,0.031117 0.046282,0.052822 0.018149,0.021705 0.027026,0.032894 0.044466,0.055704 0.01744,0.02281 0.025976,0.034514 0.042732,0.058345 0.016756,0.02383 0.02496,0.03602 0.041047,0.060807 0.016087,0.024787 0.023962,0.037436 0.039388,0.063129 0.015426,0.025693 0.022973,0.038779 0.037741,0.065336 0.014767,0.026556 0.021988,0.040062 0.036097,0.067445 0.014109,0.027383 0.021,0.041292 0.034447,0.069469 0.013447,0.028177 0.020008,0.042475 0.032788,0.071418 0.012781,0.028943 0.019007,0.043616 0.031115,0.073299 0.012108,0.029683 0.017997,0.044718 0.029424,0.075116 0.011428,0.030398 0.016975,0.045784 0.027714,0.076874 0.010739,0.03109 0.01594,0.046816 0.025982,0.078577 0.010042,0.031761 0.014892,0.047816 0.024228,0.080227 0.00934,0.03241 0.01383,0.048786 0.022449,0.081826 q 0.00862,0.03304 0.020646,0.083375 a 5.5,5.5 0 0 1 -0.364062,0.4338721 q -0.051659,-0.0031 -0.085694,-0.00585 c -0.034035,-0.00275 -0.050942,-0.00433 -0.084481,-0.0079 -0.033539,-0.00357 -0.050193,-0.00555 -0.083215,-0.00993 -0.033022,-0.00437 -0.049412,-0.00677 -0.081895,-0.011943 -0.032483,-0.00518 -0.048598,-0.00797 -0.080519,-0.013944 -0.031921,-0.00598 -0.04775,-0.00916 -0.079084,-0.015933 -0.031334,-0.00677 -0.046865,-0.010354 -0.077588,-0.017914 -0.030723,-0.00756 -0.045942,-0.011539 -0.076027,-0.019888 -0.030085,-0.00835 -0.044979,-0.012721 -0.074396,-0.021861 -0.029417,-0.00914 -0.043971,-0.013905 -0.072688,-0.023837 -0.028717,-0.00993 -0.042916,-0.015092 -0.070897,-0.025822 -0.027981,-0.01073 -0.041805,-0.016289 -0.069009,-0.027827 -0.027204,-0.011538 -0.040633,-0.017501 -0.067011,-0.029864 -0.026378,-0.012363 -0.039387,-0.018738 -0.064879,-0.031951 -0.025491,-0.013214 -0.038052,-0.020012 -0.062579,-0.034117 -0.024527,-0.014105 -0.036603,-0.021345 -0.060056,-0.036407 -0.023453,-0.015062 -0.035004,-0.022765 -0.05721,-0.038902 -0.022205,-0.016138 -0.033117,-0.024111 -0.053817,-0.041785 q -0.0207,-0.017675 -0.049684,-0.046588 -0.028711,-0.044198 -0.048422,-0.071762 C 8.1067643,8.6859878 8.096816,8.6729343 8.0763417,8.6474928 8.0558674,8.6220513 8.045376,8.6098057 8.0241039,8.5863443 8.0028318,8.562883 7.9919633,8.5516364 7.9699811,8.5301858 7.947999,8.5087353 7.9367972,8.4985024 7.9141931,8.4790918 7.891589,8.4596813 7.880098,8.4504758 7.8569606,8.4331331 c -0.023137,-0.017343 -0.034873,-0.025507 -0.058454,-0.040755 -0.023581,-0.015248 -0.035517,-0.022358 -0.05945,-0.035484 -0.023933,-0.013126 -0.036024,-0.019169 -0.060215,-0.030146 -0.024191,-0.010977 -0.036389,-0.015939 -0.06074,-0.02474 -0.024351,-0.0088 -0.036607,-0.012668 -0.061013,-0.019266 -0.024406,-0.0066 -0.036668,-0.00936 -0.061017,-0.013726 -0.02435,-0.00437 -0.036559,-0.00601 -0.060731,-0.00812 -0.024172,-0.00212 -0.036267,-0.00262 -0.060129,-0.00247 -0.023862,1.49e-4 -0.035773,7.912e-4 -0.059181,0.00322 -0.023408,0.00242 -0.03506,0.00421 -0.057859,0.00891 -0.0228,0.00469 -0.03411,0.00762 -0.056139,0.014562 -0.022029,0.00694 -0.032913,0.010993 -0.054005,0.020134 q -0.021092,0.00914 -0.051454,0.025567 a 3.25,3.25 0 0 1 0.05669,-0.03273 q -0.029407,0.018081 -0.047868,0.031777 c -0.018461,0.013696 -0.027415,0.021095 -0.044439,0.036703 -0.017024,0.015608 -0.025216,0.023939 -0.04068,0.041337 -0.015465,0.017398 -0.022839,0.026595 -0.036642,0.045655 -0.013803,0.01906 -0.020315,0.029054 -0.032375,0.049644 -0.01206,0.020591 -0.017674,0.031315 -0.027925,0.053308 -0.010251,0.021993 -0.01494,0.033384 -0.02333,0.056657 -0.00839,0.023272 -0.012133,0.03527 -0.018622,0.059706 -0.00649,0.024436 -0.00927,0.036983 -0.013821,0.062472 -0.00455,0.025489 -0.00636,0.038534 -0.00894,0.064972 -0.00259,0.026439 -0.0034,0.039931 -0.004,0.067221 -5.992e-4,0.02729 -4.097e-4,0.041182 0.001,0.069228 0.00141,0.028046 0.00262,0.042292 0.00607,0.071001 0.00345,0.028709 0.00568,0.043263 0.011185,0.072544 0.00551,0.029281 0.00877,0.044099 0.016355,0.073861 0.00759,0.029762 0.011891,0.044798 0.021573,0.074951 0.00968,0.030153 0.015041,0.045362 0.026837,0.075813 0.011796,0.030452 0.018126,0.045594 0.032142,0.076447 q 0.014016,0.030852 0.037937,0.077816 0.010548,0.039558 0.015504,0.066322 c 0.00496,0.026764 0.00641,0.0402 0.00928,0.067499 0.00287,0.027299 0.00377,0.041154 0.00509,0.068996 0.00132,0.027842 0.00155,0.04192 0.0015,0.070213 -4.84e-5,0.028293 -4.407e-4,0.04257 -0.00174,0.071253 -0.0013,0.028683 -0.00229,0.043137 -0.00477,0.072162 -0.00248,0.029025 -0.00403,0.043636 -0.00764,0.072965 -0.00361,0.029328 -0.00571,0.04408 -0.010406,0.073678 -0.0047,0.0296 -0.00733,0.04447 -0.013086,0.07431 -0.00576,0.02984 -0.00891,0.04482 -0.015701,0.07487 -0.00679,0.03005 -0.010455,0.04513 -0.018266,0.07536 -0.00781,0.03023 -0.011976,0.0454 -0.02079,0.07579 -0.00881,0.03039 -0.013475,0.04563 -0.02328,0.07615 -0.0098,0.03052 -0.014958,0.04582 -0.025743,0.07645 -0.010785,0.03063 -0.016426,0.04598 -0.028184,0.0767 -0.011758,0.03072 -0.017882,0.04611 -0.030605,0.07689 -0.012723,0.03078 -0.019328,0.0462 -0.03301,0.07703 -0.013682,0.03083 -0.020764,0.04626 -0.0354,0.07711 q -0.014635,0.03085 -0.037777,0.07714 A 5.5,5.5 0 0 1 6.1749213,10.95844 Q 6.1373433,10.92286 6.1130393,10.89887 C 6.0887353,10.87489 6.0768013,10.86281 6.0534003,10.83852 6.0299993,10.81423 6.0185203,10.802 5.9960353,10.77743 5.9735503,10.75285 5.9625323,10.74049 5.9409763,10.71564 5.9194213,10.6908 5.9088693,10.6783 5.8882583,10.6532 5.8676463,10.6281 5.8575703,10.61549 5.8379183,10.59016 5.8182663,10.56483 5.8086723,10.55211 5.7899973,10.52657 5.7713223,10.50103 5.7622203,10.4882 5.7445413,10.46246 5.7268623,10.43673 5.7182623,10.4238 5.7016033,10.39789 5.6849433,10.37198 5.6768573,10.35897 5.6612423,10.33291 5.6456283,10.30684 5.6380683,10.29376 5.6235303,10.26756 5.6089923,10.24135 5.6019763,10.22821 5.5885533,10.20188 5.5751303,10.17556 5.5686763,10.16236 5.5564163,10.13593 5.5441563,10.1095 5.5382883,10.09626 5.5272543,10.06975 5.5162203,10.04324 5.5109683,10.02996 5.5012463,10.00339 5.4915263,9.976819 5.4869273,9.96351 5.4786423,9.936897 5.4703623,9.910284 5.4664603,9.896958 5.4598233,9.870322 5.4531833,9.843687 5.4499533,9.830565 5.4454563,9.80372 q -0.0045,-0.026846 -0.00811,-0.067625 0.00642,-0.052312 0.00903,-0.086098 c 0.00262,-0.033786 0.00339,-0.05018 0.00406,-0.08283 6.692e-4,-0.03265 5.037e-4,-0.048774 -7.11e-4,-0.08042 -0.00121,-0.031646 -0.00231,-0.047247 -0.00536,-0.077809 -0.00305,-0.030562 -0.00505,-0.045601 -0.00989,-0.075 C 5.4296353,9.304539 5.4267553,9.290101 5.4201743,9.261943 5.4135943,9.233785 5.4098553,9.219987 5.4015923,9.193149 5.3933323,9.166311 5.3887563,9.153192 5.3788593,9.127753 5.3689593,9.102314 5.3635843,9.089913 5.3521093,9.065954 5.3406343,9.041995 5.3344783,9.030354 5.3214823,9.007959 5.3084863,8.985565 5.3015823,8.974724 5.2871273,8.953982 5.2726723,8.933239 5.2650523,8.923245 5.2492083,8.904246 5.2333643,8.885247 5.2250623,8.876146 5.2079073,8.858985 5.1907523,8.841824 5.1818093,8.833666 5.1634343,8.818442 5.1450593,8.803218 5.1355223,8.796054 5.1160323,8.782864 5.0965423,8.769675 5.0864673,8.763555 5.0659853,8.752495 5.0455033,8.741435 5.0349553,8.736408 5.0136203,8.727564 4.9922853,8.718724 4.9813413,8.714829 4.9593083,8.708274 q -0.022032,-0.00656 -0.05585,-0.013488 a 3.25,3.25 0 0 1 0.064466,0.011367 q -0.034149,-0.00505 -0.057095,-0.00643 c -0.022946,-0.00138 -0.03456,-0.00146 -0.057634,-4.486e-4 -0.023074,0.00101 -0.034704,0.00213 -0.057734,0.00552 -0.02303,0.00339 -0.034591,0.00569 -0.057416,0.01142 -0.022826,0.00573 -0.034238,0.0092 -0.056712,0.017219 -0.022474,0.00802 -0.033668,0.012628 -0.055658,0.022887 -0.02199,0.010259 -0.032903,0.015971 -0.05429,0.028405 -0.021387,0.012434 -0.031966,0.01922 -0.052643,0.033767 -0.020677,0.014548 -0.030872,0.022373 -0.050744,0.038972 -0.019872,0.016599 -0.029638,0.025433 -0.048615,0.044022 -0.018978,0.018589 -0.028273,0.028403 -0.046273,0.048922 -0.018,0.02052 -0.026785,0.031284 -0.043729,0.053677 -0.016944,0.022393 -0.02518,0.034079 -0.04099,0.05829 -0.01581,0.02421 -0.02346,0.036791 -0.038062,0.062762 -0.014602,0.025971 -0.021628,0.039418 -0.034948,0.067093 -0.01332,0.027675 -0.019686,0.041961 -0.031651,0.071283 -0.011965,0.029322 -0.017635,0.044417 -0.028174,0.075327 -0.010538,0.03091 -0.015422,0.046579 -0.024517,0.079222 q -0.00909,0.032644 -0.020958,0.083995 -0.017347,0.037083 -0.030754,0.060772 c -0.013407,0.023689 -0.020933,0.034913 -0.03628,0.057672 -0.015347,0.022759 -0.023567,0.033948 -0.040454,0.056123 -0.016887,0.022175 -0.025759,0.033109 -0.043982,0.054752 -0.018224,0.021643 -0.027701,0.032328 -0.047136,0.053463 -0.019435,0.021135 -0.029479,0.031575 -0.050038,0.052214 -0.020559,0.020639 -0.031138,0.030835 -0.052755,0.050982 -0.021617,0.020147 -0.032706,0.030098 -0.05533,0.049751 -0.022624,0.019653 -0.034201,0.029358 -0.057789,0.048513 -0.023588,0.019155 -0.035635,0.028611 -0.060152,0.04726 -0.024517,0.01865 -0.037018,0.02785 -0.062432,0.04599 -0.025414,0.01814 -0.038355,0.02708 -0.06464,0.04469 -0.026284,0.01761 -0.039653,0.02629 -0.066782,0.04337 -0.027129,0.01708 -0.040913,0.02549 -0.068865,0.04202 -0.027952,0.01653 -0.042141,0.02467 -0.070894,0.04064 -0.028753,0.01598 -0.043337,0.02383 -0.072872,0.03923 -0.029535,0.01541 -0.044504,0.02297 -0.074801,0.03779 -0.030297,0.01482 -0.045643,0.02209 -0.076684,0.03632 q -0.031042,0.01422 -0.078524,0.03481 A 5.5,5.5 0 0 1 2.508418,10.115229 q -0.00591,-0.05141 -0.00912,-0.08541 C 2.496098,9.995824 2.494718,9.9789 2.492408,9.945251 2.490098,9.911602 2.489158,9.894856 2.487738,9.861576 2.486308,9.828296 2.485818,9.81174 2.485278,9.778851 2.484736,9.745963 2.4846863,9.729607 2.4850279,9.697134 c 3.417e-4,-0.032473 7.331e-4,-0.048616 0.00196,-0.080649 0.00123,-0.032034 0.00206,-0.047951 0.00417,-0.07952 0.00211,-0.031569 0.00339,-0.047248 0.00638,-0.078325 0.003,-0.031077 0.00472,-0.046505 0.00861,-0.077062 0.00389,-0.030557 0.00606,-0.045718 0.010852,-0.075723 0.00479,-0.030005 0.00741,-0.044884 0.013119,-0.074303 0.00571,-0.029419 0.00878,-0.043999 0.015421,-0.072793 0.00664,-0.028794 0.010179,-0.043055 0.017774,-0.071179 0.00759,-0.028124 0.011613,-0.042043 0.0202,-0.069441 0.00859,-0.027399 0.013101,-0.040949 0.022732,-0.067552 0.00963,-0.026604 0.014665,-0.039753 0.025425,-0.065466 0.01076,-0.025712 0.016341,-0.038426 0.028377,-0.063096 0.012036,-0.02467 0.017994,-0.0368 0.031805,-0.060255 q 0.013812,-0.023455 0.037253,-0.057019 0.038541,-0.035949 0.062263,-0.060148 c 0.023723,-0.024198 0.03485,-0.036262 0.05635,-0.060843 0.0215,-0.024581 0.031737,-0.037039 0.051149,-0.062062 0.019411,-0.025023 0.028599,-0.037679 0.045907,-0.063052 0.017307,-0.025373 0.02544,-0.038182 0.04063,-0.063813 0.015191,-0.025631 0.022261,-0.038546 0.035322,-0.064344 0.013062,-0.025797 0.019064,-0.038773 0.029985,-0.064643 0.010921,-0.02587 0.015851,-0.03886 0.024621,-0.064709 0.00877,-0.025849 0.012622,-0.038805 0.019232,-0.064535 0.00661,-0.02573 0.00938,-0.038604 0.013817,-0.064113 0.00444,-0.025509 0.00612,-0.038251 0.00838,-0.063432 0.00226,-0.025181 0.00285,-0.037735 0.00292,-0.062474 C 3.1197573,7.921844 3.1192473,7.909536 3.1171319,7.885364 3.1150219,7.861191 3.1134119,7.849193 3.1091219,7.82572 3.1048319,7.802247 3.1021319,7.790628 3.0956789,7.767997 3.0892289,7.745366 3.0854429,7.734201 3.0768609,7.712563 3.0682809,7.690925 3.0634309,7.680294 3.0527719,7.659805 3.0421129,7.639316 3.0362299,7.629301 3.0235669,7.610117 Q 3.010893,7.5909294 2.9894434,7.5638812 a 3.25,3.25 0 0 1 0.042077,0.050145 Q 3.0086077,7.5882058 2.991914,7.5724031 C 2.9752204,7.5566004 2.9663792,7.5490679 2.9480522,7.535013 2.9297252,7.5209582 2.9200984,7.5143374 2.900279,7.502129 2.8804596,7.4899206 2.8701223,7.4842552 2.848955,7.4739711 2.827788,7.4636871 2.816815,7.4590101 2.794443,7.4507081 2.772071,7.4424081 2.760535,7.4387411 2.737095,7.4324641 2.713656,7.4261841 2.701624,7.4235441 2.677248,7.4193271 c -0.024376,-0.00422 -0.036841,-0.00582 -0.062032,-0.00797 -0.025191,-0.00215 -0.038031,-0.00271 -0.063923,-0.00276 -0.025892,-5.8e-5 -0.039052,4.323e-4 -0.065539,0.00247 -0.026487,0.00204 -0.039915,0.00358 -0.066894,0.00773 -0.026979,0.00415 -0.040627,0.00675 -0.068001,0.013011 -0.027374,0.00626 -0.041195,0.00992 -0.068868,0.018305 -0.027674,0.00838 -0.04162,0.013103 -0.0695,0.023612 -0.02788,0.010509 -0.041906,0.016293 -0.069899,0.028932 -0.027993,0.012639 -0.042053,0.01949 -0.070066,0.034261 -0.028014,0.014771 -0.04206,0.02269 -0.070002,0.039594 -0.027941,0.016905 -0.041754,0.025768 -0.069704,0.044929 q -0.02795,0.01916 -0.070046,0.050873 -0.037125,0.017257 -0.062622,0.026785 c -0.025497,0.00953 -0.038477,0.013289 -0.064863,0.020859 -0.026386,0.00757 -0.039875,0.010857 -0.067065,0.016989 -0.02719,0.00613 -0.041014,0.00881 -0.068886,0.013671 -0.027872,0.00487 -0.042,0.00696 -0.070474,0.010656 -0.028474,0.0037 -0.042878,0.00524 -0.071894,0.00783 -0.029015,0.0026 -0.043674,0.00361 -0.073183,0.00514 -0.02951,0.00154 -0.044401,0.00203 -0.074365,0.00255 -0.029964,5.126e-4 -0.045071,5.058e-4 -0.075453,1.68e-5 -0.030382,-4.89e-4 -0.045689,-9.89e-4 -0.076457,-0.00246 -0.030769,-0.00147 -0.04626,-0.00246 -0.077386,-0.0049 -0.031126,-0.00244 -0.046788,-0.00391 -0.078244,-0.00731 -0.0314559,-0.0034 -0.0472758,-0.00535 -0.0790358,-0.0097 -0.03176,-0.00436 -0.0477251,-0.00677 -0.0797644,-0.012076 -0.0320393,-0.0053 -0.0481375,-0.00819 -0.080432,-0.014436 C 0.7303552,7.7196889 0.7141356,7.7163289 0.6816089,7.7091419 0.6490823,7.7019619 0.6327526,7.6981309 0.6000165,7.6900099 0.5672805,7.6818899 0.5508519,7.6775939 0.5179288,7.6685379 Q 0.48500744,7.6594793 0.4354027,7.6447271 A 5.5,5.5 0 0 1 0.24168939,7.1125041 q 0.0285169,-0.043186 0.0479164,-0.071286 c 0.0193995,-0.0281 0.0292238,-0.04195 0.0490812,-0.069213 0.0198574,-0.027263 0.0299065,-0.040692 0.0502057,-0.067102 0.0202992,-0.026411 0.0305651,-0.03941 0.0512902,-0.064952 0.0207251,-0.025542 0.0311999,-0.038103 0.0523351,-0.06276 0.0211352,-0.024656 0.031811,-0.03677 0.0533408,-0.060522 0.0215297,-0.023752 0.0323989,-0.03541 0.0543079,-0.058236 0.021909,-0.022827 0.0329638,-0.034018 0.0552373,-0.055897 0.0222734,-0.021879 0.0335065,-0.032592 0.0561299,-0.053498 0.0226234,-0.020906 0.0340276,-0.031128 0.0569872,-0.051032 0.0229596,-0.019904 0.034528,-0.02962 0.0578109,-0.048487 0.0232829,-0.018867 0.0350092,-0.02806 0.0586035,-0.04585 0.0235944,-0.01779 0.0354726,-0.026439 0.0593683,-0.043101 0.0238957,-0.016662 0.0359208,-0.024741 0.06011,-0.040211 0.024189,-0.015469 0.036357,-0.022948 0.060836,-0.037136 0.024479,-0.014189 0.036787,-0.021027 0.061557,-0.033807 0.024771,-0.01278 0.037217,-0.018932 0.062295,-0.030094 0.025078,-0.011162 0.037439,-0.016625 0.063096,-0.025714 q 0.025657,-0.00909 0.065188,-0.019734 0.052632,-0.00277 0.086359,-0.00605 c 0.033727,-0.00329 0.050006,-0.00538 0.082276,-0.010387 0.03227,-0.00501 0.048121,-0.00797 0.079075,-0.014665 0.030954,-0.00669 0.046128,-0.010481 0.075696,-0.018792 0.029568,-0.00831 0.044031,-0.012896 0.072143,-0.022767 0.028112,-0.00987 0.04183,-0.015219 0.068418,-0.026585 0.026588,-0.011366 0.039527,-0.017448 0.064522,-0.030246 0.024995,-0.012798 0.037121,-0.01958 0.060455,-0.033743 0.023334,-0.014164 0.034613,-0.021613 0.056215,-0.037075 0.021602,-0.015462 0.031998,-0.023545 0.051795,-0.040233 0.019797,-0.016688 0.029274,-0.025369 0.047192,-0.043206 0.017918,-0.017837 0.026436,-0.027077 0.042396,-0.04598 0.015959,-0.018902 0.02348,-0.028659 0.037401,-0.048533 0.013921,-0.019874 0.020402,-0.030098 0.032204,-0.050838 0.011802,-0.02074 0.017201,-0.031376 0.026806,-0.05286 0.0096,-0.021484 0.013882,-0.032469 0.021217,-0.05456 0.00734,-0.022092 0.010454,-0.033352 0.015459,-0.055899 0.00501,-0.022547 0.00694,-0.034 0.00957,-0.056836 q 0.00263,-0.022836 0.00359,-0.057344 a 3.25,3.25 0 0 1 0,0.06546 q -9.549e-4,-0.034508 -0.00359,-0.057344 c -0.00263,-0.022836 -0.00456,-0.034289 -0.00957,-0.056836 -0.00501,-0.022547 -0.00812,-0.033807 -0.015459,-0.055899 -0.00734,-0.022092 -0.011612,-0.033076 -0.021217,-0.05456 -0.0096,-0.021484 -0.015004,-0.032121 -0.026806,-0.05286 -0.011802,-0.020739 -0.018283,-0.030963 -0.032204,-0.050838 -0.013921,-0.019874 -0.021442,-0.02963 -0.037401,-0.048533 -0.015959,-0.018903 -0.024478,-0.028143 -0.042396,-0.04598 -0.017917,-0.017837 -0.027394,-0.026518 -0.047192,-0.043206 -0.019797,-0.016688 -0.030193,-0.024771 -0.051795,-0.040233 -0.021602,-0.015461 -0.032881,-0.022911 -0.056215,-0.037075 -0.023334,-0.014164 -0.03546,-0.020946 -0.060455,-0.033743 -0.024995,-0.012798 -0.037934,-0.018879 -0.064522,-0.030246 -0.026588,-0.011366 -0.040306,-0.016715 -0.068418,-0.026585 -0.028112,-0.00987 -0.042575,-0.014455 -0.072143,-0.022767 -0.029568,-0.00831 -0.044742,-0.012101 -0.075696,-0.018792 -0.030954,-0.00669 -0.046805,-0.00965 -0.079075,-0.014665 -0.03227,-0.00501 -0.048549,-0.0071 -0.082276,-0.010387 q -0.033727,-0.00329 -0.086359,-0.00605 -0.039532,-0.010644 -0.065188,-0.019734 c -0.025657,-0.00909 -0.038017,-0.014552 -0.063096,-0.025714 -0.025078,-0.011162 -0.037525,-0.017314 -0.062295,-0.030094 -0.024771,-0.01278 -0.037079,-0.019618 -0.061557,-0.033807 -0.024479,-0.014189 -0.036647,-0.021667 -0.060836,-0.037136 -0.0241891,-0.01547 -0.0362143,-0.023549 -0.06011,-0.040211 -0.0238957,-0.016662 -0.0357739,-0.025311 -0.0593683,-0.043101 -0.0235943,-0.01779 -0.0353206,-0.026983 -0.0586035,-0.04585 -0.0232829,-0.018868 -0.0348513,-0.028583 -0.0578109,-0.048487 -0.0229596,-0.019904 -0.0343638,-0.030126 -0.0569872,-0.051032 -0.0226234,-0.020906 -0.0338565,-0.031619 -0.0561299,-0.053498 -0.0222734,-0.021879 -0.0333282,-0.03307 -0.0552373,-0.055897 -0.021909,-0.022827 -0.0327782,-0.034485 -0.0543079,-0.058236 -0.0215297,-0.023752 -0.0322056,-0.035866 -0.0533408,-0.060522 -0.0211352,-0.024656 -0.03161,-0.037217 -0.0523351,-0.06276 -0.0207251,-0.025542 -0.030991,-0.038541 -0.0512902,-0.064952 -0.0202992,-0.026411 -0.0303483,-0.039839 -0.0502057,-0.067102 -0.0198574,-0.027263 -0.0296817,-0.041113 -0.0490812,-0.069213 q -0.0193995,-0.0281 -0.0479164,-0.071286 A 5.5,5.5 0 0 1 0.4354027,3.3552729 q 0.0496047,-0.014752 0.0825279,-0.023808 c 0.0329231,-0.00906 0.0493517,-0.013351 0.0820877,-0.021472 0.032736,-0.00812 0.0490657,-0.011948 0.0815924,-0.019132 0.0325267,-0.00718 0.0487463,-0.010543 0.0810409,-0.016787 0.0322946,-0.00624 0.0483928,-0.00913 0.080432,-0.014436 0.0320393,-0.0053 0.0480043,-0.00772 0.0797644,-0.012076 0.03176,-0.00436 0.0475798,-0.0063 0.0790358,-0.0097 0.031456,-0.0034 0.047118,-0.00487 0.078244,-0.00731 0.031126,-0.00244 0.046617,-0.00343 0.077386,-0.0049 0.030769,-0.00147 0.046075,-0.00197 0.076457,-0.00246 0.030382,-4.89e-4 0.045489,-4.958e-4 0.075453,1.68e-5 0.029964,5.127e-4 0.044855,0.00101 0.074365,0.00255 0.02951,0.00154 0.044168,0.00255 0.073183,0.00514 0.029016,0.0026 0.04342,0.00414 0.071894,0.00783 0.028474,0.0037 0.042602,0.00579 0.070474,0.010656 0.027872,0.00487 0.041696,0.00754 0.068886,0.013671 0.02719,0.00613 0.040679,0.00942 0.067065,0.016989 0.026386,0.00757 0.039366,0.01133 0.064863,0.020859 q 0.025497,0.00953 0.062622,0.026785 0.042096,0.031713 0.070046,0.050873 c 0.02795,0.01916 0.041763,0.028024 0.069704,0.044929 0.027941,0.016905 0.041988,0.024823 0.070002,0.039594 0.028014,0.014771 0.042073,0.021622 0.070066,0.034261 0.027993,0.012639 0.042019,0.018423 0.069899,0.028932 0.02788,0.010509 0.041826,0.015229 0.0695,0.023612 0.027674,0.00838 0.041494,0.012042 0.068868,0.018305 0.027374,0.00626 0.041022,0.00886 0.068001,0.013011 0.026979,0.00415 0.040408,0.00569 0.066894,0.00773 0.026487,0.00204 0.039646,0.00253 0.065539,0.00247 0.025892,-5.79e-5 0.038732,-6.165e-4 0.063923,-0.00276 0.025191,-0.00215 0.037656,-0.00375 0.062032,-0.00797 0.024376,-0.00422 0.036408,-0.00686 0.059847,-0.013137 0.023439,-0.00628 0.034976,-0.00994 0.057348,-0.018244 0.022372,-0.0083 0.033345,-0.012979 0.054512,-0.023263 0.021167,-0.010284 0.031505,-0.01595 0.051324,-0.028158 0.019819,-0.012208 0.029446,-0.018829 0.047773,-0.032884 0.018327,-0.014055 0.027168,-0.021587 0.043862,-0.03739 q 0.016694,-0.015803 0.039606,-0.041623 a 3.25,3.25 0 0 1 -0.042077,0.050145 q 0.02145,-0.027048 0.034113,-0.046232 c 0.012664,-0.019184 0.018547,-0.029199 0.029205,-0.049688 0.010659,-0.020489 0.015507,-0.031119 0.024089,-0.052758 0.00858,-0.021638 0.012366,-0.032802 0.018818,-0.055434 0.00645,-0.022632 0.00915,-0.03425 0.013443,-0.057723 0.00429,-0.023474 0.0059,-0.035472 0.00801,-0.059644 0.00211,-0.024173 0.00262,-0.036481 0.00255,-0.061219 -7.53e-5,-0.024739 -6.618e-4,-0.037293 -0.00292,-0.062474 -0.00226,-0.025181 -0.00394,-0.037923 -0.00838,-0.063432 -0.00444,-0.025509 -0.00721,-0.038384 -0.013817,-0.064113 -0.00661,-0.02573 -0.010461,-0.038686 -0.019232,-0.064535 -0.00877,-0.025849 -0.0137,-0.038838 -0.024621,-0.064709 -0.010921,-0.02587 -0.016924,-0.038846 -0.029985,-0.064643 -0.013061,-0.025797 -0.020132,-0.038712 -0.035322,-0.064344 -0.01519,-0.025631 -0.023323,-0.03844 -0.04063,-0.063813 -0.017308,-0.025373 -0.026496,-0.038029 -0.045907,-0.063052 -0.019411,-0.025023 -0.029649,-0.037481 -0.051149,-0.062063 -0.0215,-0.024581 -0.032627,-0.036645 -0.05635,-0.060843 q -0.023723,-0.024198 -0.062263,-0.060148 -0.023441,-0.033564 -0.037253,-0.057019 c -0.013812,-0.023455 -0.019769,-0.035585 -0.031805,-0.060255 -0.012037,-0.02467 -0.017617,-0.037384 -0.028377,-0.063096 -0.01076,-0.025712 -0.015794,-0.038862 -0.025425,-0.065466 -0.00963,-0.026604 -0.014146,-0.040154 -0.022732,-0.067553 -0.00859,-0.027399 -0.012605,-0.041317 -0.0202,-0.069441 -0.00759,-0.028124 -0.011135,-0.042384 -0.017774,-0.071179 -0.00664,-0.028794 -0.00971,-0.043374 -0.015421,-0.072793 -0.00571,-0.029419 -0.00832,-0.044298 -0.013119,-0.074303 -0.00479,-0.030005 -0.00696,-0.045166 -0.010852,-0.075723 -0.00389,-0.030557 -0.00561,-0.045984 -0.00861,-0.077062 -0.003,-0.031077 -0.00427,-0.046756 -0.00638,-0.078325 -0.00211,-0.031569 -0.00294,-0.047486 -0.00417,-0.07952 -0.00123,-0.032034 -0.00162,-0.048176 -0.00196,-0.08065 -3.416e-4,-0.032473 -2.919e-4,-0.048829 2.501e-4,-0.081717 5.42e-4,-0.032888 0.00103,-0.049445 0.00246,-0.082725 0.00143,-0.03328 0.00236,-0.050026 0.00467,-0.083675 0.00231,-0.033649 0.00369,-0.050574 0.00689,-0.0845691 q 0.0032,-0.0339955 0.00912,-0.0854083 A 5.5,5.5 0 0 1 2.9988974,0.60158335 q 0.047482,0.0205845 0.078524,0.0348098 c 0.031042,0.0142253 0.046387,0.0214953 0.076684,0.0363168 0.030297,0.0148215 0.045267,0.0223861 0.074801,0.0377907 0.029535,0.0154046 0.044119,0.0232574 0.072872,0.0392322 0.028753,0.0159748 0.042942,0.0241094 0.070894,0.0406419 0.027952,0.0165326 0.041736,0.0249426 0.068865,0.0420208 0.02713,0.0170782 0.040498,0.0257578 0.066782,0.0433702 0.026284,0.0176124 0.039225,0.0265559 0.06464,0.0446917 0.025414,0.0181358 0.037915,0.0273379 0.062432,0.0459873 0.024517,0.0186495 0.036564,0.0281053 0.060152,0.0472599 0.023588,0.019155 0.035165,0.02886 0.057789,0.048513 0.022624,0.019653 0.033713,0.029605 0.05533,0.049751 0.021617,0.020147 0.032197,0.030343 0.052755,0.050982 0.020559,0.020639 0.030603,0.031079 0.050038,0.052214 0.019435,0.021135 0.028912,0.03182 0.047136,0.053463 0.018224,0.021643 0.027095,0.032577 0.043982,0.054752 0.016887,0.022175 0.025107,0.033364 0.040454,0.056123 0.015347,0.022759 0.022873,0.033983 0.03628,0.057672 q 0.013407,0.023689 0.030754,0.060771 0.011863,0.051352 0.020958,0.083995 c 0.00909,0.032644 0.013979,0.048312 0.024517,0.079222 0.010538,0.03091 0.016209,0.046005 0.028174,0.075327 0.011965,0.029322 0.018332,0.043608 0.031651,0.071283 0.01332,0.027675 0.020346,0.041122 0.034948,0.067093 0.014602,0.025971 0.022252,0.038551 0.038062,0.062762 0.01581,0.02421 0.024046,0.035896 0.04099,0.05829 0.016944,0.022393 0.025728,0.033157 0.043729,0.053677 0.018,0.02052 0.027296,0.030334 0.046273,0.048922 0.018978,0.018589 0.028744,0.027423 0.048615,0.044022 0.019872,0.016599 0.030067,0.024424 0.050744,0.038972 0.020677,0.014548 0.031256,0.021333 0.052643,0.033767 0.021387,0.012435 0.0323,0.018147 0.05429,0.028405 0.02199,0.010258 0.033184,0.014866 0.055658,0.022887 0.022474,0.00802 0.033886,0.011492 0.056712,0.017219 0.022825,0.00573 0.034386,0.00803 0.057416,0.01142 0.02303,0.00339 0.03466,0.0045 0.057734,0.00552 0.023074,0.00101 0.034688,9.266e-4 0.057634,-4.486e-4 q 0.022946,-0.00138 0.057095,-0.00643 a 3.25,3.25 0 0 1 -0.064466,0.011367 q 0.033818,-0.00693 0.05585,-0.013488 c 0.022032,-0.00656 0.032976,-0.010446 0.054312,-0.01929 0.021335,-0.00884 0.031883,-0.013871 0.052365,-0.024931 0.020482,-0.01106 0.030557,-0.01718 0.050047,-0.030369 0.01949,-0.013189 0.029027,-0.020354 0.047402,-0.035578 0.018375,-0.015224 0.027318,-0.023382 0.044473,-0.040543 0.017155,-0.017161 0.025457,-0.026261 0.041301,-0.045261 0.015844,-0.018999 0.023464,-0.028993 0.037919,-0.049736 0.014455,-0.020743 0.021358,-0.031583 0.034355,-0.053977 0.012996,-0.022394 0.019152,-0.034036 0.030627,-0.057995 0.011475,-0.023959 0.016853,-0.03636 0.02675,-0.061798 0.0099,-0.025439 0.01447,-0.038558 0.022733,-0.065396 0.00826,-0.026838 0.012005,-0.040636 0.018582,-0.068794 0.00658,-0.028158 0.00946,-0.042596 0.014301,-0.071995 0.00484,-0.029399 0.00684,-0.044438 0.00989,-0.075 0.00305,-0.030562 0.00415,-0.046163 0.00536,-0.077809 0.00121,-0.031646 0.00138,-0.04777 7.11e-4,-0.08042 -6.693e-4,-0.03265 -0.00144,-0.049044 -0.00406,-0.08283 q -0.00262,-0.033786 -0.00903,-0.086098 0.00362,-0.040779 0.00811,-0.067625 c 0.0045,-0.026845 0.00773,-0.039967 0.014367,-0.066602 0.00664,-0.026635 0.010535,-0.039961 0.018819,-0.066574 0.00828,-0.026613 0.012881,-0.039922 0.022604,-0.0664925 0.00972,-0.0265705 0.014974,-0.0398523 0.026008,-0.0663602 0.011034,-0.0265079 0.016902,-0.0397533 0.029162,-0.0661793 0.01226,-0.026426 0.018714,-0.0396256 0.032137,-0.0659507 0.013423,-0.0263251 0.02044,-0.0394695 0.034977,-0.065675 0.014538,-0.0262055 0.022097,-0.0392853 0.037712,-0.0653524 0.015615,-0.0260671 0.023701,-0.039073 0.040361,-0.064983 0.01666,-0.02591 0.02526,-0.0388327 0.042938,-0.064567 0.017679,-0.0257343 0.02678,-0.0385645 0.045456,-0.0641045 0.018675,-0.02554 0.028269,-0.0382684 0.047921,-0.0635955 0.019652,-0.0253271 0.029729,-0.0379444 0.05034,-0.06304 0.020612,-0.0250956 0.031163,-0.0375925 0.052718,-0.0624381 0.021555,-0.0248456 0.032574,-0.0372128 0.055059,-0.0617898 0.022485,-0.024577 0.033964,-0.0368053 0.057365,-0.0610952 0.023401,-0.0242899 0.035334,-0.03637 0.059639,-0.0603542 q 0.024304,-0.02398427 0.061882,-0.05956714 a 5.5,5.5 0 0 1 0.5577753,0.09835083 q 0.023142,0.0462894 0.037777,0.0771398 c 0.014635,0.0308504 0.021718,0.0462836 0.0354,0.0771121 0.013682,0.0308285 0.020287,0.0462456 0.03301,0.0770306 0.012723,0.030785 0.018847,0.046175 0.030605,0.0768946 0.011758,0.0307196 0.017398,0.0460715 0.028184,0.0767033 0.010785,0.0306318 0.015939,0.0459344 0.025743,0.0764556 0.0098,0.0305211 0.014466,0.0457631 0.02328,0.0761502 0.00881,0.0303871 0.012979,0.0455565 0.02079,0.0757854 0.00781,0.0302289 0.011472,0.0453135 0.018266,0.075359 0.00679,0.0300454 0.00994,0.0450327 0.015701,0.0748682 0.00576,0.0298355 0.00839,0.044712 0.013086,0.0743093 0.0047,0.0295973 0.0068,0.0443488 0.010406,0.0736772 0.00361,0.029328 0.00516,0.04394 0.00764,0.072965 0.00248,0.029025 0.00347,0.043479 0.00477,0.072162 0.0013,0.028683 0.00169,0.04296 0.00174,0.071253 4.84e-5,0.028293 -1.837e-4,0.042372 -0.0015,0.070214 -0.00132,0.027842 -0.00221,0.041697 -0.00509,0.068996 -0.00287,0.027299 -0.00432,0.040735 -0.00928,0.067499 q -0.00496,0.026764 -0.015504,0.066322 -0.023921,0.046963 -0.037937,0.077816 c -0.014016,0.030852 -0.020346,0.045995 -0.032142,0.076447 -0.011796,0.030452 -0.017155,0.045661 -0.026837,0.075813 -0.00968,0.030153 -0.013988,0.045189 -0.021573,0.074951 -0.00759,0.029762 -0.010847,0.04458 -0.016355,0.073861 -0.00551,0.029281 -0.00773,0.043835 -0.011185,0.072544 -0.00345,0.028709 -0.00465,0.042955 -0.00607,0.071001 -0.00141,0.028046 -0.0016,0.041938 -0.001,0.069227 5.991e-4,0.02729 0.00141,0.040782 0.004,0.067221 0.00259,0.026439 0.00439,0.039484 0.00894,0.064972 0.00455,0.025489 0.00733,0.038037 0.013821,0.062472 0.00649,0.024435 0.010231,0.036433 0.018622,0.059706 0.00839,0.023272 0.013079,0.034664 0.02333,0.056657 0.010251,0.021993 0.015865,0.032718 0.027925,0.053308 0.01206,0.020591 0.018572,0.030585 0.032375,0.049644 0.013803,0.01906 0.021178,0.028256 0.036642,0.045655 0.015465,0.017398 0.023657,0.025729 0.04068,0.041337 0.017024,0.015608 0.025977,0.023007 0.044439,0.036703 q 0.018461,0.013696 0.047868,0.031777 a 3.25,3.25 0 0 1 -0.05669,-0.03273 q 0.030362,0.016427 0.051454,0.025567 c 0.021092,0.00914 0.031976,0.013194 0.054005,0.020134 0.022029,0.00694 0.033339,0.00987 0.056139,0.014562 0.0228,0.00469 0.034451,0.00648 0.057859,0.00891 0.023408,0.00242 0.035319,0.00307 0.059181,0.00322 0.023862,1.489e-4 0.035957,-3.518e-4 0.060129,-0.00247 0.024172,-0.00212 0.036382,-0.00375 0.060731,-0.00812 0.02435,-0.00437 0.036611,-0.00713 0.061017,-0.013726 0.024406,-0.0066 0.036663,-0.010465 0.061013,-0.019266 0.024351,-0.0088 0.036549,-0.013763 0.06074,-0.02474 0.024191,-0.010977 0.036282,-0.01702 0.060215,-0.030146 0.023933,-0.013126 0.035869,-0.020236 0.05945,-0.035484 0.023581,-0.015248 0.035317,-0.023412 0.058454,-0.040755 0.023137,-0.017343 0.034628,-0.026548 0.057233,-0.045959 0.022604,-0.019411 0.033806,-0.029644 0.055788,-0.051094 0.021982,-0.021451 0.032851,-0.032697 0.054123,-0.056158 0.021272,-0.023461 0.031764,-0.035707 0.052238,-0.061149 0.020474,-0.025441 0.030423,-0.038495 0.050134,-0.066059 q 0.019711,-0.027564 0.048422,-0.071762 0.028984,-0.028913 0.049684,-0.046588 c 0.0207,-0.017675 0.031612,-0.025648 0.053817,-0.041785 0.022205,-0.016138 0.033757,-0.023841 0.05721,-0.038902 0.023453,-0.015062 0.035529,-0.022302 0.060056,-0.036407 0.024527,-0.014105 0.037087,-0.020904 0.062579,-0.034117 0.025491,-0.013214 0.038501,-0.019588 0.064879,-0.031951 0.026378,-0.012363 0.039807,-0.018326 0.067011,-0.029864 0.027204,-0.011538 0.041028,-0.017097 0.069009,-0.027827 0.027981,-0.01073 0.04218,-0.01589 0.070897,-0.025822 0.028717,-0.00993 0.043271,-0.014697 0.072688,-0.023837 0.029417,-0.00914 0.044311,-0.013511 0.074396,-0.021861 0.030084,-0.00835 0.045304,-0.012328 0.076027,-0.019888 0.030723,-0.00756 0.046254,-0.011144 0.077588,-0.017914 0.031334,-0.00677 0.047164,-0.00996 0.079084,-0.015933 0.031921,-0.00598 0.048036,-0.00877 0.080519,-0.013944 0.032483,-0.00518 0.048873,-0.00757 0.081895,-0.011943 0.033022,-0.00437 0.049676,-0.00636 0.083215,-0.00993 0.033539,-0.00357 0.050446,-0.00515 0.084481,-0.0079 q 0.034035,-0.00275 0.085694,-0.00585 a 5.5,5.5 0 0 1 0.364062,0.4338721 q -0.012027,0.050335 -0.020646,0.083375 c -0.00862,0.03304 -0.013114,0.049415 -0.022449,0.081826 -0.00934,0.032411 -0.014186,0.048466 -0.024228,0.080227 -0.010042,0.031761 -0.015243,0.047487 -0.025982,0.078577 -0.010739,0.03109 -0.016286,0.046476 -0.027714,0.076874 -0.011427,0.030398 -0.017316,0.045433 -0.029424,0.075116 -0.012108,0.029683 -0.018334,0.044355 -0.031115,0.073299 -0.012781,0.028943 -0.019341,0.043241 -0.032788,0.071418 -0.013447,0.028177 -0.020339,0.042086 -0.034447,0.069469 -0.014109,0.027383 -0.021329,0.040889 -0.036097,0.067445 -0.014767,0.026556 -0.022315,0.039643 -0.037741,0.065335 -0.015426,0.025693 -0.023301,0.038342 -0.039388,0.063129 -0.016087,0.024787 -0.024291,0.036977 -0.041047,0.060807 -0.016756,0.02383 -0.025292,0.035535 -0.042732,0.058345 -0.01744,0.02281 -0.026316,0.033999 -0.044466,0.055704 -0.01815,0.021705 -0.027377,0.03234 -0.046282,0.052822 -0.018906,0.020481 -0.028497,0.030519 -0.048246,0.049585 -0.019748,0.019066 -0.029495,0.028427 -0.050496,0.045743 q -0.021001,0.017317 -0.054508,0.04084 -0.048512,0.0206 -0.07908,0.035225 c -0.030568,0.014625 -0.045151,0.022156 -0.073761,0.037901 -0.02861,0.015745 -0.042492,0.023951 -0.06929,0.040826 -0.026799,0.016875 -0.039762,0.025625 -0.064704,0.043549 -0.024942,0.017923 -0.036964,0.027178 -0.060005,0.046068 -0.023041,0.01889 -0.034102,0.028608 -0.055199,0.048382 -0.021097,0.019774 -0.031175,0.029914 -0.050286,0.050489 -0.019111,0.020575 -0.028186,0.031095 -0.045268,0.052385 -0.017082,0.02129 -0.025133,0.032148 -0.040144,0.054066 -0.015011,0.021917 -0.022016,0.033069 -0.034911,0.055521 -0.012896,0.022452 -0.018832,0.033851 -0.029568,0.056741 -0.010736,0.02289 -0.015581,0.034486 -0.024113,0.057707 -0.00853,0.023221 -0.012262,0.034961 -0.018546,0.058398 -0.00628,0.023437 -0.00888,0.035261 -0.012874,0.058786 -0.004,0.023525 -0.00543,0.035367 -0.00711,0.05884 -0.00168,0.023473 -0.00194,0.035258 -0.00128,0.058527 6.63e-4,0.023268 0.00158,0.034916 0.00459,0.057815 0.00301,0.022899 0.00511,0.034322 0.01045,0.056681 q 0.00534,0.022358 0.016244,0.055112 a 3.25,3.25 0 0 1 -0.022389,-0.061512"
       id="path2"
       style="fill:#d28232;fill-opacity:1" />
    <path
       d="m 12.114222,7.0092705 q -0.03214,-0.018059 -0.05456,-0.028043 c -0.02242,-0.00998 -0.03402,-0.014397 -0.05753,-0.021878 -0.0235,-0.00748 -0.0356,-0.010611 -0.05998,-0.015529 -0.02438,-0.00492 -0.03686,-0.00674 -0.06191,-0.00906 -0.02505,-0.00232 -0.03781,-0.00283 -0.06334,-0.00254 -0.02553,2.893e-4 -0.03847,0.00109 -0.06429,0.00399 -0.02582,0.00289 -0.03886,0.005 -0.0648,0.010487 -0.02594,0.00548 -0.039,0.00888 -0.0649,0.016931 -0.0259,0.00805 -0.0389,0.012724 -0.06462,0.023303 -0.02572,0.010579 -0.03858,0.016516 -0.06397,0.029593 -0.02539,0.013078 -0.03805,0.020256 -0.06299,0.035797 -0.02493,0.015541 -0.03733,0.023942 -0.06167,0.041908 -0.02434,0.017966 -0.03641,0.027571 -0.06005,0.047924 -0.02363,0.020353 -0.03531,0.031142 -0.05811,0.053839 -0.02279,0.022697 -0.03403,0.034649 -0.05586,0.059647 -0.02184,0.024998 -0.03256,0.038091 -0.05332,0.065342 -0.02076,0.027251 -0.03091,0.041461 -0.05047,0.070914 -0.01956,0.029454 -0.0289,0.044426 -0.04733,0.076354 q -0.01843,0.031928 -0.0448,0.083286 -0.03104,0.021719 -0.05263,0.034432 c -0.02159,0.012713 -0.03261,0.018103 -0.05532,0.029133 -0.02271,0.01103 -0.03443,0.016182 -0.05824,0.026019 -0.02381,0.00984 -0.03601,0.014441 -0.06079,0.023164 -0.02477,0.00872 -0.03743,0.012797 -0.06308,0.020453 -0.02565,0.00766 -0.03872,0.011211 -0.06518,0.017826 -0.02646,0.00661 -0.03991,0.00966 -0.06712,0.015248 -0.02721,0.00559 -0.04102,0.00813 -0.06894,0.012695 -0.02791,0.00457 -0.04206,0.0066 -0.07063,0.010153 -0.02857,0.00355 -0.04303,0.00508 -0.07222,0.00761 -0.02919,0.00253 -0.04395,0.00355 -0.07371,0.00506 -0.02976,0.00151 -0.0448,0.00202 -0.0751,0.0025 -0.0303,4.855e-4 -0.0456,4.742e-4 -0.0764,-7.48e-5 -0.0308,-5.49e-4 -0.04635,-0.00108 -0.07762,-0.00267 -0.03127,-0.00159 -0.04704,-0.00264 -0.07875,-0.00529 -0.031709,-0.00264 -0.047685,-0.00422 -0.079796,-0.00792 -0.032111,-0.0037 -0.048279,-0.00581 -0.080759,-0.010584 -0.03248,-0.00477 -0.048824,-0.00742 -0.08164,-0.013267 q -0.0328,-0.00585 -0.082424,-0.015974 A 4,4 0 0 1 9.4243887,7.2930431 q 0.016044,-0.048037 0.027387,-0.07938 c 0.011343,-0.031343 0.017222,-0.046822 0.02933,-0.077336 0.012109,-0.030513 0.018363,-0.045572 0.031213,-0.075231 0.01285,-0.02966 0.019469,-0.044285 0.033035,-0.073067 0.013566,-0.028782 0.020538,-0.042963 0.034797,-0.070842 0.014259,-0.02788 0.02157,-0.041603 0.036497,-0.068556 0.014927,-0.026952 0.022566,-0.040207 0.038137,-0.066205 0.015571,-0.025999 0.023526,-0.038771 0.039718,-0.063789 0.016191,-0.025018 0.024451,-0.037293 0.041239,-0.061301 0.016788,-0.024008 0.02534,-0.035772 0.042702,-0.058739 0.017362,-0.022966 0.026195,-0.034204 0.044109,-0.056093 0.017914,-0.02189 0.027017,-0.032582 0.045463,-0.053354 0.018446,-0.020773 0.027808,-0.0309 0.046768,-0.050508 0.018959,-0.019609 0.028572,-0.029147 0.048028,-0.047534 0.019456,-0.018387 0.029311,-0.027309 0.049252,-0.044401 0.01994,-0.017092 0.03003,-0.025362 0.05045,-0.04106 0.02042,-0.015697 0.03074,-0.023273 0.05165,-0.037427 0.02091,-0.014153 0.03108,-0.021 0.05289,-0.033341 q 0.0218,-0.012341 0.05613,-0.028365 0.05766,0.00284 0.09453,0.00285 c 0.03686,6.9e-6 0.0545,-5.998e-4 0.08979,-0.00281 0.03529,-0.00221 0.05267,-0.0039 0.08665,-0.00825 0.03398,-0.00435 0.05068,-0.00709 0.08325,-0.013503 0.03257,-0.00641 0.04853,-0.010163 0.07959,-0.018555 0.03105,-0.00839 0.04624,-0.013114 0.07568,-0.023402 0.02944,-0.010288 0.04379,-0.01594 0.07153,-0.028039 0.02773,-0.012099 0.0412,-0.018636 0.06713,-0.032457 0.02592,-0.013821 0.03847,-0.021199 0.06249,-0.036649 0.02402,-0.015451 0.03559,-0.023622 0.05762,-0.040605 0.02202,-0.016982 0.03257,-0.025898 0.05249,-0.044308 0.01992,-0.01841 0.02939,-0.028017 0.04711,-0.047742 0.01772,-0.019724 0.02607,-0.029966 0.04148,-0.050879 0.01542,-0.020913 0.02259,-0.031724 0.0356,-0.053686 0.01301,-0.021962 0.01895,-0.03327 0.02947,-0.056124 0.01051,-0.022854 0.01518,-0.034576 0.02311,-0.058146 0.0079,-0.02357 0.01127,-0.035613 0.01654,-0.059705 0.0053,-0.024093 0.0073,-0.036352 0.0098,-0.060757 q 0.0026,-0.024405 0.003,-0.061268 a 1.75,1.75 0 0 1 0,-0.024942 q -4.3e-4,-0.036863 -0.003,-0.061268 c -0.0026,-0.024405 -0.0045,-0.036664 -0.0098,-0.060757 -0.0053,-0.024092 -0.0086,-0.036135 -0.01654,-0.059705 -0.0079,-0.02357 -0.01259,-0.035292 -0.02311,-0.058146 -0.01051,-0.022854 -0.01645,-0.034162 -0.02947,-0.056124 -0.01301,-0.021962 -0.02018,-0.032773 -0.0356,-0.053686 -0.01542,-0.020913 -0.02377,-0.031155 -0.04148,-0.050879 -0.01772,-0.019724 -0.02719,-0.029332 -0.04711,-0.047742 -0.01992,-0.01841 -0.03047,-0.027326 -0.05249,-0.044308 -0.02202,-0.016983 -0.03359,-0.025154 -0.05762,-0.040605 -0.02402,-0.015451 -0.03657,-0.022828 -0.06249,-0.036649 -0.02593,-0.013821 -0.0394,-0.020358 -0.06713,-0.032457 -0.02773,-0.012099 -0.04209,-0.017751 -0.07153,-0.028039 -0.02944,-0.010288 -0.04463,-0.015011 -0.07568,-0.023402 -0.03105,-0.00839 -0.04702,-0.012143 -0.07959,-0.018555 -0.03257,-0.00641 -0.04927,-0.00915 -0.08325,-0.013503 -0.03398,-0.00435 -0.05136,-0.00604 -0.08665,-0.00825 -0.03529,-0.00221 -0.05293,-0.00282 -0.08979,-0.00281 q -0.03686,6.8e-6 -0.09453,0.00285 -0.03433,-0.016024 -0.05613,-0.028365 c -0.0218,-0.012341 -0.03198,-0.019188 -0.05289,-0.033341 -0.02091,-0.014154 -0.03123,-0.02173 -0.05165,-0.037427 -0.02042,-0.015697 -0.03051,-0.023968 -0.05045,-0.04106 C 9.9921224,4.636202 9.9822672,4.6272802 9.9628111,4.6088931 9.9433551,4.590506 9.9337422,4.5809674 9.9147831,4.5613588 9.8958239,4.5417503 9.8864616,4.531623 9.8680154,4.5108504 9.8495692,4.4900778 9.8404666,4.4793855 9.8225521,4.457496 9.8046377,4.4356065 9.7958052,4.4243693 9.778443,4.4014029 9.7610808,4.3784366 9.7525292,4.3666723 9.7357411,4.3426643 9.7189531,4.3186563 9.7106938,4.306381 9.6945026,4.281363 9.6783114,4.2563451 9.6703561,4.2435733 9.6547851,4.2175745 9.6392142,4.1915758 9.6315748,4.1783214 9.6166479,4.1513692 9.601721,4.124417 9.5944095,4.1106931 9.5801507,4.0828135 9.565892,4.0549339 9.5589205,4.040753 9.5453542,4.0119711 9.5317879,3.9831892 9.5251687,3.9685637 9.512319,3.938904 9.4994694,3.9092443 9.4932147,3.894186 9.481106,3.8636727 9.4689974,3.8331593 9.4631192,3.8176803 9.4517758,3.7863371 Q 9.4404323,3.754994 9.4243887,3.7069569 A 4,4 0 0 1 9.6593734,3.2999513 q 0.049623,-0.010124 0.082439,-0.015972 c 0.032816,-0.00585 0.04916,-0.0085 0.08164,-0.013267 0.03248,-0.00477 0.048648,-0.00688 0.080759,-0.010584 0.032111,-0.0037 0.048087,-0.00528 0.079796,-0.00792 0.031709,-0.00264 0.047476,-0.0037 0.07875,-0.00529 0.03127,-0.00159 0.04682,-0.00212 0.07762,-0.00267 0.0308,-5.49e-4 0.0461,-5.603e-4 0.0764,-7.48e-5 0.0303,4.854e-4 0.04534,9.891e-4 0.0751,0.0025 0.02976,0.00151 0.04452,0.00253 0.07371,0.00506 0.02919,0.00253 0.04365,0.00406 0.07222,0.00761 0.02857,0.00355 0.04272,0.00558 0.07063,0.010153 0.02791,0.00457 0.04173,0.00711 0.06894,0.012695 0.02721,0.00559 0.04066,0.00863 0.06712,0.015248 0.02646,0.00661 0.03953,0.01017 0.06518,0.017826 0.02565,0.00766 0.03831,0.01173 0.06308,0.020453 0.02477,0.00872 0.03698,0.013327 0.06079,0.023164 0.0238,0.00984 0.03553,0.014988 0.05824,0.026019 0.02271,0.01103 0.03373,0.01642 0.05532,0.029133 q 0.02159,0.012713 0.05263,0.034432 0.02637,0.051358 0.0448,0.083287 c 0.01843,0.031928 0.02777,0.0469 0.04733,0.076354 0.01956,0.029454 0.02971,0.043663 0.05047,0.070914 0.02076,0.027251 0.03148,0.040344 0.05332,0.065342 0.02184,0.024998 0.03307,0.03695 0.05586,0.059647 0.02279,0.022697 0.03448,0.033486 0.05811,0.053839 0.02363,0.020352 0.0357,0.029957 0.06005,0.047924 0.02434,0.017966 0.03674,0.026367 0.06167,0.041908 0.02493,0.015541 0.03759,0.022719 0.06299,0.035797 0.02539,0.013078 0.03825,0.019014 0.06397,0.029594 0.02572,0.010579 0.03871,0.015256 0.06462,0.023303 0.0259,0.00805 0.03896,0.011447 0.0649,0.016931 0.02594,0.00548 0.03898,0.00759 0.0648,0.010487 0.02582,0.0029 0.03877,0.0037 0.06429,0.00399 0.02553,2.894e-4 0.03829,-2.203e-4 0.06334,-0.00254 0.02505,-0.00232 0.03753,-0.00414 0.06191,-0.00906 0.02438,-0.00492 0.03648,-0.00805 0.05998,-0.015529 0.0235,-0.00748 0.03511,-0.011894 0.05753,-0.021878 q 0.02242,-0.00998 0.05456,-0.028043 a 1.75,1.75 0 0 1 0.0216,-0.012471 q 0.03171,-0.018804 0.05156,-0.033224 c 0.01985,-0.014421 0.02948,-0.022268 0.04771,-0.038879 0.01823,-0.016611 0.02699,-0.025524 0.04344,-0.044176 0.01645,-0.018652 0.02427,-0.02855 0.0388,-0.049083 0.01454,-0.020533 0.02136,-0.031331 0.03387,-0.053583 0.01251,-0.022251 0.01829,-0.033866 0.02869,-0.057674 0.0104,-0.023808 0.0151,-0.036158 0.02332,-0.061366 0.0082,-0.025208 0.01181,-0.038216 0.01779,-0.064672 0.006,-0.026457 0.0084,-0.040049 0.01213,-0.067611 0.0037,-0.027562 0.005,-0.041669 0.0064,-0.070198 0.0014,-0.028529 0.0015,-0.043084 4.92e-4,-0.072446 -9.92e-4,-0.029362 -0.0021,-0.0443 -0.0055,-0.074365 -0.0034,-0.030066 -0.0057,-0.045322 -0.01148,-0.075963 -0.0058,-0.030641 -0.0093,-0.046152 -0.01757,-0.077241 -0.0083,-0.031089 -0.01299,-0.046793 -0.02372,-0.078202 -0.01073,-0.031409 -0.01671,-0.047242 -0.02993,-0.078845 -0.01322,-0.031602 -0.02045,-0.0475 -0.03618,-0.079167 -0.01573,-0.031667 -0.02402,-0.047246 -0.04246,-0.079167 q -0.01844,-0.031921 -0.04973,-0.080439 -0.0033,-0.037742 -0.0035,-0.062796 c -2.15e-4,-0.025054 6.26e-4,-0.037291 0.0024,-0.062474 0.0018,-0.025184 0.0032,-0.037912 0.0066,-0.063445 0.0034,-0.025534 0.0055,-0.038408 0.01033,-0.064224 0.0048,-0.025816 0.0076,-0.038811 0.01383,-0.064854 0.0062,-0.026043 0.0097,-0.039137 0.01715,-0.065361 0.0075,-0.026223 0.01159,-0.039395 0.02036,-0.065756 0.0088,-0.026361 0.01348,-0.03959 0.02348,-0.06605 0.01,-0.026459 0.01531,-0.039727 0.02652,-0.066246 0.01121,-0.026519 0.01712,-0.039807 0.02952,-0.06635 0.0124,-0.026543 0.0189,-0.039833 0.03247,-0.066364 0.01357,-0.026531 0.02065,-0.039806 0.03538,-0.066291 0.01473,-0.026484 0.02239,-0.039727 0.03827,-0.066131 0.01588,-0.026403 0.02411,-0.039597 0.04112,-0.065885 0.01701,-0.026288 0.02581,-0.039416 0.04395,-0.065556 0.01814,-0.02614 0.0275,-0.039185 0.04676,-0.065143 0.01926,-0.025958 0.02918,-0.038904 0.04955,-0.064647 0.02037,-0.025743 0.03084,-0.038573 0.05231,-0.064069 q 0.02147,-0.025495 0.05505,-0.063408 a 4,4 0 0 1 0.46997,0 q 0.03358,0.037913 0.05505,0.063408 c 0.02147,0.025495 0.03194,0.038326 0.05231,0.064069 0.02037,0.025743 0.03028,0.038689 0.04955,0.064647 0.01926,0.025958 0.02862,0.039003 0.04676,0.065143 0.01814,0.02614 0.02694,0.039268 0.04395,0.065556 0.01702,0.026288 0.02524,0.039482 0.04112,0.065885 0.01588,0.026403 0.02354,0.039646 0.03827,0.066131 0.01473,0.026484 0.02181,0.03976 0.03538,0.066291 0.01357,0.026531 0.02007,0.039821 0.03247,0.066364 0.0124,0.026543 0.01831,0.039831 0.02952,0.06635 0.01121,0.026519 0.01652,0.039787 0.02652,0.066246 0.01,0.026459 0.01471,0.039688 0.02348,0.06605 0.0088,0.026361 0.01286,0.039533 0.02036,0.065756 0.0075,0.026223 0.01096,0.039318 0.01715,0.065361 0.0062,0.026043 0.009,0.039039 0.01383,0.064854 0.0048,0.025816 0.0069,0.03869 0.01033,0.064224 0.0034,0.025534 0.0048,0.038261 0.0066,0.063445 0.0018,0.025184 0.0026,0.03742 0.0024,0.062474 q -2.14e-4,0.025054 -0.0035,0.062796 -0.03129,0.048518 -0.04973,0.080439 c -0.01844,0.031921 -0.02673,0.0475 -0.04246,0.079167 -0.01573,0.031667 -0.02296,0.047565 -0.03618,0.079167 -0.01322,0.031602 -0.0192,0.047435 -0.02993,0.078845 -0.01073,0.031409 -0.01547,0.047113 -0.02372,0.078202 -0.0083,0.031089 -0.01176,0.0466 -0.01757,0.077241 -0.0058,0.030641 -0.0081,0.045897 -0.01148,0.075963 -0.0034,0.030066 -0.0045,0.045003 -0.0055,0.074365 -9.93e-4,0.029362 -8.78e-4,0.043917 4.92e-4,0.072446 0.0014,0.028529 0.0027,0.042636 0.0064,0.070198 0.0037,0.027562 0.0061,0.041154 0.01213,0.067611 0.006,0.026457 0.0096,0.039465 0.01779,0.064672 0.0082,0.025208 0.01292,0.037558 0.02332,0.061366 0.0104,0.023808 0.01618,0.035423 0.02869,0.057674 0.01251,0.022251 0.01934,0.033049 0.03387,0.053583 0.01453,0.020533 0.02235,0.030431 0.0388,0.049083 0.01645,0.018652 0.02521,0.027565 0.04344,0.044176 0.01823,0.016611 0.02786,0.024458 0.04771,0.038879 q 0.01985,0.014421 0.05156,0.033224 a 1.75,1.75 0 0 1 0.0216,0.012471 q 0.03214,0.018059 0.05456,0.028043 c 0.02242,0.00998 0.03402,0.014397 0.05753,0.021878 0.0235,0.00748 0.0356,0.010611 0.05998,0.015529 0.02438,0.00492 0.03686,0.00674 0.06191,0.00906 0.02505,0.00232 0.03781,0.00283 0.06334,0.00254 0.02553,-2.893e-4 0.03847,-0.00109 0.06429,-0.00399 0.02582,-0.00289 0.03886,-0.005 0.0648,-0.010487 0.02594,-0.00548 0.039,-0.00888 0.0649,-0.016931 0.0259,-0.00805 0.0389,-0.012724 0.06462,-0.023303 0.02572,-0.010579 0.03858,-0.016516 0.06397,-0.029594 0.02539,-0.013078 0.03805,-0.020256 0.06299,-0.035797 0.02493,-0.015541 0.03733,-0.023942 0.06167,-0.041908 0.02434,-0.017966 0.03641,-0.027571 0.06005,-0.047924 0.02363,-0.020352 0.03531,-0.031141 0.05811,-0.053839 0.02279,-0.022697 0.03403,-0.034649 0.05586,-0.059647 0.02184,-0.024998 0.03256,-0.038091 0.05332,-0.065342 0.02076,-0.027251 0.03091,-0.04146 0.05047,-0.070914 0.01956,-0.029454 0.0289,-0.044426 0.04733,-0.076354 q 0.01843,-0.031928 0.0448,-0.083287 0.03104,-0.021719 0.05263,-0.034432 c 0.02159,-0.012713 0.03261,-0.018103 0.05532,-0.029133 0.02271,-0.01103 0.03443,-0.016182 0.05824,-0.026019 0.02381,-0.00984 0.03601,-0.014441 0.06079,-0.023164 0.02477,-0.00872 0.03743,-0.012797 0.06308,-0.020453 0.02565,-0.00766 0.03872,-0.011211 0.06518,-0.017826 0.02646,-0.00661 0.03991,-0.00966 0.06712,-0.015248 0.02721,-0.00559 0.04102,-0.00813 0.06894,-0.012695 0.02791,-0.00457 0.04206,-0.0066 0.07063,-0.010153 0.02857,-0.00355 0.04303,-0.00508 0.07222,-0.00761 0.02919,-0.00253 0.04395,-0.00355 0.07371,-0.00506 0.02976,-0.00151 0.0448,-0.00202 0.0751,-0.0025 0.0303,-4.855e-4 0.0456,-4.742e-4 0.0764,7.48e-5 0.0308,5.49e-4 0.04635,0.00108 0.07762,0.00267 0.03127,0.00159 0.04704,0.00264 0.07875,0.00529 0.03171,0.00264 0.04768,0.00422 0.0798,0.00792 0.03211,0.0037 0.04828,0.00581 0.08076,0.010584 0.03248,0.00477 0.04882,0.00742 0.08164,0.013267 q 0.03281,0.00585 0.08244,0.015972 a 4,4 0 0 1 0.234984,0.4070056 q -0.01604,0.048037 -0.02739,0.07938 c -0.01134,0.031343 -0.01722,0.046822 -0.02933,0.077336 -0.01211,0.030513 -0.01836,0.045572 -0.03121,0.075231 -0.01285,0.02966 -0.01947,0.044285 -0.03303,0.073067 -0.01357,0.028782 -0.02054,0.042963 -0.0348,0.070842 -0.01426,0.02788 -0.02157,0.041603 -0.0365,0.068556 -0.01493,0.026952 -0.02257,0.040207 -0.03814,0.066205 -0.01557,0.025999 -0.02353,0.038771 -0.03972,0.063789 -0.01619,0.025018 -0.02445,0.037293 -0.04124,0.061301 -0.01679,0.024008 -0.02534,0.035772 -0.0427,0.058739 -0.01736,0.022966 -0.0262,0.034204 -0.04411,0.056093 -0.01791,0.02189 -0.02702,0.032582 -0.04546,0.053354 -0.01845,0.020773 -0.02781,0.0309 -0.04677,0.050508 -0.01896,0.019609 -0.02857,0.029147 -0.04803,0.047534 -0.01946,0.018387 -0.02931,0.027309 -0.04925,0.044401 -0.01994,0.017092 -0.03003,0.025362 -0.05045,0.04106 -0.02042,0.015697 -0.03074,0.023273 -0.05165,0.037427 -0.02091,0.014153 -0.03108,0.021 -0.05289,0.033341 q -0.0218,0.012341 -0.05613,0.028365 -0.05766,-0.00284 -0.09453,-0.00285 c -0.03686,-6.9e-6 -0.0545,5.998e-4 -0.08979,0.00281 -0.03529,0.00221 -0.05267,0.0039 -0.08665,0.00825 -0.03398,0.00435 -0.05068,0.00709 -0.08325,0.013503 -0.03257,0.00641 -0.04853,0.010163 -0.07959,0.018555 -0.03105,0.00839 -0.04624,0.013114 -0.07568,0.023402 -0.02944,0.010288 -0.04379,0.01594 -0.07153,0.028039 -0.02773,0.012099 -0.0412,0.018636 -0.06713,0.032457 -0.02592,0.013821 -0.03847,0.021199 -0.06249,0.036649 -0.02402,0.015451 -0.03559,0.023622 -0.05762,0.040605 -0.02202,0.016982 -0.03257,0.025898 -0.05249,0.044308 -0.01992,0.01841 -0.02939,0.028017 -0.04711,0.047742 -0.01772,0.019724 -0.02607,0.029966 -0.04148,0.050879 -0.01542,0.020913 -0.02259,0.031724 -0.0356,0.053686 -0.01301,0.021962 -0.01895,0.03327 -0.02947,0.056124 -0.01051,0.022854 -0.01518,0.034576 -0.02311,0.058146 -0.0079,0.02357 -0.01127,0.035613 -0.01654,0.059705 -0.0053,0.024093 -0.0073,0.036352 -0.0098,0.060757 q -0.0026,0.024405 -0.003,0.061268 a 1.75,1.75 0 0 1 0,0.024942 q 4.3e-4,0.036863 0.003,0.061268 c 0.0026,0.024405 0.0045,0.036664 0.0098,0.060757 0.0053,0.024092 0.0086,0.036135 0.01654,0.059705 0.0079,0.02357 0.01259,0.035292 0.02311,0.058146 0.01051,0.022854 0.01645,0.034162 0.02947,0.056124 0.01301,0.021962 0.02018,0.032773 0.0356,0.053686 0.01542,0.020913 0.02377,0.031155 0.04148,0.050879 0.01772,0.019724 0.02719,0.029332 0.04711,0.047742 0.01992,0.01841 0.03047,0.027326 0.05249,0.044308 0.02202,0.016983 0.03359,0.025154 0.05762,0.040605 0.02402,0.015451 0.03657,0.022828 0.06249,0.036649 0.02593,0.013821 0.0394,0.020358 0.06713,0.032457 0.02773,0.012099 0.04209,0.017751 0.07153,0.028039 0.02944,0.010288 0.04463,0.015011 0.07568,0.023402 0.03105,0.00839 0.04702,0.012143 0.07959,0.018555 0.03257,0.00641 0.04927,0.00915 0.08325,0.013503 0.03398,0.00435 0.05136,0.00604 0.08665,0.00825 0.03529,0.00221 0.05293,0.00282 0.08979,0.00281 q 0.03686,-6.8e-6 0.09453,-0.00285 0.03433,0.016024 0.05613,0.028365 c 0.0218,0.012341 0.03198,0.019188 0.05289,0.033341 0.02091,0.014154 0.03123,0.02173 0.05165,0.037427 0.02042,0.015697 0.03051,0.023968 0.05045,0.04106 0.01994,0.017092 0.0298,0.026014 0.04925,0.044401 0.01946,0.018387 0.02907,0.027926 0.04803,0.047534 0.01896,0.019608 0.02832,0.029736 0.04677,0.050508 0.01845,0.020773 0.02755,0.031465 0.04546,0.053354 0.01791,0.02189 0.02675,0.033127 0.04411,0.056093 0.01736,0.022966 0.02591,0.034731 0.0427,0.058739 0.01679,0.024008 0.02505,0.036283 0.04124,0.061301 0.01619,0.025018 0.02415,0.03779 0.03972,0.063789 0.01557,0.025999 0.02321,0.039253 0.03814,0.066205 0.01493,0.026952 0.02224,0.040676 0.0365,0.068556 0.01426,0.02788 0.02123,0.042061 0.0348,0.070842 0.01357,0.028782 0.02018,0.043407 0.03303,0.073067 0.01285,0.02966 0.0191,0.044718 0.03121,0.075231 0.01211,0.030513 0.01799,0.045992 0.02933,0.077336 q 0.01134,0.031343 0.02739,0.07938 a 4,4 0 0 1 -0.234984,0.4070056 q -0.04962,0.010124 -0.08244,0.015972 c -0.03282,0.00585 -0.04916,0.0085 -0.08164,0.013267 -0.03248,0.00477 -0.04865,0.00688 -0.08076,0.010584 -0.03211,0.0037 -0.04809,0.00528 -0.0798,0.00792 -0.03171,0.00264 -0.04748,0.0037 -0.07875,0.00529 -0.03127,0.00159 -0.04682,0.00212 -0.07762,0.00267 -0.0308,5.49e-4 -0.0461,5.603e-4 -0.0764,7.48e-5 -0.0303,-4.854e-4 -0.04534,-9.891e-4 -0.0751,-0.0025 -0.02976,-0.00151 -0.04452,-0.00253 -0.07371,-0.00506 -0.02919,-0.00253 -0.04365,-0.00406 -0.07222,-0.00761 -0.02857,-0.00355 -0.04272,-0.00558 -0.07063,-0.010153 -0.02791,-0.00457 -0.04173,-0.00711 -0.06894,-0.012695 -0.02721,-0.00559 -0.04066,-0.00863 -0.06712,-0.015248 -0.02646,-0.00661 -0.03953,-0.01017 -0.06518,-0.017826 -0.02565,-0.00766 -0.03831,-0.01173 -0.06308,-0.020453 -0.02477,-0.00872 -0.03698,-0.013327 -0.06079,-0.023164 -0.0238,-0.00984 -0.03553,-0.014988 -0.05824,-0.026019 -0.02271,-0.01103 -0.03373,-0.01642 -0.05532,-0.029133 q -0.02159,-0.012713 -0.05263,-0.034432 -0.02637,-0.051358 -0.0448,-0.083286 c -0.01843,-0.031928 -0.02777,-0.0469 -0.04733,-0.076354 -0.01956,-0.029454 -0.02971,-0.043663 -0.05047,-0.070914 -0.02076,-0.027251 -0.03148,-0.040344 -0.05332,-0.065342 -0.02184,-0.024998 -0.03307,-0.03695 -0.05586,-0.059647 -0.02279,-0.022697 -0.03448,-0.033486 -0.05811,-0.053839 -0.02363,-0.020352 -0.0357,-0.029957 -0.06005,-0.047924 -0.02434,-0.017966 -0.03674,-0.026367 -0.06167,-0.041908 -0.02493,-0.015541 -0.03759,-0.022719 -0.06299,-0.035797 -0.02539,-0.013078 -0.03825,-0.019014 -0.06397,-0.029593 -0.02572,-0.010579 -0.03871,-0.015256 -0.06462,-0.023303 -0.0259,-0.00805 -0.03896,-0.011447 -0.0649,-0.016931 -0.02594,-0.00548 -0.03898,-0.00759 -0.0648,-0.010487 -0.02582,-0.0029 -0.03877,-0.0037 -0.06429,-0.00399 -0.02553,-2.894e-4 -0.03829,2.203e-4 -0.06334,0.00254 -0.02505,0.00232 -0.03753,0.00414 -0.06191,0.00906 -0.02438,0.00492 -0.03648,0.00805 -0.05998,0.015529 -0.0235,0.00748 -0.03511,0.011894 -0.05753,0.021878 q -0.02242,0.00998 -0.05456,0.028043 a 1.75,1.75 0 0 1 -0.0216,0.012471 q -0.03171,0.018804 -0.05156,0.033225 c -0.01985,0.014421 -0.02948,0.022268 -0.04771,0.038879 -0.01823,0.016611 -0.02699,0.025524 -0.04344,0.044176 -0.01645,0.018652 -0.02427,0.02855 -0.0388,0.049083 -0.01454,0.020533 -0.02136,0.031331 -0.03387,0.053583 -0.01251,0.022251 -0.01829,0.033866 -0.02869,0.057674 -0.0104,0.023808 -0.0151,0.036158 -0.02332,0.061366 -0.0082,0.025208 -0.01181,0.038216 -0.01779,0.064672 -0.006,0.026457 -0.0084,0.040049 -0.01213,0.067611 -0.0037,0.027562 -0.005,0.041669 -0.0064,0.070198 -0.0014,0.028529 -0.0015,0.043084 -4.92e-4,0.072446 9.92e-4,0.029362 0.0021,0.0443 0.0055,0.074365 0.0034,0.030066 0.0057,0.045322 0.01148,0.075963 0.0058,0.030641 0.0093,0.046152 0.01757,0.077241 0.0083,0.031089 0.01299,0.046792 0.02372,0.078202 0.01073,0.031409 0.01671,0.047242 0.02993,0.078844 0.01322,0.031602 0.02045,0.0475 0.03618,0.079167 0.01573,0.031667 0.02402,0.047246 0.04246,0.079167 q 0.01844,0.031921 0.04973,0.080439 0.0033,0.037742 0.0035,0.062797 c 2.15e-4,0.025054 -6.26e-4,0.03729 -0.0024,0.062474 -0.0018,0.025184 -0.0032,0.037911 -0.0066,0.063445 -0.0034,0.025534 -0.0055,0.038408 -0.01033,0.064224 -0.0048,0.025815 -0.0076,0.038811 -0.01383,0.064854 -0.0062,0.026043 -0.0097,0.039137 -0.01715,0.065361 -0.0075,0.026223 -0.01159,0.039395 -0.02036,0.065756 -0.0088,0.026361 -0.01348,0.03959 -0.02348,0.06605 -0.01,0.026459 -0.01531,0.039727 -0.02652,0.066246 -0.01121,0.026519 -0.01712,0.039807 -0.02952,0.06635 -0.0124,0.026543 -0.0189,0.039833 -0.03247,0.066364 -0.01357,0.026531 -0.02065,0.039806 -0.03538,0.066291 -0.01473,0.026484 -0.02239,0.039727 -0.03827,0.06613 -0.01588,0.026403 -0.02411,0.039597 -0.04112,0.065885 -0.01701,0.026288 -0.02581,0.039416 -0.04395,0.065556 -0.01814,0.02614 -0.0275,0.039185 -0.04676,0.065143 -0.01926,0.025958 -0.02918,0.038904 -0.04955,0.064647 -0.02037,0.025743 -0.03084,0.038573 -0.05231,0.064068 q -0.02147,0.025495 -0.05505,0.063408 a 4,4 0 0 1 -0.46997,0 q -0.03358,-0.037913 -0.05505,-0.063408 c -0.02147,-0.025495 -0.03194,-0.038325 -0.05231,-0.064068 -0.02037,-0.025743 -0.03028,-0.038689 -0.04955,-0.064647 -0.01926,-0.025958 -0.02862,-0.039003 -0.04676,-0.065143 -0.01814,-0.02614 -0.02694,-0.039268 -0.04395,-0.065556 -0.01702,-0.026288 -0.02524,-0.039482 -0.04112,-0.065885 -0.01588,-0.026403 -0.02354,-0.039646 -0.03827,-0.06613 -0.01473,-0.026484 -0.02181,-0.03976 -0.03538,-0.066291 -0.01357,-0.026531 -0.02007,-0.039821 -0.03247,-0.066364 -0.0124,-0.026543 -0.01831,-0.039831 -0.02952,-0.06635 -0.01121,-0.026519 -0.01652,-0.039787 -0.02652,-0.066246 -0.01,-0.026459 -0.01471,-0.039688 -0.02348,-0.06605 -0.0088,-0.026361 -0.01286,-0.039533 -0.02036,-0.065756 -0.0075,-0.026223 -0.01096,-0.039318 -0.01715,-0.065361 -0.0062,-0.026043 -0.009,-0.039039 -0.01383,-0.064854 -0.0048,-0.025816 -0.0069,-0.03869 -0.01033,-0.064224 -0.0034,-0.025534 -0.0048,-0.038261 -0.0066,-0.063445 -0.0018,-0.025184 -0.0026,-0.03742 -0.0024,-0.062474 q 2.14e-4,-0.025054 0.0035,-0.062797 0.03129,-0.048518 0.04973,-0.080439 c 0.01844,-0.031921 0.02673,-0.0475 0.04246,-0.079167 0.01573,-0.031667 0.02296,-0.047565 0.03618,-0.079167 0.01322,-0.031602 0.0192,-0.047435 0.02993,-0.078844 0.01073,-0.031409 0.01547,-0.047113 0.02372,-0.078202 0.0083,-0.031089 0.01176,-0.0466 0.01757,-0.077241 0.0058,-0.030641 0.0081,-0.045897 0.01148,-0.075963 0.0034,-0.030066 0.0045,-0.045003 0.0055,-0.074365 9.93e-4,-0.029362 8.78e-4,-0.043917 -4.92e-4,-0.072446 -0.0014,-0.028529 -0.0027,-0.042636 -0.0064,-0.070198 -0.0037,-0.027562 -0.0061,-0.041155 -0.01213,-0.067611 -0.006,-0.026457 -0.0096,-0.039465 -0.01779,-0.064672 -0.0082,-0.025208 -0.01292,-0.037558 -0.02332,-0.061366 -0.0104,-0.023808 -0.01618,-0.035423 -0.02869,-0.057674 -0.01251,-0.022251 -0.01934,-0.033049 -0.03387,-0.053583 -0.01453,-0.020533 -0.02235,-0.030431 -0.0388,-0.049083 -0.01645,-0.018652 -0.02521,-0.027565 -0.04344,-0.044176 -0.01823,-0.016611 -0.02786,-0.024458 -0.04771,-0.038879 q -0.01985,-0.014421 -0.05156,-0.033225 a 1.75,1.75 0 0 1 -0.0216,-0.012471"
       id="path4"
       style="fill:#3282d2;fill-opacity:1" />
  </g>
</svg>
