<?xml version="1.0" encoding="UTF-8" standalone="no"?>
<svg
   viewBox="0 0 63.499998 63.499998"
   version="1.2"
   height="24"
   width="24"
   id="svg1984"
   xmlns="http://www.w3.org/2000/svg"
   xmlns:svg="http://www.w3.org/2000/svg"
   xmlns:rdf="http://www.w3.org/1999/02/22-rdf-syntax-ns#"
   xmlns:cc="http://creativecommons.org/ns#"
   xmlns:dc="http://purl.org/dc/elements/1.1/">
  <title
     id="title2">FreeCAD SVG Export</title>
  <desc
     id="desc4">Drawing page: Page exported from FreeCAD document: Unnamed</desc>
  <defs
     id="defs6" />
  <g
     id="g4045"
     transform="translate(5.9956465,4.7103766)"
     style="stroke:#000000;stroke-width:0.396875;stroke-miterlimit:4;stroke-dasharray:none;stroke-opacity:1">
    <g
       id="g4379"
       style="display:inline;stroke:#000000;stroke-width:0.396875;stroke-miterlimit:4;stroke-dasharray:none;stroke-opacity:1">
      <path
         d="m 53.316165,33.878725 h -0.08095 c -0.089,0.264686 -0.191248,0.551346 -0.30674,0.860022 -0.204227,0.543059 -0.453619,1.159949 -0.783738,1.885242 -0.343934,0.753922 -0.774135,1.624365 -1.361806,2.668881 -0.232351,0.413771 -0.493205,0.857469 -0.782523,1.330966 -0.387163,0.632251 -0.828485,1.322303 -1.328787,2.08041 -0.466599,0.722572 -1.027779,1.512028 -1.727829,2.310273 -0.338165,0.384599 -0.711247,0.773593 -1.109113,1.123369 -0.187793,0.164864 -0.380559,0.31985 -0.570857,0.45052 -0.287383,0.19797 -0.564215,0.334708 -0.754855,0.333746 h -0.178799 c -0.102398,-0.0014 -0.177774,-0.03315 -0.226126,-0.0953 -0.05412,-0.06726 -0.07754,-0.16658 -0.0797,-0.281804 -9.49e-4,-0.06194 0.0036,-0.127949 0.01374,-0.197971 0.03712,-0.255018 0.130673,-0.54691 0.244496,-0.843699 0.111962,-0.291557 0.244989,-0.589685 0.383936,-0.884381 0.312091,-0.662847 0.66335,-1.311546 0.985536,-1.91475 0.04907,-0.09852 0.09587,-0.195962 0.140276,-0.292227 0.186883,-0.404689 0.334294,-0.789456 0.454037,-1.15589 0.108547,-0.332155 0.194701,-0.649369 0.267306,-0.953022 0.08669,-0.366225 0.15614,-0.713825 0.208326,-1.042758 0.156975,-0.98391 0.192955,-1.812667 0.191892,-2.535282 -0.003,-0.715038 -0.04759,-1.325692 -0.10551,-1.864566 -0.03856,-0.35685 -0.08342,-0.681849 -0.129497,-0.981776 h -2.98527 c -0.462728,0.732366 -1.033016,1.607497 -1.776486,2.745264 -0.491686,0.753922 -1.067098,1.624365 -1.729385,2.668881 -0.262675,0.413771 -0.536965,0.857469 -0.82283,1.330966 -0.379913,0.632251 -0.768632,1.322303 -1.098333,2.08041 -0.273569,0.722572 -0.639895,1.512028 -1.276943,2.310273 -0.309055,0.384599 -0.68282,0.773593 -1.161678,1.123369 -0.226278,0.164864 -0.476619,0.31985 -0.754931,0.45052 -0.419272,0.19797 -0.898661,0.334708 -1.371447,0.333746 h -0.431644 c -0.313267,0 -0.59435,-0.05738 -0.836151,-0.154233 -0.293608,-0.117611 -0.526718,-0.287037 -0.707983,-0.474168 -0.233641,-0.24242 -0.393198,-0.513928 -0.509183,-0.790376 -0.06752,-0.162981 -0.121831,-0.327175 -0.162858,-0.492499 -0.08851,-0.353669 -0.129383,-0.706668 -0.140732,-1.052092 -0.01397,-0.432271 0.02004,-0.853325 0.06365,-1.25454 0.02232,-0.501749 -0.01715,-0.97395 -0.09044,-1.418986 -0.09302,-0.558085 -0.23254,-1.074107 -0.37627,-1.554594 -0.206542,-0.68143 -0.436957,-1.291163 -0.665209,-1.844728 -0.286402,-0.692901 -0.569477,-1.29803 -0.834844,-1.83908 -0.424664,-0.863538 -0.810373,-1.565142 -1.144667,-2.168136 h -4.22177 c -0.405639,0.732366 -0.88721,1.607497 -1.421887,2.745264 -0.243357,0.51937 -0.498374,1.094616 -0.75046,1.743483 -0.1632,0.421263 -0.324122,0.873708 -0.472368,1.363194 -0.08676,0.284567 -0.167489,0.582277 -0.242219,0.89317 -0.06756,0.285321 -0.126954,0.582235 -0.168513,0.891915 -0.05048,0.376731 -0.0745,0.772463 -0.05598,1.188495 0.03587,0.32977 0.06517,0.672807 0.06676,1.024635 0.0017,0.41825 -0.03575,0.849432 -0.143844,1.281997 -0.09883,0.385812 -0.254515,0.776145 -0.534725,1.12701 -0.132192,0.164864 -0.293418,0.31985 -0.496772,0.45052 -0.305563,0.19797 -0.706655,0.334708 -1.184678,0.333746 h -0.431644 c -0.310232,0 -0.623006,-0.05738 -0.920067,-0.154233 -0.36071,-0.117611 -0.691474,-0.287037 -0.979882,-0.474168 -0.372551,-0.24242 -0.686122,-0.513928 -0.956236,-0.790376 C 14.775047,45.32219 14.615642,45.139705 14.472672,44.955881 13.864127,44.177433 13.508997,43.409198 13.242146,42.704246 12.951613,42.036461 12.615687,41.42137 12.279762,40.852277 11.939661,40.278078 11.609808,39.749835 11.300412,39.260349 10.676154,38.276439 10.12917,37.447682 9.6577126,36.725067 8.8814894,35.537536 8.2915796,34.632771 7.8151125,33.878725 H 4.829849 c -0.1108998,0.732366 -0.2216479,1.607497 -0.2343623,2.745264 -0.00467,0.51937 0.011993,1.094616 0.075527,1.743483 0.028237,0.292436 0.068544,0.600902 0.1209955,0.925398 0.052034,0.322906 0.1206918,0.663725 0.2059352,1.022375 0.072036,0.299969 0.1573169,0.613123 0.2644214,0.940884 0.119743,0.366434 0.2671541,0.751201 0.4540366,1.15589 0.044405,0.09627 0.091202,0.193702 0.1402759,0.292227 0.3136849,0.587425 0.6551517,1.21796 0.9609044,1.862725 0.1410728,0.297249 0.2767942,0.598349 0.3919449,0.893422 0.1214129,0.31173 0.2221792,0.619359 0.2611194,0.886683 0.010096,0.07002 0.014688,0.136026 0.013739,0.197971 -0.00216,0.115224 -0.025581,0.214545 -0.079702,0.281804 -0.048353,0.06215 -0.1237281,0.09392 -0.2261264,0.0953 H 6.9997594 c -0.125512,0 -0.2867381,-0.05738 -0.4650432,-0.154233 C 6.318192,46.65031 6.083564,46.480884 5.8569442,46.293753 5.5637162,46.051333 5.2798247,45.779825 5.0137713,45.503377 4.8399067,45.32219 4.6732153,45.139705 4.5136971,44.955881 3.8373674,44.177433 3.2923185,43.409198 2.8371053,42.704246 2.3969596,42.037591 2.0009157,41.420282 1.6489738,40.852277 1.2930846,40.278078 0.98243597,39.749835 0.70750146,39.260349 0.15508958,38.276439 -0.2571224,37.447682 -0.58974609,36.725067 -0.91827081,36.010029 -1.168232,35.399375 -1.3737117,34.860501 c -0.1358353,-0.35685 -0.2514414,-0.681849 -0.352777,-0.981776 -0.053932,0 -0.080917,0 -0.080955,0 v 0 c 3.8754986,13.172507 15.0040077,22.09287 27.5618047,22.09287 v 0 c 12.557797,0 23.686306,-8.920363 27.561804,-22.09287"
         fill-rule="evenodd"
         id="path298"
         style="font-style:normal;font-weight:400;font-size:29.1042px;font-family:'MS Shell Dlg 2';fill:#c17d11;fill-opacity:1;stroke:#000000;stroke-width:0.396875;stroke-miterlimit:4;stroke-dasharray:none;stroke-opacity:1" />
      <path
         d="m 38.266576,42.704246 c 0.329701,-0.758107 0.71842,-1.448159 1.098333,-2.08041 0.285865,-0.473497 0.560155,-0.917195 0.82283,-1.330966 0.662287,-1.044516 1.237699,-1.914959 1.729385,-2.668881 0.74347,-1.137767 1.313758,-2.012898 1.776486,-2.745264 l -7.049125,-3.875038 c -0.290534,0.459811 -0.650522,1.011869 -1.1279,1.742185 -0.216562,0.331402 -0.458667,0.70039 -0.729578,1.120523 -0.244192,0.379618 -0.511878,0.801049 -0.797743,1.277853 -0.220813,0.36949 -0.445914,0.772589 -0.639287,1.217039 l 4.916599,7.342959"
         fill-rule="evenodd"
         id="path330"
         style="font-style:normal;font-weight:400;font-size:29.1042px;font-family:'MS Shell Dlg 2';fill:#c17d11;fill-opacity:1;stroke:#000000;stroke-width:0.396875;stroke-miterlimit:4;stroke-dasharray:none;stroke-opacity:1" />
      <path
         d="m 7.8151125,33.878725 7.0491245,-3.875038 c 0.28226,0.446711 0.630368,0.980897 1.087631,1.680617 0.274897,0.421222 0.592719,0.903174 0.957982,1.475866 0.169728,0.265649 0.348564,0.553146 0.536548,0.862533 0.243509,0.402304 0.497607,0.844913 0.712347,1.338584 l -4.916599,7.342959 C 12.951613,42.036461 12.615687,41.42137 12.279762,40.852277 11.939661,40.278078 11.609808,39.749835 11.300412,39.260349 10.676154,38.276439 10.12917,37.447682 9.6577126,36.725067 8.8814894,35.537536 8.2915796,34.632771 7.8151125,33.878725"
         fill-rule="evenodd"
         id="path338"
         style="font-style:normal;font-weight:400;font-size:29.1042px;font-family:'MS Shell Dlg 2';fill:#c17d11;fill-opacity:1;stroke:#000000;stroke-width:0.396875;stroke-miterlimit:4;stroke-dasharray:none;stroke-opacity:1" />
      <path
         d="m 13.242146,42.704246 4.916599,-7.342959 c 0.17766,0.467178 0.417336,0.985334 0.867577,1.513912 0.217587,0.251335 0.485842,0.508571 0.84693,0.725084 0.189426,0.112295 0.411795,0.213122 0.649649,0.270922 0.133368,0.0329 0.26909,0.04981 0.40705,0.0506 l -3.122806,9.000347 c -0.310232,0 -0.623006,-0.05738 -0.920067,-0.154233 -0.360709,-0.117611 -0.691473,-0.287037 -0.979881,-0.474168 -0.372551,-0.24242 -0.686122,-0.513928 -0.956236,-0.790376 -0.175914,-0.181187 -0.335319,-0.363672 -0.478289,-0.547496 -0.608545,-0.778448 -0.963675,-1.546683 -1.230526,-2.251635"
         fill-rule="evenodd"
         id="path378"
         style="font-style:normal;font-weight:400;font-size:29.1042px;font-family:'MS Shell Dlg 2';fill:#c17d11;fill-opacity:1;stroke:#000000;stroke-width:0.396875;stroke-miterlimit:4;stroke-dasharray:none;stroke-opacity:1" />
      <path
         d="m 33.701577,46.922154 c 0.472786,9.62e-4 0.952175,-0.135776 1.371447,-0.333746 0.278312,-0.13067 0.528653,-0.285656 0.754931,-0.45052 0.478858,-0.349776 0.852623,-0.73877 1.161678,-1.123369 0.637048,-0.798245 1.003374,-1.587701 1.276943,-2.310273 l -4.916599,-7.342959 c -0.166198,0.437964 -0.387732,0.919748 -0.784611,1.414215 -0.19064,0.235221 -0.42227,0.475255 -0.72639,0.692228 -0.146424,0.104092 -0.310573,0.201863 -0.496241,0.282433 -0.23478,0.102166 -0.498822,0.171895 -0.763964,0.171644 l 3.122806,9.000347"
         fill-rule="evenodd"
         id="path386"
         style="font-style:normal;font-weight:400;font-size:29.1042px;font-family:'MS Shell Dlg 2';fill:#c17d11;fill-opacity:1;stroke:#000000;stroke-width:0.396875;stroke-miterlimit:4;stroke-dasharray:none;stroke-opacity:1" />
      <path
         d="m 27.865246,33.878725 -0.82946,-3.875038 h -2.56285 l -0.82946,3.875038 h 4.22177"
         fill-rule="evenodd"
         id="path426"
         style="font-style:normal;font-weight:400;font-size:29.1042px;font-family:'MS Shell Dlg 2';fill:#c17d11;fill-opacity:1;stroke:#000000;stroke-width:0.396875;stroke-miterlimit:4;stroke-dasharray:none;stroke-opacity:1" />
      <path
         d="m 2.8371053,42.704246 c 0.4552132,0.704952 1.0002621,1.473187 1.6765918,2.251635 0.1595182,0.183824 0.3262096,0.366309 0.5000742,0.547496 0.2660534,0.276448 0.5499449,0.547956 0.8431729,0.790376 0.2266198,0.187131 0.4612478,0.356557 0.677772,0.474168 0.1783051,0.09685 0.3395312,0.154233 0.4650432,0.154233 L 7.4706473,46.347076 C 7.4317071,46.079752 7.3309408,45.772123 7.2095279,45.460393 7.0943772,45.16532 6.9586558,44.86422 6.817583,44.566971 6.5118303,43.922206 6.1703635,43.291671 5.8566786,42.704246 5.8076048,42.605721 5.7608082,42.508284 5.7164027,42.412019 L 4.8570996,43.200847 C 4.3727761,42.976675 3.87107,42.681142 3.3556247,42.281434 l -0.5185194,0.422812"
         fill-rule="evenodd"
         id="path450"
         style="font-style:normal;font-weight:400;font-size:29.1042px;font-family:'MS Shell Dlg 2';fill:#c17d11;fill-opacity:1;stroke:#000000;stroke-width:0.396875;stroke-miterlimit:4;stroke-dasharray:none;stroke-opacity:1" />
      <path
         d="m 44.508963,46.922154 c 0.19064,9.62e-4 0.467472,-0.135776 0.754855,-0.333746 0.190298,-0.13067 0.383064,-0.285656 0.570857,-0.45052 0.397866,-0.349776 0.770948,-0.73877 1.109113,-1.123369 0.70005,-0.798245 1.26123,-1.587701 1.727829,-2.310273 l -0.51852,-0.422812 c -0.515445,0.399708 -1.017151,0.695241 -1.501475,0.919413 l -0.859303,-0.788828 c -0.0444,0.09627 -0.0912,0.193702 -0.140276,0.292227 -0.322186,0.603204 -0.673445,1.251903 -0.985536,1.91475 -0.138947,0.294696 -0.271974,0.592824 -0.383936,0.884381 -0.113823,0.296789 -0.207378,0.588681 -0.244496,0.843699 l 0.470888,0.575078"
         fill-rule="evenodd"
         id="path458"
         style="font-style:normal;font-weight:400;font-size:29.1042px;font-family:'MS Shell Dlg 2';fill:#c17d11;fill-opacity:1;stroke:#000000;stroke-width:0.396875;stroke-miterlimit:4;stroke-dasharray:none;stroke-opacity:1" />
      <path
         d="M 7.8151125,33.878725 14.864237,30.003687 H 13.052038 L 11.43416,30.766188 4.829849,33.878725 H 7.8151125"
         fill-rule="evenodd"
         id="path466"
         style="font-style:normal;font-weight:400;font-size:29.1042px;font-family:'MS Shell Dlg 2';fill:#c17d11;fill-opacity:1;stroke:#000000;stroke-width:0.396875;stroke-miterlimit:4;stroke-dasharray:none;stroke-opacity:1" />
      <path
         d="M 46.678873,33.878725 H 43.69361 l -7.049125,-3.875038 h 1.812199 l 1.617878,0.762501 6.604311,3.112537"
         fill-rule="evenodd"
         id="path474"
         style="font-style:normal;font-weight:400;font-size:29.1042px;font-family:'MS Shell Dlg 2';fill:#c17d11;fill-opacity:1;stroke:#000000;stroke-width:0.396875;stroke-miterlimit:4;stroke-dasharray:none;stroke-opacity:1" />
      <path
         d="m 29.948213,37.87447 0.561748,1.856196 v 0 c 0.14373,0.480487 0.283247,0.996509 0.37627,1.554594 0.07329,0.445036 0.11276,0.917237 0.09044,1.418986 -0.04361,0.401215 -0.07761,0.822269 -0.06365,1.25454 0.01135,0.345424 0.05222,0.698423 0.140732,1.052092 0.04103,0.165324 0.09534,0.329518 0.162858,0.492499 0.115985,0.276448 0.275542,0.547956 0.509183,0.790376 0.181265,0.187131 0.414375,0.356557 0.707983,0.474168 0.241801,0.09685 0.522884,0.154233 0.836151,0.154233 L 30.31674,37.921807 c -0.134013,-7.53e-4 -0.256868,-0.01649 -0.368527,-0.04734"
         fill-rule="evenodd"
         id="path482"
         style="font-style:normal;font-weight:400;font-size:29.1042px;font-family:'MS Shell Dlg 2';fill:#c17d11;fill-opacity:1;stroke:#000000;stroke-width:0.396875;stroke-miterlimit:4;stroke-dasharray:none;stroke-opacity:1" />
      <path
         d="m 18.238789,46.922154 2.953193,-9.000347 c 0.134013,-7.53e-4 0.256868,-0.01649 0.368527,-0.04734 l -0.561748,1.856196 v 0 c -0.08676,0.284567 -0.167489,0.582277 -0.242219,0.89317 -0.06756,0.285321 -0.126954,0.582235 -0.168513,0.891915 -0.05048,0.376731 -0.0745,0.772463 -0.05598,1.188495 0.03587,0.32977 0.06517,0.672807 0.06676,1.024635 0.0017,0.41825 -0.03575,0.849432 -0.143844,1.281997 -0.09883,0.385812 -0.254515,0.776145 -0.534725,1.12701 -0.132192,0.164864 -0.293418,0.31985 -0.496772,0.45052 -0.305563,0.19797 -0.706655,0.334708 -1.184678,0.333746"
         fill-rule="evenodd"
         id="path490"
         style="font-style:normal;font-weight:400;font-size:29.1042px;font-family:'MS Shell Dlg 2';fill:#c17d11;fill-opacity:1;stroke:#000000;stroke-width:0.396875;stroke-miterlimit:4;stroke-dasharray:none;stroke-opacity:1" />
      <path
         d="m 22.867446,33.556154 -1.306937,4.318316 -0.561748,1.856196 v 0 c 0.148246,-0.489486 0.309168,-0.941931 0.472368,-1.363194 0.252086,-0.648867 0.507103,-1.224113 0.75046,-1.743483 0.534677,-1.137767 1.016248,-2.012898 1.421887,-2.745264 l 0.82946,-3.875038 c -0.184901,0.333453 -0.395888,0.717173 -0.627764,1.180793 -0.18242,0.366058 -0.380183,0.781838 -0.581803,1.270989 -0.02269,0.05516 -0.04537,0.111249 -0.06804,0.168338 -0.02259,0.05684 -0.04511,0.114723 -0.06756,0.17357 -0.02145,0.05625 -0.0428,0.113467 -0.06402,0.171645 -0.01669,0.04575 -0.03327,0.09208 -0.04975,0.139081 -0.05044,0.143226 -0.09929,0.292604 -0.146546,0.448051"
         fill-rule="evenodd"
         id="path498"
         style="font-style:normal;font-weight:400;font-size:29.1042px;font-family:'MS Shell Dlg 2';fill:#c17d11;fill-opacity:1;stroke:#000000;stroke-width:0.396875;stroke-miterlimit:4;stroke-dasharray:none;stroke-opacity:1" />
      <path
         d="m 28.641276,33.556154 1.306937,4.318316 0.561748,1.856196 v 0 C 30.361715,39.24118 30.200793,38.788735 30.037593,38.367472 29.785507,37.718605 29.53049,37.143359 29.287133,36.623989 28.752456,35.486222 28.270885,34.611091 27.865246,33.878725 l -0.82946,-3.875038 c 0.184901,0.333453 0.395888,0.717173 0.627764,1.180793 0.18242,0.366058 0.380183,0.781838 0.581803,1.270989 0.02269,0.05516 0.04537,0.111249 0.06804,0.168338 0.02259,0.05684 0.04511,0.114723 0.06756,0.17357 0.02145,0.05625 0.0428,0.113467 0.06402,0.171645 0.01669,0.04575 0.03327,0.09208 0.04975,0.139081 0.05044,0.143226 0.09929,0.292604 0.146546,0.448051"
         fill-rule="evenodd"
         id="path498-8"
         style="font-style:normal;font-weight:400;font-size:29.1042px;font-family:'MS Shell Dlg 2';fill:#c17d11;fill-opacity:1;stroke:#000000;stroke-width:0.396875;stroke-miterlimit:4;stroke-dasharray:none;stroke-opacity:1" />
      <path
         d="m 17.807145,46.922154 3.122806,-9.000347 h 0.262031 l -2.953193,9.000347 h -0.431644"
         fill-rule="evenodd"
         id="path538"
         style="font-style:normal;font-weight:400;font-size:29.1042px;font-family:'MS Shell Dlg 2';fill:#c17d11;fill-opacity:1;stroke:#000000;stroke-width:0.396875;stroke-miterlimit:4;stroke-dasharray:none;stroke-opacity:1" />
      <path
         d="M 33.701577,46.922154 H 33.269933 L 30.31674,37.921807 h 0.262031 l 3.122806,9.000347"
         fill-rule="evenodd"
         id="path546"
         style="font-style:normal;font-weight:400;font-size:29.1042px;font-family:'MS Shell Dlg 2';fill:#c17d11;fill-opacity:1;stroke:#000000;stroke-width:0.396875;stroke-miterlimit:4;stroke-dasharray:none;stroke-opacity:1" />
      <path
         d="m -1.611376,33.837414 -0.1151127,0.04131 c 0.1013356,0.299927 0.2169417,0.624926 0.352777,0.981776 0.2054797,0.538874 0.45544089,1.149528 0.78396561,1.864566 0.33262369,0.722615 0.74483567,1.551372 1.29724755,2.535282 0.27493451,0.489486 0.58558314,1.017729 0.94147234,1.591928 0.3519419,0.568005 0.7479858,1.185314 1.1881315,1.851969 L 3.3556247,42.281434 C 2.8281103,41.871806 2.2859838,41.355031 1.7361527,40.681219 1.2505768,40.084586 0.7579795,39.370342 0.27069567,38.460974 -0.0461394,37.762468 -0.36369558,37.017545 -0.6716875,36.259564 -0.8047142,35.932138 -0.93538779,35.603917 -1.0637462,35.274858 -1.2554869,34.783698 -1.441079,34.293835 -1.611376,33.837414"
         fill-rule="evenodd"
         id="path554"
         style="font-style:normal;font-weight:400;font-size:29.1042px;font-family:'MS Shell Dlg 2';fill:#c17d11;fill-opacity:1;stroke:#000000;stroke-width:0.396875;stroke-miterlimit:4;stroke-dasharray:none;stroke-opacity:1" />
      <path
         d="m 48.671617,42.704246 c 0.500302,-0.758107 0.941624,-1.448159 1.328787,-2.08041 0.289318,-0.473497 0.550172,-0.917195 0.782523,-1.330966 0.587671,-1.044516 1.017872,-1.914959 1.361806,-2.668881 0.330119,-0.725293 0.579511,-1.342183 0.783738,-1.885242 0.115492,-0.308676 0.217739,-0.595336 0.30674,-0.860022 l -0.115113,-0.04131 c -0.157734,0.422645 -0.328677,0.87442 -0.505312,1.32879 -0.16411,0.422394 -0.333307,0.847173 -0.505046,1.266637 -0.285789,0.698129 -0.579055,1.382907 -0.871714,2.028133 -0.437527,0.816661 -0.879608,1.475782 -1.316641,2.033993 -0.600727,0.766268 -1.193256,1.339798 -1.768288,1.786467 l 0.51852,0.422812"
         fill-rule="evenodd"
         id="path562"
         style="font-style:normal;font-weight:400;font-size:29.1042px;font-family:'MS Shell Dlg 2';fill:#c17d11;fill-opacity:1;stroke:#000000;stroke-width:0.396875;stroke-miterlimit:4;stroke-dasharray:none;stroke-opacity:1" />
      <path
         d="m 44.330164,46.922154 h 0.178799 l -0.470888,-0.575078 c -0.0101,0.07002 -0.01469,0.136026 -0.01374,0.197971 l 0.305828,0.377107"
         fill-rule="evenodd"
         id="path586"
         style="font-style:normal;font-weight:400;font-size:29.1042px;font-family:'MS Shell Dlg 2';fill:#c17d11;fill-opacity:1;stroke:#000000;stroke-width:0.396875;stroke-miterlimit:4;stroke-dasharray:none;stroke-opacity:1" />
      <path
         d="m 7.1785579,46.922154 0.3058285,-0.377107 c 9.489e-4,-0.06194 -0.00364,-0.127949 -0.013739,-0.197971 L 6.9997595,46.922154 H 7.178558"
         fill-rule="evenodd"
         id="path594"
         style="font-style:normal;font-weight:400;font-size:29.1042px;font-family:'MS Shell Dlg 2';fill:#c17d11;fill-opacity:1;stroke:#000000;stroke-width:0.396875;stroke-miterlimit:4;stroke-dasharray:none;stroke-opacity:1" />
      <path
         d="m 44.104038,46.826851 c 0.04835,0.06215 0.123728,0.09392 0.226126,0.0953 l -0.305828,-0.377107 c 0.0022,0.115224 0.02558,0.214545 0.0797,0.281804"
         fill-rule="evenodd"
         id="path602"
         style="font-style:normal;font-weight:400;font-size:29.1042px;font-family:'MS Shell Dlg 2';fill:#c17d11;fill-opacity:1;stroke:#000000;stroke-width:0.396875;stroke-miterlimit:4;stroke-dasharray:none;stroke-opacity:1" />
      <path
         d="m 7.1785579,46.922154 c 0.1023983,-0.0014 0.1777737,-0.03315 0.2261264,-0.0953 0.054121,-0.06726 0.077539,-0.16658 0.079702,-0.281804 l -0.3058285,0.377107"
         fill-rule="evenodd"
         id="path610"
         style="font-style:normal;font-weight:400;font-size:29.1042px;font-family:'MS Shell Dlg 2';fill:#c17d11;fill-opacity:1;stroke:#000000;stroke-width:0.396875;stroke-miterlimit:4;stroke-dasharray:none;stroke-opacity:1" />
    </g>
    <g
       id="g4708"
       style="stroke-width:0.396875;stroke-miterlimit:4;stroke-dasharray:none">
      <path
         style="display:inline;fill:#729fcf;stroke:#000000;stroke-width:0.396875;stroke-linecap:butt;stroke-linejoin:miter;stroke-miterlimit:4;stroke-dasharray:none;stroke-opacity:1"
         d="m 42.171677,25.35673 -0.06782,-0.58207 10.493472,0.190816 0.201229,1.258308 z"
         id="path21904" />
      <path
         style="display:inline;fill:#729fcf;stroke:#000000;stroke-width:0.396875;stroke-linecap:butt;stroke-linejoin:miter;stroke-miterlimit:4;stroke-dasharray:none;stroke-opacity:1"
         d="m 40.859818,17.152122 9.824581,-4.150442 -0.201191,-1.258308 -9.717059,4.822949 c 0.03044,0.190354 0.06167,0.385621 0.09367,0.585801"
         id="path20712" />
      <path
         d="m 42.750353,18.801703 -6.678471,2.049409 c 0.303703,-0.477247 0.634732,-0.959183 1.003336,-1.404672 0.231326,-0.278837 0.477378,-0.543883 0.742748,-0.771532 0.204228,-0.173698 0.419082,-0.329858 0.719692,-0.463651 l 8.298987,-3.76796"
         fill-rule="evenodd"
         id="path1830"
         style="font-style:normal;font-weight:400;font-size:29.1042px;font-family:'MS Shell Dlg 2';fill:#729fcf;stroke:#000000;stroke-width:0.396875;stroke-linecap:round;stroke-linejoin:bevel;stroke-miterlimit:4;stroke-dasharray:none;stroke-opacity:1" />
      <path
         d="m 43.34292,22.50778 -6.911316,0.59313 c 0.397448,0.306248 0.81763,0.607306 1.258307,0.870946 0.284879,0.170096 0.578448,0.325166 0.878584,0.447297 0.145665,0.05964 0.292697,0.109742 0.440981,0.15034 0.160543,0.04332 0.32249,0.07463 0.484209,0.08212 l 8.893433,0.410632"
         fill-rule="evenodd"
         id="path1822"
         style="font-style:normal;font-weight:400;font-size:29.1042px;font-family:'MS Shell Dlg 2';fill:#729fcf;stroke:#000000;stroke-width:0.396875;stroke-linecap:round;stroke-linejoin:bevel;stroke-miterlimit:4;stroke-dasharray:none;stroke-opacity:1" />
      <path
         d="M 46.076173,6.1777139 C 45.417985,5.6144389 44.767008,4.9670785 44.140625,4.3411476 43.533712,3.7336326 42.947901,3.1370834 42.385849,2.5703763 41.435647,1.6113271 40.553382,0.73690731 39.737953,-0.03831785 L 34.243172,9.4141806 c 0.548313,0.5210859 1.151241,1.1214024 1.814325,1.7925774 0.311104,0.314535 0.63534,0.643928 0.971987,0.979474 0.342795,0.341573 0.698874,0.691182 1.061329,1.001406 l 7.98536,-7.0099241"
         fill-rule="evenodd"
         id="path322"
         style="font-style:normal;font-weight:400;font-size:29.1042px;font-family:'MS Shell Dlg 2';fill:#729fcf;fill-opacity:1;stroke:#000000;stroke-width:0.396875;stroke-miterlimit:4;stroke-dasharray:none;stroke-opacity:1" />
      <path
         d="m 52.103895,30.634013 c 0.02569,-0.0596 0.05101,-0.120206 0.07594,-0.181774 l 0.03712,-0.09312 c 0.01841,-0.04696 0.03659,-0.09447 0.0545,-0.142556 l 0.0134,-0.03616 c 0.129877,-0.352371 0.246735,-0.735715 0.342226,-1.147268 0.06942,-0.296287 0.124943,-0.603916 0.166502,-0.922804 0.08323,-0.646439 0.09636,-1.327994 0.005,-1.88654 l -10.626905,-0.86706 c 0.04676,0.286785 0.04843,0.623461 0.01784,0.955617 -0.02049,0.217098 -0.05215,0.426328 -0.09492,0.627689 -0.09819,0.466466 -0.240169,0.870192 -0.396765,1.211095 -0.295049,0.639827 -0.6435,1.072349 -0.992253,1.389605 l 9.677853,3.575319 c 0.551198,-0.500787 1.093818,-1.172046 1.557305,-2.125696 l 0.005,-0.01042 c 0.04725,-0.09752 0.09352,-0.19797 0.138795,-0.301392 v 0 l 0.01932,-0.04453"
         fill-rule="evenodd"
         id="path346"
         style="font-style:normal;font-weight:400;font-size:29.1042px;font-family:'MS Shell Dlg 2';fill:#729fcf;fill-opacity:1;stroke:#000000;stroke-width:0.396875;stroke-miterlimit:4;stroke-dasharray:none;stroke-opacity:1" />
      <path
         d="M 50.483209,11.743372 C 50.380583,11.084753 50.088721,10.322921 49.741334,9.6727564 49.626145,9.4572486 49.506098,9.2521626 49.381118,9.0574565 49.098896,8.6164378 48.800317,8.2333036 48.501737,7.9038685 48.128314,7.4926501 47.753714,7.1627127 47.387122,6.8966032 46.937525,6.5705583 46.498404,6.343122 46.076173,6.1777139 l -7.98536,7.0099241 c 0.423864,0.165701 0.882721,0.438633 1.355772,0.923682 0.244686,0.251628 0.494609,0.5633 0.725859,0.94561 0.151168,0.249832 0.293797,0.533295 0.405456,0.828326 0.08756,0.230989 0.154167,0.464293 0.188249,0.681065 l 9.71706,-4.822949"
         fill-rule="evenodd"
         id="path370"
         style="font-style:normal;font-weight:400;font-size:29.1042px;font-family:'MS Shell Dlg 2';fill:#729fcf;fill-opacity:1;stroke:#000000;stroke-width:0.396875;stroke-miterlimit:4;stroke-dasharray:none;stroke-opacity:1" />
      <path
         d="m 46.35532,41.34779 c 0.611392,-1.204022 1.265898,-2.57023 1.97278,-4.072088 0.329284,-0.698338 0.67022,-1.424343 1.02554,-2.16102 0.32712,-0.6785 0.667714,-1.364199 1.029789,-1.998626 l -9.677853,-3.575319 c -0.223432,0.391588 -0.431758,0.812015 -0.631014,1.225451 l 6.604311,3.112537 c 0.04607,0.299927 0.09094,0.624926 0.129497,0.981776 0.05792,0.538874 0.102474,1.149528 0.10551,1.864566 0.0011,0.722615 -0.03492,1.551372 -0.191892,2.535282 -0.05219,0.328933 -0.121641,0.676533 -0.208326,1.042758 -0.0726,0.303653 -0.158759,0.620867 -0.267306,0.953022 l 0.108964,0.09166"
         fill-rule="evenodd"
         id="path402"
         style="font-style:normal;font-weight:400;font-size:29.1042px;font-family:'MS Shell Dlg 2';fill:#729fcf;fill-opacity:1;stroke:#000000;stroke-width:0.396875;stroke-miterlimit:4;stroke-dasharray:none;stroke-opacity:1" />
      <path
         d="m 43.34292,22.50778 -0.114733,-0.717554 v 0 l -0.3631,-2.270972 v 0 l -0.114734,-0.717551 -6.678471,2.049409 0.359722,2.249798 6.911316,-0.59313"
         fill-rule="evenodd"
         id="path410"
         style="font-style:normal;font-weight:400;font-size:29.1042px;font-family:'MS Shell Dlg 2';fill:#729fcf;fill-opacity:1;stroke:#000000;stroke-width:0.396875;stroke-miterlimit:4;stroke-dasharray:none;stroke-opacity:1" />
      <path
         d="M 39.441689,-1.8913747 39.737953,-0.03831785 34.243172,9.4141806 34.063311,8.2892628 39.441689,-1.8913747"
         fill-rule="evenodd"
         id="path434"
         style="font-style:normal;font-weight:400;font-size:29.1042px;font-family:'MS Shell Dlg 2';fill:#729fcf;fill-opacity:1;stroke:#000000;stroke-width:0.396875;stroke-miterlimit:4;stroke-dasharray:none;stroke-opacity:1" />
      <path
         d="m 50.007349,15.033877 c 0.248443,-0.09294 0.46455,-0.278135 0.597614,-0.611747 0.133179,-0.333997 0.177471,-0.820428 0.07944,-1.420451 l -3.309234,1.300287 c 0.420182,0.239114 0.999427,0.539138 1.401126,0.667476 0.19546,0.06328 0.385379,0.105582 0.569757,0.126919 0.235691,0.02602 0.459843,0.01182 0.6613,-0.06248"
         fill-rule="evenodd"
         id="path506"
         style="font-style:normal;font-weight:400;font-size:29.1042px;font-family:'MS Shell Dlg 2';fill:#729fcf;fill-opacity:1;stroke:#000000;stroke-width:0.396875;stroke-miterlimit:4;stroke-dasharray:none;stroke-opacity:1" />
      <path
         d="m 52.597328,24.965477 c -0.08991,-0.574618 -0.269849,-1.002787 -0.485652,-1.269399 -0.235159,-0.290552 -0.507247,-0.391421 -0.780816,-0.38485 -0.194055,0.0056 -0.390426,0.06563 -0.585621,0.162395 -0.214626,0.106728 -0.427886,0.255897 -0.63811,0.434447 -0.307499,0.261171 -0.608773,0.587383 -0.901887,0.937578 l 3.392086,0.119829"
         fill-rule="evenodd"
         id="path522"
         style="font-style:normal;font-weight:400;font-size:29.1042px;font-family:'MS Shell Dlg 2';fill:#729fcf;fill-opacity:1;stroke:#000000;stroke-width:0.396875;stroke-miterlimit:4;stroke-dasharray:none;stroke-opacity:1" />
      <path
         d="m 46.35532,41.34779 0.157659,0.986003 0.138643,0.867054 -0.859303,-0.788828 c 0.186883,-0.404689 0.334294,-0.789456 0.454037,-1.15589 l 0.108964,0.09166"
         fill-rule="evenodd"
         id="path578"
         style="font-style:normal;font-weight:400;font-size:29.1042px;font-family:'MS Shell Dlg 2';fill:#729fcf;fill-opacity:1;stroke:#000000;stroke-width:0.396875;stroke-miterlimit:4;stroke-dasharray:none;stroke-opacity:1" />
      <path
         d="M 53.758209,32.225648 C 54.840071,27.737026 55.02164,23.042314 54.290315,18.468409 53.558991,13.894515 51.932308,9.5514208 49.524828,5.7542322 49.513803,5.7777124 49.369087,5.6103371 49.154878,5.3532262 49.041625,5.2171998 48.909091,5.0560189 48.7654,4.8814447 48.502003,4.5614268 48.202968,4.199136 47.893306,3.8307346 47.412247,3.2578749 46.90591,2.6712452 46.402876,2.1101466 46.006187,1.6674537 45.609612,1.2379032 45.221538,0.83275364 44.679487,0.34134242 44.166509,-0.05095784 43.679301,-0.37365442 c -0.529184,-0.35061339 -1.0296,-0.62212217 -1.504435,-0.83407228 -1.019618,-0.4539098 -1.922302,-0.6398684 -2.733177,-0.683648 l 0.296264,1.85305685 c 0.815429,0.77522516 1.697694,1.64964495 2.647896,2.60869415 0.562052,0.5667071 1.147863,1.1632563 1.754776,1.7707713 0.626383,0.6259309 1.27736,1.2732913 1.935548,1.8365663 0.422231,0.1654081 0.861352,0.3928444 1.310949,0.7188893 0.366592,0.2661095 0.741192,0.5960469 1.114615,1.0072653 0.29858,0.3294351 0.597159,0.7125693 0.879381,1.153588 0.12498,0.1947061 0.245027,0.3997921 0.360216,0.6152999 0.347387,0.6501646 0.639249,1.4119966 0.741875,2.0706156 l 0.201191,1.258307 c 0.09803,0.600023 0.05374,1.086454 -0.07944,1.420451 -0.133064,0.333612 -0.349171,0.518805 -0.597614,0.611747 -0.201457,0.07431 -0.425609,0.0885 -0.6613,0.06248 -0.184378,-0.02134 -0.374297,-0.06364 -0.569757,-0.126919 -0.452328,-0.144502 -0.928302,-0.390413 -1.401126,-0.667476 -0.235007,0.029 -0.460375,0.09827 -0.677089,0.196795 -0.35475,0.162257 -0.687374,0.39821 -1.005955,0.662729 -0.447774,0.374613 -0.864958,0.818289 -1.258611,1.289803 -0.614162,0.737372 -1.170445,1.544633 -1.683158,2.35041 l 0.592567,3.706077 c 0.788596,0.607486 1.625507,1.198301 2.499346,1.679626 0.516812,0.28373 1.046451,0.528954 1.582316,0.692228 0.319681,0.09647 0.641944,0.167542 0.962536,0.18261 0.234173,0.01084 0.467434,-0.0091 0.69728,-0.07044 0.33103,-0.405191 0.6728,-0.786526 1.022731,-1.083733 0.210224,-0.17855 0.423484,-0.327719 0.63811,-0.434447 0.195195,-0.09677 0.391566,-0.156787 0.585621,-0.162395 0.273569,-0.0066 0.545657,0.0943 0.780816,0.38485 0.215803,0.266612 0.39574,0.694781 0.485652,1.269399 l 0.201229,1.258307 c 0.09139,0.558546 0.07826,1.240101 -0.005,1.88654 -0.04156,0.318888 -0.09708,0.626517 -0.166502,0.922804 -0.125664,0.541511 -0.288104,1.033382 -0.468762,1.471764 -0.280856,0.679253 -0.604522,1.234995 -0.944585,1.693257 -0.268217,0.360784 -0.548123,0.660838 -0.830307,0.917907 -0.362075,0.634427 -0.702669,1.320126 -1.029789,1.998626 -0.35532,0.736677 -0.696256,1.462682 -1.02554,2.16102 -0.706882,1.501858 -1.361388,2.868066 -1.97278,4.072088 l 0.157659,0.986003 0.138643,0.867054 c 0.643766,-0.298128 1.318502,-0.721777 2.014947,-1.349717 0.411946,-0.371959 0.831445,-0.815782 1.254816,-1.356163 0.437033,-0.558211 0.879114,-1.217332 1.316641,-2.033993 0.292659,-0.645226 0.585925,-1.330004 0.871714,-2.028133 0.233072,-0.569009 0.462007,-1.150282 0.678949,-1.717658 0.173409,-0.453157 0.339569,-0.89857 0.487473,-1.297358 0.06555,-0.177002 0.126537,-0.341363 0.182974,-0.493169 0.159898,-0.428839 0.275921,-0.730483 0.293569,-0.723786"
         fill-rule="evenodd"
         id="path1626"
         style="font-style:normal;font-weight:400;font-size:29.1042px;font-family:'MS Shell Dlg 2';fill:#729fcf;stroke:#000000;stroke-width:0.396875;stroke-linecap:round;stroke-linejoin:bevel;stroke-miterlimit:4;stroke-dasharray:none;stroke-opacity:1" />
    </g>
  </g>
  <metadata
     id="metadata27907">
    <rdf:RDF>
      <cc:Work
         rdf:about="">
        <dc:title>FreeCAD SVG Export</dc:title>
      </cc:Work>
    </rdf:RDF>
  </metadata>
</svg>
