<?xml version="1.0" encoding="UTF-8" standalone="no"?>
<svg
   version="1.1"
   width="24"
   height="24"
   id="svg8"
   xmlns="http://www.w3.org/2000/svg"
   xmlns:svg="http://www.w3.org/2000/svg"
   xmlns:rdf="http://www.w3.org/1999/02/22-rdf-syntax-ns#"
   xmlns:cc="http://creativecommons.org/ns#"
   xmlns:dc="http://purl.org/dc/elements/1.1/">
  <metadata
     id="metadata14">
    <rdf:RDF>
      <cc:Work
         rdf:about="">
        <dc:format>image/svg+xml</dc:format>
        <dc:type
           rdf:resource="http://purl.org/dc/dcmitype/StillImage" />
      </cc:Work>
    </rdf:RDF>
  </metadata>
  <defs
     id="defs12" />
  <g
     transform="matrix(1.0634923,-1.0634889,1.0634923,1.0634889,-2.5872493,14.888835)"
     id="g6"
     style="stroke:none;stroke-width:0.0664892;stroke-miterlimit:4;stroke-dasharray:none;stroke-opacity:1">
    <path
       d="m 12.190032,3.9665098 q 0.01705,0.043094 0.03085,0.070694 c 0.0138,0.0276 0.0215,0.041162 0.03816,0.067308 0.01667,0.026145 0.02577,0.038917 0.04517,0.063419 0.0194,0.024502 0.02984,0.036395 0.05182,0.059088 0.02198,0.022693 0.03368,0.033632 0.05809,0.054376 0.02441,0.020744 0.03728,0.030666 0.06397,0.049346 0.02669,0.018679 0.04065,0.027534 0.06947,0.044052 0.02881,0.016518 0.0438,0.024263 0.0746,0.038539 0.03079,0.014275 0.04673,0.020874 0.07937,0.032837 0.03264,0.011961 0.04946,0.017385 0.08381,0.026972 0.03435,0.00959 0.052,0.013806 0.08794,0.02096 0.03594,0.00716 0.05435,0.010136 0.09176,0.01481 0.03741,0.00467 0.05653,0.0064 0.09529,0.00852 0.03876,0.00213 0.05852,0.00258 0.09852,0.00212 0.04,-4.56e-4 0.06035,-0.00131 0.101464,-0.0044 0.04112,-0.00309 0.062,-0.00528 0.104121,-0.011049 0.04212,-0.00577 0.06348,-0.00932 0.106489,-0.017808 0.04301,-0.0085 0.0645,-0.013331 0.108563,-0.024674 q 0.04406,-0.011344 0.111723,-0.032016 0.05476,-0.00473 0.0913,-0.00503 c 0.03654,-3.137e-4 0.05464,9.024e-4 0.0914,0.00346 0.03676,0.00256 0.05529,0.00462 0.0924,0.00936 0.03712,0.00475 0.05578,0.00772 0.09318,0.014383 0.0374,0.00666 0.05618,0.010512 0.0938,0.018916 0.03762,0.0084 0.05649,0.013076 0.0943,0.023127 0.03779,0.010042 0.05675,0.015504 0.09469,0.027113 0.03794,0.011613 0.05695,0.017822 0.09498,0.030934 0.03803,0.013116 0.0571,0.020057 0.0952,0.034624 0.0381,0.014567 0.05719,0.022226 0.09532,0.038211 0.03814,0.015985 0.05723,0.024343 0.09537,0.041716 0.03814,0.017374 0.05723,0.026416 0.09534,0.045153 0.03811,0.018737 0.05718,0.028453 0.09525,0.048531 0.03806,0.020078 0.0571,0.030458 0.09507,0.051859 0.03798,0.021401 0.05696,0.032436 0.09483,0.055143 0.03787,0.022706 0.05679,0.034391 0.09452,0.058389 0.03774,0.023997 0.05657,0.036324 0.09415,0.061599 0.03756,0.025275 0.05632,0.038237 0.09369,0.064778 q 0.03737,0.026541 0.09318,0.067929 a 7.3836858,7.3836858 0 0 1 0,0.7603583 q -0.05581,0.041386 -0.09318,0.067929 c -0.03738,0.026541 -0.05613,0.039503 -0.09369,0.064778 -0.03756,0.025275 -0.05641,0.037602 -0.09415,0.061599 -0.03774,0.023997 -0.05665,0.035682 -0.09452,0.058389 -0.03787,0.022707 -0.05685,0.033742 -0.09483,0.055143 -0.03798,0.021401 -0.05701,0.031781 -0.09507,0.051859 -0.03807,0.020078 -0.05714,0.029794 -0.09525,0.048531 -0.03813,0.018737 -0.0572,0.027779 -0.09534,0.045153 -0.03814,0.017374 -0.05723,0.025732 -0.09537,0.041716 -0.03814,0.015986 -0.05722,0.023645 -0.09532,0.038211 -0.0381,0.014567 -0.05716,0.021512 -0.0952,0.034624 -0.03803,0.013116 -0.05706,0.019324 -0.09498,0.030934 -0.03794,0.011613 -0.05689,0.017066 -0.09469,0.027113 -0.03779,0.010042 -0.05668,0.014719 -0.0943,0.023127 -0.03762,0.0084 -0.0564,0.012257 -0.0938,0.018916 -0.0374,0.00666 -0.05606,0.00964 -0.09318,0.014384 -0.03712,0.00475 -0.05564,0.00679 -0.0924,0.00936 -0.03676,0.00256 -0.05486,0.00379 -0.0914,0.00346 q -0.03654,-3.138e-4 -0.0913,-0.00503 -0.06767,-0.020677 -0.111723,-0.032016 c -0.04406,-0.011344 -0.06555,-0.016177 -0.108563,-0.024674 -0.04301,-0.0085 -0.06437,-0.012042 -0.106489,-0.017808 -0.04212,-0.00577 -0.06301,-0.00796 -0.104121,-0.011049 -0.04112,-0.00309 -0.06147,-0.00395 -0.101464,-0.0044 -0.04,-4.56e-4 -0.05976,-7e-6 -0.09852,0.00212 -0.03876,0.00213 -0.05788,0.00387 -0.09529,0.00852 -0.03741,0.00467 -0.05582,0.00765 -0.09176,0.01481 -0.03594,0.00716 -0.05359,0.011371 -0.08794,0.02096 -0.03435,0.00959 -0.05118,0.01501 -0.08381,0.026972 -0.03264,0.011961 -0.04858,0.018561 -0.07937,0.032837 -0.03079,0.014275 -0.04578,0.022019 -0.0746,0.038539 -0.02881,0.016518 -0.04278,0.025373 -0.06947,0.044053 -0.02669,0.018679 -0.03956,0.028602 -0.06397,0.049346 -0.02441,0.020744 -0.03611,0.031683 -0.05809,0.054376 -0.02198,0.022692 -0.03242,0.034587 -0.05182,0.059088 -0.0194,0.024502 -0.0285,0.037274 -0.04517,0.063419 -0.01667,0.026145 -0.02436,0.039708 -0.03816,0.067308 q -0.0138,0.0276 -0.03085,0.070694 a 4.3630871,4.3630871 0 0 1 0.03006,-0.082579 q -0.01464,0.043971 -0.02181,0.073987 c -0.0072,0.030015 -0.01,0.045351 -0.01403,0.076094 -0.004,0.030742 -0.0053,0.046378 -0.0062,0.077616 -8.9e-4,0.031237 -5.38e-4,0.047058 0.0017,0.078572 0.0023,0.031512 0.0042,0.04741 0.0095,0.078992 0.0054,0.031582 0.0088,0.047456 0.01728,0.078919 0.0084,0.031464 0.01344,0.047225 0.0249,0.078399 0.01145,0.031174 0.01796,0.046741 0.03237,0.077471 0.01441,0.030728 0.02238,0.046031 0.03969,0.076174 0.01731,0.030142 0.02672,0.045113 0.04687,0.074536 0.02015,0.029423 0.03096,0.044 0.05389,0.072583 0.02293,0.028582 0.03512,0.042705 0.06077,0.070326 0.02566,0.027622 0.03919,0.041235 0.06751,0.067781 0.02832,0.026546 0.04317,0.039593 0.0741,0.064952 0.03093,0.02536 0.04707,0.037784 0.08056,0.061846 0.03348,0.024061 0.05089,0.03581 0.08686,0.058464 0.03598,0.022654 0.05461,0.033671 0.09302,0.054808 0.03841,0.021138 0.05799,0.031248 0.09902,0.050882 q 0.04104,0.019634 0.106164,0.047289 0.04498,0.031579 0.07318,0.054826 c 0.02819,0.023248 0.04128,0.035815 0.06779,0.061409 0.02651,0.025596 0.03939,0.039072 0.06477,0.066567 0.02538,0.027495 0.03777,0.041774 0.06213,0.070913 0.02437,0.029139 0.03628,0.04416 0.0597,0.074782 0.02341,0.030622 0.03487,0.046335 0.05737,0.078327 0.02249,0.031992 0.03351,0.048356 0.05511,0.081633 0.0216,0.033276 0.03217,0.050257 0.05288,0.08475 0.02071,0.034493 0.03084,0.05206 0.05067,0.087713 0.01983,0.035651 0.02952,0.053783 0.04846,0.090544 0.01894,0.036761 0.02819,0.055434 0.04624,0.093261 0.01805,0.037827 0.02686,0.057022 0.04402,0.095878 0.01716,0.038856 0.02552,0.058554 0.04177,0.098403 0.01626,0.039849 0.02416,0.060033 0.0395,0.1008423 0.01534,0.040809 0.02279,0.061465 0.03721,0.1032025 0.01442,0.041738 0.0214,0.06285 0.03488,0.1054887 0.01348,0.042639 0.01999,0.064192 0.03253,0.1077038 0.01254,0.04351 0.01857,0.065495 0.03014,0.1098504 q 0.01157,0.044356 0.02772,0.11193 a 7.3836858,7.3836858 0 0 1 -0.488749,0.5824692 q -0.06935,-0.0042 -0.115043,-0.0079 c -0.04569,-0.0037 -0.06839,-0.0058 -0.113415,-0.0106 -0.04503,-0.0048 -0.06738,-0.0075 -0.111715,-0.01333 -0.04433,-0.0059 -0.06634,-0.0091 -0.109943,-0.01603 -0.04361,-0.007 -0.06524,-0.0107 -0.108096,-0.01872 -0.04285,-0.008 -0.0641,-0.0123 -0.10617,-0.02139 -0.04206,-0.0091 -0.06292,-0.0139 -0.104161,-0.02405 -0.04124,-0.01015 -0.06168,-0.01549 -0.102065,-0.0267 -0.04039,-0.01121 -0.06038,-0.01708 -0.09988,-0.02935 -0.03949,-0.01227 -0.05903,-0.01867 -0.09758,-0.032 -0.03855,-0.01333 -0.05762,-0.02026 -0.09518,-0.03467 -0.03756,-0.01441 -0.05612,-0.02187 -0.09264,-0.03736 -0.03652,-0.01549 -0.05455,-0.02349 -0.08996,-0.04009 -0.03541,-0.0166 -0.05288,-0.02516 -0.0871,-0.04289 -0.03422,-0.01774 -0.05109,-0.02687 -0.08401,-0.0458 -0.03293,-0.01894 -0.04914,-0.02865 -0.08062,-0.04888 -0.03149,-0.02022 -0.04699,-0.03056 -0.0768,-0.05222 -0.02981,-0.02166 -0.04446,-0.032369 -0.07225,-0.056096 q -0.02779,-0.023729 -0.0667,-0.062544 -0.03854,-0.059335 -0.06501,-0.09634 c -0.02647,-0.036992 -0.03982,-0.054516 -0.06731,-0.088671 -0.02749,-0.034155 -0.04157,-0.050594 -0.07013,-0.082091 -0.02856,-0.031497 -0.04315,-0.046595 -0.07266,-0.075392 -0.02951,-0.028797 -0.04455,-0.042535 -0.07489,-0.068593 -0.03035,-0.026058 -0.04577,-0.038417 -0.07683,-0.061699 -0.03106,-0.023283 -0.04682,-0.034243 -0.07847,-0.054713 -0.03166,-0.02047 -0.04768,-0.030015 -0.07981,-0.047637 -0.03213,-0.017621 -0.04836,-0.025734 -0.08084,-0.040471 -0.03248,-0.014736 -0.04885,-0.021398 -0.08154,-0.033213 -0.03269,-0.011814 -0.04914,-0.017007 -0.08191,-0.025864 -0.03276,-0.00886 -0.04923,-0.012566 -0.08191,-0.018427 -0.03269,-0.00587 -0.04908,-0.00807 -0.08153,-0.010901 -0.03245,-0.00285 -0.04869,-0.00352 -0.08072,-0.00332 -0.03203,2e-4 -0.04802,0.00106 -0.07945,0.00432 -0.03143,0.00325 -0.04707,0.00565 -0.07768,0.011961 -0.03061,0.0063 -0.04579,0.01023 -0.07537,0.019549 -0.02957,0.00932 -0.04419,0.014758 -0.0725,0.02703 q -0.02832,0.01227 -0.06908,0.034323 a 4.3630871,4.3630871 0 0 1 0.07611,-0.04394 q -0.03948,0.024273 -0.06426,0.04266 c -0.02478,0.018387 -0.0368,0.02832 -0.05966,0.049273 -0.02285,0.020953 -0.03385,0.032138 -0.05461,0.055494 -0.02076,0.023357 -0.03066,0.035704 -0.04919,0.061291 -0.01853,0.025588 -0.02727,0.039005 -0.04346,0.066646 -0.01619,0.027643 -0.02373,0.04204 -0.03749,0.071565 -0.01376,0.029525 -0.020057,0.044818 -0.03132,0.076061 -0.011263,0.031242 -0.016288,0.04735 -0.025,0.080155 -0.00871,0.032805 -0.012445,0.049649 -0.018555,0.083868 -0.00611,0.034219 -0.00854,0.051731 -0.012002,0.087224 -0.00348,0.035494 -0.00456,0.053607 -0.00537,0.090243 -8.044e-4,0.03664 -5.5e-4,0.05529 0.00134,0.09294 0.00189,0.03765 0.00352,0.05678 0.00815,0.09532 0.00463,0.03854 0.00763,0.05808 0.015016,0.09739 0.0074,0.03931 0.011774,0.0592 0.021956,0.09916 0.01019,0.03996 0.015963,0.06014 0.028962,0.100621 0.012995,0.04048 0.020192,0.0609 0.036028,0.101778 0.01584,0.04088 0.02433,0.06121 0.04315,0.102629 q 0.01882,0.04142 0.05093,0.104467 0.01416,0.05311 0.02081,0.08904 c 0.0067,0.03593 0.0086,0.05397 0.01246,0.09062 0.0039,0.03665 0.0051,0.05525 0.0068,0.09263 0.0018,0.03738 0.0021,0.05628 0.002,0.09426 -6.5e-5,0.03798 -5.91e-4,0.05715 -0.0023,0.09566 -0.0017,0.03851 -0.0031,0.05791 -0.0064,0.09688 -0.0033,0.03897 -0.0054,0.05858 -0.01026,0.09795 -0.0048,0.03937 -0.0077,0.05918 -0.01397,0.09891 -0.0063,0.03974 -0.0098,0.0597 -0.01757,0.09976 -0.0077,0.04006 -0.01196,0.06017 -0.02108,0.100512 -0.0091,0.04034 -0.01404,0.06059 -0.02452,0.10117 -0.01048,0.04058 -0.01608,0.06095 -0.02791,0.101747 -0.01183,0.0408 -0.01809,0.06126 -0.03125,0.102231 -0.01316,0.04097 -0.020081,0.06151 -0.03456,0.102633 -0.014479,0.04112 -0.022052,0.06173 -0.037837,0.102969 -0.015785,0.04124 -0.024006,0.0619 -0.041087,0.103224 -0.01708,0.04132 -0.025948,0.06202 -0.044315,0.103411 -0.018368,0.04139 -0.027876,0.0621 -0.047524,0.10352 q -0.019647,0.04142 -0.050715,0.103559 a 7.3836858,7.3836858 0 0 1 -0.7488068,0.132034 q -0.050448,-0.04777 -0.083076,-0.07997 c -0.032628,-0.03219 -0.048649,-0.04841 -0.080065,-0.08102 -0.031415,-0.03261 -0.046826,-0.04903 -0.077012,-0.08201 -0.030186,-0.033 -0.044977,-0.04959 -0.073916,-0.08295 -0.028937,-0.03335 -0.043103,-0.05013 -0.070773,-0.08382 -0.027671,-0.0337 -0.041198,-0.05063 -0.067581,-0.08463 -0.026383,-0.03401 -0.039262,-0.05108 -0.064333,-0.08537 -0.025071,-0.03429 -0.03729,-0.05151 -0.061024,-0.08607 -0.023734,-0.03454 -0.035279,-0.0519 -0.057644,-0.08668 -0.022366,-0.03478 -0.033221,-0.05225 -0.054184,-0.08723 -0.020962,-0.035 -0.031111,-0.05256 -0.050628,-0.08773 -0.019517,-0.03519 -0.028936,-0.05283 -0.046956,-0.08817 -0.01802,-0.03533 -0.026685,-0.05306 -0.043144,-0.08854 -0.016459,-0.03548 -0.024337,-0.05326 -0.03915,-0.08885 -0.014813,-0.03559 -0.021864,-0.05342 -0.034916,-0.08909 -0.013049,-0.03567 -0.019223,-0.05354 -0.030346,-0.08927 -0.011116,-0.03573 -0.016354,-0.05362 -0.025264,-0.08938 -0.00891,-0.03576 -0.01325,-0.05337 -0.019288,-0.08941 q -0.00604,-0.03604 -0.010888,-0.09079 0.00862,-0.07023 0.012123,-0.115586 c 0.00352,-0.04536 0.00455,-0.06737 0.00545,-0.111198 8.984e-4,-0.04383 6.762e-4,-0.06548 -9.545e-4,-0.107963 -0.00162,-0.04248 -0.0031,-0.06343 -0.0072,-0.104458 -0.00409,-0.04103 -0.00678,-0.06122 -0.013277,-0.100686 -0.0065,-0.03947 -0.010364,-0.05885 -0.019199,-0.09665 -0.00883,-0.0378 -0.013853,-0.05632 -0.024946,-0.09235 -0.011089,-0.03603 -0.017232,-0.05364 -0.030519,-0.08779 -0.013291,-0.03415 -0.020507,-0.0508 -0.035912,-0.08296 -0.015405,-0.03216 -0.02367,-0.04779 -0.041116,-0.07786 -0.017447,-0.03006 -0.026715,-0.04462 -0.046121,-0.07246 -0.019406,-0.02785 -0.029635,-0.04126 -0.050906,-0.06677 -0.02127,-0.02551 -0.032416,-0.03772 -0.055446,-0.06076 C 7.6900577,9.986339 7.6780517,9.975388 7.6533827,9.954949 7.6287147,9.934511 7.6159107,9.924893 7.5897457,9.907186 7.5635807,9.88948 7.5500547,9.881264 7.5225577,9.866416 7.4950607,9.851568 7.4809007,9.844819 7.4522587,9.832946 7.4236167,9.821078 7.4089247,9.815849 7.3793457,9.807049 Q 7.3497677,9.798239 7.3043677,9.788942 a 4.3630871,4.3630871 0 0 1 0.086545,0.01526 q -0.045845,-0.00678 -0.076649,-0.00863 c -0.030805,-0.00185 -0.046396,-0.00196 -0.077373,-6.022e-4 -0.030977,0.00136 -0.04659,0.00286 -0.077507,0.00741 -0.030918,0.00455 -0.046438,0.00764 -0.07708,0.015331 -0.030644,0.00769 -0.045964,0.012351 -0.076135,0.023116 -0.030171,0.010767 -0.045199,0.016953 -0.07472,0.030726 -0.029521,0.013772 -0.044172,0.021441 -0.072884,0.038133 -0.028712,0.016692 -0.042914,0.025803 -0.070673,0.045332 -0.027759,0.019531 -0.041445,0.030036 -0.068123,0.05232 -0.026678,0.02228 -0.039789,0.03414 -0.065265,0.0591 -0.025478,0.02496 -0.037956,0.03813 -0.062121,0.06568 -0.024165,0.02755 -0.035959,0.042 -0.058706,0.07206 -0.022747,0.03006 -0.033804,0.04575 -0.055029,0.07825 -0.021225,0.0325 -0.031495,0.04939 -0.051098,0.08426 -0.019603,0.03487 -0.029035,0.05292 -0.046917,0.09007 -0.017882,0.03715 -0.026428,0.05633 -0.042491,0.0957 -0.016063,0.03936 -0.023675,0.05963 -0.037823,0.101125 -0.014147,0.0415 -0.020704,0.06253 -0.032914,0.106355 q -0.012203,0.04382 -0.028136,0.112762 -0.023288,0.04978 -0.041287,0.08159 c -0.017999,0.0318 -0.028102,0.04687 -0.048705,0.07742 -0.020603,0.03055 -0.031638,0.04557 -0.054309,0.07534 -0.022671,0.02977 -0.034581,0.04445 -0.059045,0.0735 -0.024465,0.02906 -0.037188,0.0434 -0.06328,0.07177 -0.026091,0.02837 -0.039575,0.04239 -0.067175,0.0701 -0.0276,0.02771 -0.041802,0.0414 -0.070823,0.06844 -0.02902,0.02705 -0.043907,0.04041 -0.07428,0.06679 -0.030373,0.02638 -0.045915,0.03941 -0.077581,0.06513 -0.031667,0.02572 -0.04784,0.03841 -0.080753,0.06345 -0.032914,0.02504 -0.049696,0.03739 -0.083814,0.06174 -0.034118,0.02435 -0.051491,0.03636 -0.086778,0.06 -0.035286,0.02364 -0.053234,0.03529 -0.089654,0.05822 -0.03642,0.02293 -0.054925,0.03422 -0.09245,0.05641 -0.037525,0.02219 -0.056574,0.03312 -0.095174,0.05456 -0.038601,0.02145 -0.058179,0.03199 -0.09783,0.05267 -0.03965,0.02069 -0.059746,0.03084 -0.1004195,0.05073 -0.040673,0.0199 -0.061275,0.02966 -0.1029474,0.04876 q -0.041673,0.01909 -0.1054175,0.04673 A 7.3836858,7.3836858 0 0 1 4.0890566,11.69587 q -0.00793,-0.06902 -0.012244,-0.114662 c -0.0043,-0.04564 -0.00615,-0.06836 -0.00925,-0.113532 -0.0031,-0.04517 -0.00436,-0.06765 -0.00627,-0.112332 -0.00192,-0.04468 -0.00258,-0.06691 -0.0033,-0.111058 -7.276e-4,-0.04415 -7.943e-4,-0.06611 -3.358e-4,-0.109704 4.588e-4,-0.04359 9.842e-4,-0.06527 0.00263,-0.10827 0.00165,-0.04301 0.00277,-0.06437 0.0056,-0.106755 0.00283,-0.04238 0.00455,-0.06343 0.00857,-0.10515 0.00403,-0.04172 0.00634,-0.06243 0.011559,-0.103455 0.00522,-0.04102 0.00814,-0.06138 0.014569,-0.101657 0.00643,-0.04028 0.00995,-0.06026 0.017612,-0.09975 0.00767,-0.03949 0.011787,-0.05907 0.020702,-0.09772 0.00891,-0.03866 0.013665,-0.0578 0.023861,-0.09556 0.01019,-0.03776 0.01559,-0.05644 0.027118,-0.09322 0.011532,-0.03678 0.017588,-0.05497 0.030517,-0.09069 0.012928,-0.03572 0.019688,-0.05337 0.034133,-0.08789 0.014445,-0.03452 0.021938,-0.051586 0.038096,-0.084705 0.016158,-0.033119 0.024157,-0.049404 0.042698,-0.080892 Q 4.3538638,9.84738 4.3853338,9.802321 4.4370748,9.75406 4.4689208,9.721573 c 0.031848,-0.032485 0.046786,-0.048681 0.075649,-0.081681 0.028863,-0.033 0.042606,-0.049724 0.068667,-0.083318 0.026059,-0.033593 0.038394,-0.050584 0.06163,-0.084647 0.023235,-0.034063 0.034153,-0.051259 0.054545,-0.085668 0.020394,-0.034409 0.029885,-0.051747 0.047419,-0.086381 0.017536,-0.034632 0.025593,-0.052052 0.040254,-0.086782 0.014661,-0.03473 0.02128,-0.052169 0.033053,-0.086871 0.011774,-0.034702 0.016945,-0.052095 0.025819,-0.086638 0.00887,-0.034542 0.012593,-0.051825 0.018549,-0.086071 0.00596,-0.034246 0.00822,-0.051352 0.01125,-0.085157 0.00303,-0.033805 0.00383,-0.050659 0.00392,-0.083871 C 4.9097771,8.751276 4.9090924,8.734753 4.9062558,8.702302 4.9034258,8.66985 4.9012658,8.653743 4.8955028,8.622231 4.8897428,8.590719 4.8861228,8.57512 4.8774558,8.544739 4.8687958,8.514357 4.8637138,8.499368 4.8521928,8.47032 4.8406748,8.441271 4.8341628,8.426999 4.8198538,8.399493 4.8055448,8.371987 4.7976468,8.358542 4.7806468,8.332788 Q 4.7636318,8.307029 4.7348368,8.270717 a 4.3630871,4.3630871 0 0 1 0.056488,0.067319 Q 4.7605648,8.303372 4.7381538,8.282157 C 4.7158208,8.26095 4.7039508,8.250838 4.6793478,8.231969 4.6547438,8.213101 4.6418198,8.204212 4.6152128,8.187823 4.5886058,8.171433 4.5747278,8.163828 4.5463108,8.150021 4.5178948,8.136215 4.5031638,8.129936 4.4731288,8.118791 4.4430948,8.107648 4.4276078,8.102725 4.3961398,8.094299 4.3646728,8.085869 4.3485208,8.082324 4.3157958,8.076663 c -0.032725,-0.00567 -0.049459,-0.00781 -0.083277,-0.0107 -0.033819,-0.00289 -0.051056,-0.00364 -0.085816,-0.00371 -0.03476,-7.79e-5 -0.052427,5.803e-4 -0.087985,0.00332 -0.035558,0.00274 -0.053585,0.00481 -0.089804,0.010377 -0.036219,0.00557 -0.054541,0.00906 -0.091291,0.017467 -0.036749,0.0084 -0.055304,0.013318 -0.092454,0.024574 -0.037152,0.01125 -0.055874,0.017591 -0.093303,0.031699 -0.037428,0.014108 -0.056258,0.021873 -0.093839,0.038841 -0.03758,0.016968 -0.056456,0.026165 -0.094063,0.045995 -0.037608,0.01983 -0.056465,0.030461 -0.093977,0.053154 -0.037511,0.022695 -0.056054,0.034593 -0.093577,0.060317 q -0.037523,0.025722 -0.094036,0.068296 -0.04984,0.023167 -0.084069,0.035959 c -0.034229,0.012794 -0.051655,0.01784 -0.087078,0.028003 -0.035423,0.010163 -0.053532,0.014575 -0.090034,0.022808 -0.036502,0.00823 -0.055061,0.011827 -0.092479,0.018353 -0.037418,0.00654 -0.056385,0.00934 -0.094611,0.014305 -0.038226,0.00497 -0.057563,0.00703 -0.096517,0.010512 -0.038952,0.00349 -0.058632,0.00485 -0.098247,0.0069 -0.039617,0.00207 -0.059608,0.00273 -0.099834,0.00342 -0.040226,6.882e-4 -0.060507,6.791e-4 -0.1012947,2.26e-5 -0.040787,-6.565e-4 -0.061337,-0.00133 -0.1026427,-0.0033 -0.041307,-0.00197 -0.062103,-0.0033 -0.1038898,-0.00658 -0.041786,-0.00328 -0.062812,-0.00525 -0.1050416,-0.00981 -0.042229,-0.00456 -0.063467,-0.00718 -0.1061047,-0.013022 -0.042637,-0.00585 -0.06407,-0.00909 -0.1070827,-0.016212 -0.043012,-0.00712 -0.064624,-0.010995 -0.107979,-0.01938 C 1.7021154,8.479894 1.6803408,8.4753832 1.6366741,8.4657347 1.5930075,8.4560957 1.5710851,8.4509526 1.5271372,8.4400503 1.4831895,8.4291492 1.4611343,8.4233819 1.4169355,8.4112243 Q 1.3727389,8.3990633 1.3061451,8.3792586 A 7.3836858,7.3836858 0 0 1 1.0460873,7.6647555 q 0.038284,-0.057977 0.064327,-0.095701 c 0.026044,-0.037724 0.039233,-0.056317 0.065891,-0.092918 0.026658,-0.0366 0.040149,-0.054628 0.067401,-0.090084 0.027251,-0.035456 0.041033,-0.052907 0.068857,-0.087197 0.027823,-0.03429 0.041885,-0.051153 0.070259,-0.084255 0.028374,-0.0331 0.042706,-0.049363 0.071609,-0.08125 0.028903,-0.031887 0.043495,-0.047537 0.072908,-0.078181 0.029413,-0.030645 0.044253,-0.045669 0.074155,-0.075041 0.029902,-0.029372 0.044982,-0.043754 0.075354,-0.071821 0.030372,-0.028066 0.045682,-0.041789 0.076505,-0.06851 0.030823,-0.026721 0.046353,-0.039764 0.07761,-0.065093 0.031257,-0.025329 0.047,-0.03767 0.078675,-0.061553 0.031675,-0.023883 0.047621,-0.035494 0.079701,-0.057863 0.03208,-0.022369 0.048223,-0.033215 0.080697,-0.053983 0.032473,-0.020767 0.048809,-0.030807 0.081672,-0.049855 0.032863,-0.019049 0.049386,-0.028228 0.08264,-0.045385 0.033255,-0.017157 0.049963,-0.025416 0.08363,-0.040401 0.033667,-0.014985 0.050261,-0.022319 0.084706,-0.034521 q 0.034444,-0.012203 0.087514,-0.026493 0.070658,-0.00372 0.115936,-0.00812 c 0.045278,-0.00442 0.067133,-0.00722 0.1104546,-0.013944 0.043322,-0.00673 0.064602,-0.0107 0.1061572,-0.019688 0.041555,-0.00898 0.061926,-0.014071 0.101621,-0.025228 0.039695,-0.011156 0.059111,-0.017313 0.096851,-0.030564 0.03774,-0.01325 0.056156,-0.020431 0.09185,-0.03569 0.035694,-0.015259 0.053065,-0.023424 0.08662,-0.040605 0.033556,-0.017181 0.049835,-0.026286 0.08116,-0.0453 0.031326,-0.019015 0.046467,-0.029015 0.075468,-0.049773 0.029,-0.020758 0.042957,-0.031609 0.069534,-0.054012 0.026577,-0.022404 0.0393,-0.034058 0.063355,-0.058004 0.024055,-0.023946 0.03549,-0.036351 0.056916,-0.061728 0.021425,-0.025376 0.031522,-0.038474 0.05021,-0.065155 0.018689,-0.026681 0.027389,-0.040406 0.043233,-0.068249 0.015844,-0.027843 0.023092,-0.042122 0.035987,-0.070964 0.012888,-0.028842 0.018636,-0.043589 0.028484,-0.073246 0.00985,-0.029658 0.014034,-0.044775 0.020754,-0.075044 0.00673,-0.030269 0.00932,-0.045645 0.012848,-0.076302 q 0.00353,-0.030657 0.00482,-0.076984 a 4.3630871,4.3630871 0 0 1 0,0.087879 q -0.00128,-0.046327 -0.00482,-0.076984 c -0.00353,-0.030657 -0.00612,-0.046033 -0.012848,-0.076302 -0.00673,-0.030269 -0.010901,-0.045386 -0.020754,-0.075044 -0.00985,-0.029658 -0.015589,-0.044404 -0.028484,-0.073246 -0.012888,-0.028842 -0.020143,-0.043122 -0.035987,-0.070964 -0.015844,-0.027842 -0.024545,-0.041567 -0.043233,-0.068249 -0.018689,-0.026681 -0.028786,-0.039778 -0.05021,-0.065155 -0.021425,-0.025377 -0.032861,-0.037782 -0.056916,-0.061728 -0.024053,-0.023946 -0.036776,-0.0356 -0.063355,-0.058003 -0.026577,-0.022404 -0.040534,-0.033255 -0.069534,-0.054012 -0.029,-0.020756 -0.044142,-0.030758 -0.075468,-0.049773 -0.031326,-0.019015 -0.047605,-0.02812 -0.08116,-0.0453 -0.033555,-0.017181 -0.050926,-0.025345 -0.08662,-0.040605 -0.035694,-0.015259 -0.05411,-0.02244 -0.09185,-0.03569 -0.03774,-0.01325 -0.057157,-0.019406 -0.096851,-0.030565 -0.039695,-0.011156 -0.060066,-0.016245 -0.101621,-0.025228 -0.041555,-0.00898 -0.062835,-0.012955 -0.1061572,-0.019688 -0.043322,-0.00673 -0.065177,-0.00953 -0.1104546,-0.013944 q -0.045279,-0.00441 -0.1159372,-0.00812 -0.053071,-0.014289 -0.087514,-0.026493 c -0.034444,-0.012203 -0.051037,-0.019536 -0.084706,-0.034521 -0.033667,-0.014985 -0.050377,-0.023244 -0.08363,-0.040401 -0.033255,-0.017157 -0.049778,-0.026337 -0.08264,-0.045385 -0.032863,-0.019049 -0.049198,-0.029088 -0.081672,-0.049855 -0.032474,-0.020768 -0.048617,-0.031614 -0.080697,-0.053983 -0.03208,-0.022369 -0.048026,-0.03398 -0.079701,-0.057863 -0.031675,-0.023883 -0.047418,-0.036224 -0.078675,-0.061553 -0.031257,-0.02533 -0.046787,-0.038372 -0.07761,-0.065093 -0.030823,-0.026721 -0.046133,-0.040444 -0.076505,-0.06851 -0.030372,-0.028066 -0.045452,-0.042448 -0.075354,-0.07182 -0.029902,-0.029372 -0.044743,-0.044396 -0.074155,-0.075041 -0.029413,-0.030645 -0.044004,-0.046296 -0.072908,-0.078181 -0.028903,-0.031887 -0.043236,-0.04815 -0.071609,-0.08125 -0.028374,-0.0331 -0.042436,-0.049963 -0.070259,-0.084255 -0.027823,-0.03429 -0.041605,-0.051741 -0.068857,-0.087197 -0.027251,-0.035456 -0.040742,-0.053483 -0.067401,-0.090084 -0.026658,-0.0366 -0.039847,-0.055194 -0.065891,-0.092918 Q 1.0843709,3.3932046 1.0460873,3.3352279 A 7.3836858,7.3836858 0 0 1 1.3061451,2.6207164 q 0.066594,-0.019804 0.1107928,-0.031962 c 0.044199,-0.012163 0.066254,-0.017924 0.1102018,-0.028826 0.043948,-0.010901 0.06587,-0.01604 0.1095368,-0.025685 0.043667,-0.00964 0.065441,-0.014154 0.1087965,-0.022536 0.043355,-0.00838 0.064967,-0.012257 0.107979,-0.01938 0.043012,-0.00712 0.064445,-0.010364 0.1070828,-0.016212 0.042637,-0.00585 0.063875,-0.00846 0.1061046,-0.013022 0.042229,-0.00456 0.063255,-0.00654 0.1050417,-0.00981 0.041786,-0.00328 0.062583,-0.0046 0.1038898,-0.00658 0.041307,-0.00197 0.061855,-0.00264 0.1026426,-0.0033 0.040787,-6.565e-4 0.061068,-6.656e-4 0.1012948,2.26e-5 0.040226,6.883e-4 0.060217,0.00136 0.099834,0.00342 0.039617,0.00207 0.059295,0.00342 0.098247,0.0069 0.038954,0.00349 0.058291,0.00556 0.096517,0.010512 0.038226,0.00497 0.057193,0.00777 0.09461,0.014306 0.037418,0.00654 0.055976,0.010122 0.092479,0.018353 0.036502,0.00823 0.054611,0.012646 0.090034,0.022808 0.035423,0.010163 0.052848,0.01521 0.087078,0.028003 q 0.034229,0.012794 0.084069,0.035959 0.056513,0.042574 0.094036,0.068296 c 0.037523,0.025722 0.056066,0.037622 0.093577,0.060317 0.03751,0.022695 0.056368,0.033325 0.093977,0.053154 0.037608,0.01983 0.056482,0.029027 0.094063,0.045995 0.03758,0.016968 0.05641,0.024733 0.093839,0.038841 0.037429,0.014108 0.056151,0.020445 0.093303,0.031699 0.037152,0.01125 0.055705,0.016166 0.092454,0.024574 0.036749,0.0084 0.055071,0.011894 0.09129,0.017467 0.036219,0.00557 0.054247,0.00764 0.089804,0.010377 0.035559,0.00274 0.053224,0.0034 0.087985,0.00332 0.03476,-7.78e-5 0.051997,-8.277e-4 0.085816,-0.00371 0.033819,-0.00289 0.050553,-0.00503 0.083277,-0.0107 0.032724,-0.00567 0.048877,-0.00921 0.080344,-0.017636 0.031467,-0.00843 0.046955,-0.013344 0.076989,-0.024492 0.030034,-0.011143 0.044765,-0.017424 0.073182,-0.03123 0.028416,-0.013806 0.042295,-0.021413 0.068902,-0.037802 0.026607,-0.016389 0.039531,-0.025278 0.064135,-0.044146 0.024604,-0.018869 0.036473,-0.02898 0.058884,-0.050196 Q 4.7606443,2.6966 4.7914043,2.661937 A 4.3630871,4.3630871 0 0 1 4.7349163,2.729256 Q 4.7637123,2.692944 4.7807123,2.66719 c 0.017001,-0.025754 0.024899,-0.039199 0.039207,-0.066706 0.01431,-0.027506 0.020818,-0.041777 0.032339,-0.070827 0.011519,-0.029049 0.016601,-0.044036 0.025263,-0.07442 0.00866,-0.030383 0.012284,-0.04598 0.018047,-0.077492 0.00576,-0.031514 0.00792,-0.047621 0.010753,-0.080071 0.00283,-0.032452 0.00352,-0.048975 0.00342,-0.082186 C 4.9096402,2.182276 4.9088529,2.165423 4.9058213,2.131617 4.9027913,2.097812 4.9005313,2.080706 4.8945713,2.04646 4.8886113,2.012214 4.8848913,1.99493 4.8760223,1.960389 4.8671523,1.925847 4.8619783,1.908454 4.8502033,1.873752 4.8384293,1.83905 4.8318113,1.821612 4.8171503,1.786881 4.8024893,1.752151 4.7944303,1.734731 4.7768953,1.700099 4.7593613,1.665467 4.7498683,1.648129 4.7294763,1.613718 4.7090843,1.579309 4.6981653,1.562113 4.6749313,1.52805 4.6516953,1.493987 4.6393603,1.476996 4.6133013,1.443403 4.5872423,1.40981 4.5734983,1.393085 4.5446343,1.360084 4.5157713,1.327084 4.5008333,1.310889 4.4689853,1.278403 Q 4.4371422,1.2459168 4.3854027,1.1976544 4.3539334,1.1525951 4.335391,1.121107 C 4.316848,1.089619 4.308851,1.073335 4.292693,1.040215 4.276533,1.007096 4.269042,0.9900274 4.254597,0.9555093 4.240152,0.9209912 4.233394,0.9033375 4.220464,0.867622 4.207536,0.8319064 4.201473,0.8137157 4.189947,0.7769329 4.178415,0.7401501 4.173025,0.7214653 4.162829,0.6837092 4.152639,0.6459531 4.14788,0.6268092 4.138968,0.5881522 4.130058,0.5494966 4.125932,0.5299231 4.118265,0.4904284 4.110595,0.4509337 4.107095,0.4309589 4.100653,0.3906775 4.094223,0.3503961 4.091313,0.3300427 4.086084,0.28902025 4.080864,0.24799785 4.078554,0.22728725 4.074525,0.18556542 c -0.00403,-0.0417205 -0.00573,-0.0627694 -0.00857,-0.1051504 -0.00283,-0.04238101 -0.00395,-0.0637494 -0.0056,-0.10675467 -0.00165,-0.04300527 -0.00217,-0.06467572 -0.00263,-0.10827169 -4.586e-4,-0.0435946 -3.918e-4,-0.0655524 3.358e-4,-0.10970411 7.276e-4,-0.0441518 0.00138,-0.0663793 0.0033,-0.11105735 0.00192,-0.044678 0.00317,-0.0671593 0.00627,-0.11233271 0.0031,-0.0451734 0.00495,-0.067895 0.00925,-0.11353303 q 0.0043,-0.0456386 0.012244,-0.11465965 A 7.3836858,7.3836858 0 0 1 4.7476069,-1.0760797 q 0.063744,0.027635 0.1054175,0.046732 c 0.041674,0.019097 0.062274,0.028857 0.1029474,0.0487549 0.040673,0.0198977 0.06077,0.0300531 0.1004195,0.0507336 0.03965,0.0206805 0.059229,0.0312228 0.09783,0.0526688 0.038601,0.021446 0.057649,0.0323666 0.095174,0.0545613 0.037525,0.0221948 0.05603,0.0334851 0.09245,0.0564124 0.036422,0.0229273 0.054368,0.0345796 0.089654,0.058224 0.035286,0.0236444 0.052659,0.035651 0.086778,0.0599981 0.034118,0.0243471 0.0509,0.0367008 0.083814,0.0617374 0.032914,0.0250367 0.049087,0.037731 0.080753,0.0634459 0.031667,0.0257154 0.047209,0.0387442 0.077581,0.0651281 0.030373,0.0263839 0.045259,0.0397444 0.07428,0.0667901 0.029021,0.0270471 0.043224,0.0407351 0.070823,0.0684427 0.0276,0.0277076 0.041084,0.0417232 0.067175,0.0700967 0.026091,0.0283735 0.038814,0.042718 0.06328,0.0717735 0.024466,0.0290555 0.036375,0.0437342 0.059045,0.0735039 0.022671,0.02976968 0.033706,0.04479078 0.054309,0.07534448 0.020603,0.03055369 0.030707,0.04562178 0.048706,0.07742398 q 0.017999,0.03180221 0.041287,0.08158436 0.015926,0.0689395 0.028136,0.11276231 c 0.012203,0.0438242 0.018767,0.0648583 0.032914,0.10635461 0.014147,0.0414963 0.02176,0.0617612 0.037823,0.10112562 0.016063,0.0393644 0.024611,0.0585432 0.042491,0.0956966 0.017882,0.0371534 0.027314,0.0552058 0.046917,0.0900716 0.019603,0.0348658 0.029873,0.0517543 0.051098,0.0842572 0.021225,0.0325017 0.032281,0.04819 0.055029,0.0782537 0.022747,0.0300623 0.03454,0.0445129 0.058706,0.0720607 0.024165,0.0275479 0.036645,0.040723 0.062121,0.0656772 0.025478,0.0249555 0.038588,0.0368151 0.065265,0.059099 0.026678,0.022284 0.040365,0.032789 0.068123,0.0523195 0.027759,0.01953 0.041961,0.028639 0.070673,0.045332 0.028712,0.016694 0.043362,0.024362 0.072884,0.038133 0.029521,0.013771 0.044549,0.019957 0.07472,0.030726 0.030171,0.010767 0.045492,0.015428 0.076135,0.023116 0.030642,0.00769 0.046163,0.01078 0.07708,0.015331 0.030917,0.00455 0.046531,0.00604 0.077507,0.00741 0.030977,0.00136 0.046568,0.00124 0.077373,-6.023e-4 q 0.030805,-0.00185 0.076649,-0.00863 a 4.3630871,4.3630871 0 0 1 -0.086545,0.01526 q 0.0454,-0.0093 0.074978,-0.018107 c 0.029578,-0.00881 0.04427,-0.014024 0.072913,-0.025897 0.028642,-0.011868 0.042803,-0.018622 0.070299,-0.03347 0.027497,-0.014848 0.041022,-0.023064 0.067187,-0.04077 0.026165,-0.017706 0.038968,-0.027325 0.063637,-0.047763 0.024668,-0.020438 0.036674,-0.03139 0.059704,-0.0544285 0.02303,-0.0230384 0.034176,-0.0352551 0.055446,-0.0607624 0.02127,-0.0255059 0.0315,-0.0389228 0.050906,-0.06677 0.019406,-0.0278472 0.028673,-0.0423998 0.046121,-0.0724635 0.017447,-0.0300637 0.025711,-0.0456929 0.041116,-0.0778576 0.015405,-0.0321647 0.022625,-0.0488129 0.035912,-0.0829631 0.013291,-0.0341516 0.019426,-0.0517637 0.030519,-0.0877934 0.011089,-0.0360297 0.016117,-0.0545533 0.024946,-0.0923551 0.00883,-0.0378018 0.0127,-0.0571846 0.019199,-0.0966524 0.0065,-0.0394678 0.00918,-0.0596575 0.013277,-0.10068663 0.00409,-0.0410291 0.00557,-0.0619733 0.0072,-0.10445767 0.00162,-0.0424844 0.00185,-0.06413067 9.545e-4,-0.10796292 -8.985e-4,-0.04383224 -0.00193,-0.06584099 -0.00545,-0.1111983 q -0.00352,-0.04535731 -0.012123,-0.11558556 0.00486,-0.0547453 0.010888,-0.0907858 c 0.00604,-0.0360391 0.010377,-0.0536552 0.019287,-0.0894124 0.00891,-0.0357572 0.014143,-0.0536472 0.025264,-0.0893748 0.011116,-0.0357276 0.017293,-0.0535948 0.030346,-0.0892654 0.013049,-0.0356706 0.020102,-0.0535012 0.034916,-0.0890878 0.014813,-0.0355865 0.022691,-0.0533683 0.03915,-0.0888449 0.016459,-0.0354766 0.025123,-0.0531969 0.043144,-0.088538 0.01802,-0.0353411 0.02744,-0.0529874 0.046956,-0.0881679 0.019517,-0.0351806 0.029665,-0.0527401 0.050628,-0.0877348 0.020963,-0.0349947 0.031818,-0.052455 0.054184,-0.0872389 0.022366,-0.034784 0.033911,-0.052132 0.057644,-0.08668 0.023734,-0.034548 0.035952,-0.051772 0.061024,-0.08606 0.025071,-0.034287 0.037951,-0.051375 0.064333,-0.085376 0.026383,-0.034001 0.039911,-0.05094 0.067581,-0.084631 0.027671,-0.033691 0.041836,-0.050467 0.070773,-0.083822 0.028937,-0.033355 0.04373,-0.049958 0.073916,-0.082952 0.030186,-0.032994 0.045596,-0.049411 0.077012,-0.08202 0.031416,-0.032609 0.047436,-0.048826 0.080065,-0.081025 q 0.032628,-0.032199 0.083076,-0.079968 a 7.3836858,7.3836858 0 0 1 0.7488068,0.1320349 q 0.031068,0.062143 0.050715,0.1035593 c 0.019647,0.041416 0.029156,0.062135 0.047524,0.1035221 0.018368,0.041387 0.027235,0.062084 0.044316,0.1034126 0.017081,0.041329 0.025302,0.061989 0.041087,0.1032301 0.015785,0.041241 0.023357,0.061851 0.037837,0.1029733 0.014479,0.041123 0.021398,0.061666 0.03456,0.1026408 0.01316,0.040974 0.01942,0.061436 0.03125,0.10223016 0.01183,0.0407943 0.01742,0.0611591 0.02791,0.10174101 0.01048,0.0405819 0.0154,0.0608328 0.02452,0.10116858 0.0091,0.0403356 0.01335,0.0604559 0.02108,0.10050969 0.0077,0.0400538 0.01126,0.0600253 0.01757,0.0997594 0.0063,0.039734 0.0091,0.0595378 0.01397,0.0989108 0.0048,0.0393725 0.0069,0.0589889 0.01026,0.0979547 0.0033,0.0389657 0.0047,0.0583701 0.0064,0.0968766 0.0017,0.0385066 0.0023,0.0576733 0.0023,0.0956563 6.5e-5,0.037983 -2.47e-4,0.0568839 -0.002,0.09426147 -0.0018,0.03737756 -0.003,0.05597774 -0.0068,0.09262633 -0.0039,0.03664859 -0.0058,0.05468626 -0.01246,0.09061662 q -0.0067,0.03593036 -0.02081,0.08903651 -0.03211,0.0630473 -0.05093,0.10446707 c -0.01882,0.0414184 -0.02731,0.0617478 -0.04315,0.10262921 -0.01584,0.0408814 -0.02303,0.0612994 -0.036027,0.10177806 -0.012995,0.0404801 -0.018779,0.0606657 -0.028961,0.10062085 -0.01019,0.0399551 -0.014562,0.0598481 -0.021956,0.0991575 -0.0074,0.0393094 -0.010377,0.058848 -0.015016,0.0973895 -0.00463,0.0385415 -0.00624,0.0576666 -0.00815,0.095318 -0.00189,0.0376514 -0.00215,0.0563013 -0.00134,0.0929364 8.043e-4,0.0366365 0.00189,0.0547493 0.00537,0.0902434 0.00348,0.035494 0.00589,0.053007 0.012002,0.087224 0.00611,0.034219 0.00984,0.051064 0.018555,0.083868 0.00871,0.032804 0.013735,0.048911 0.025,0.080155 0.011264,0.031242 0.017557,0.046536 0.031319,0.076061 0.01376,0.029525 0.0213,0.043924 0.03749,0.071565 0.01619,0.027643 0.02493,0.04106 0.04346,0.066647 0.01853,0.025588 0.02843,0.037933 0.04919,0.061291 0.02076,0.023357 0.03176,0.034541 0.05461,0.055494 0.02285,0.020954 0.03487,0.030887 0.05966,0.049273 q 0.02478,0.018387 0.06426,0.04266 a 4.3630871,4.3630871 0 0 1 -0.07612,-0.04394 q 0.04076,0.022053 0.06908,0.034323 c 0.02832,0.01227 0.04293,0.017713 0.0725,0.02703 0.02957,0.00932 0.04476,0.01325 0.07537,0.019549 0.03061,0.0063 0.04625,0.0087 0.07767,0.011961 0.03143,0.00325 0.04742,0.00412 0.07945,0.00432 0.03203,1.999e-4 0.04827,-4.722e-4 0.08072,-0.00332 0.03245,-0.00285 0.04884,-0.00503 0.08153,-0.010901 0.03269,-0.00587 0.04915,-0.00957 0.08191,-0.018427 0.03276,-0.00886 0.04922,-0.014049 0.08191,-0.025864 0.03269,-0.011814 0.04907,-0.018477 0.08154,-0.033213 0.03248,-0.014737 0.04871,-0.022849 0.08084,-0.040471 0.03213,-0.017622 0.04815,-0.027167 0.07981,-0.047637 0.03166,-0.02047 0.04741,-0.03143 0.07847,-0.054713 0.03106,-0.023283 0.04649,-0.03564 0.07683,-0.061699 0.03035,-0.026059 0.04538,-0.039797 0.07489,-0.068593 0.02951,-0.028798 0.0441,-0.043895 0.07266,-0.075391 0.02856,-0.031496 0.04264,-0.047936 0.07013,-0.082092 0.02749,-0.034154 0.04084,-0.051679 0.0673,-0.088683 Q 11.65773,1.148836 11.69628,1.0895 11.73519,1.050685 11.76298,1.026956 C 11.79077,1.003227 11.80542,0.9925239 11.83523,0.9708601 11.86504,0.949195 11.88055,0.9388538 11.91203,0.9186346 11.94351,0.898414 11.95973,0.8886944 11.99265,0.8697586 12.02558,0.850823 12.04244,0.8416954 12.07666,0.8239571 12.11088,0.8062175 12.12835,0.7976604 12.16376,0.7810633 12.19917,0.7644662 12.2172,0.756461 12.25372,0.7409713 12.29024,0.7254817 12.3088,0.7180188 12.34636,0.7036139 12.38393,0.689209 12.40299,0.6822818 12.44154,0.6689482 12.48009,0.6556173 12.49963,0.6492176 12.53912,0.6369473 12.57861,0.624677 12.59861,0.6188089 12.639,0.6075992 12.67939,0.5963894 12.69982,0.591049 12.741066,0.5808998 c 0.04124,-0.0101492 0.06209,-0.0149607 0.104161,-0.0240493 0.04206,-0.009089 0.06332,-0.0133712 0.106169,-0.0213899 0.04285,-0.008028 0.06449,-0.0117736 0.108096,-0.0187197 0.04361,-0.006954 0.06561,-0.0101626 0.109943,-0.0160333 0.04433,-0.005867 0.06669,-0.008538 0.111715,-0.0133309 0.04503,-0.004793 0.06772,-0.006914 0.113415,-0.0106056 q 0.04569,-0.003692 0.115043,-0.007854 a 7.3836858,7.3836858 0 0 1 0.488749,0.5824682 q -0.01615,0.067574 -0.02772,0.11193 c -0.01157,0.044356 -0.0176,0.066339 -0.03014,0.1098504 -0.01254,0.043511 -0.01905,0.065065 -0.03253,0.1077038 -0.01348,0.042639 -0.02046,0.063751 -0.03488,0.1054887 -0.01442,0.041738 -0.02186,0.062393 -0.03721,0.1032025 -0.01534,0.040809 -0.02325,0.060993 -0.0395,0.1008423 -0.01626,0.039849 -0.02461,0.059546 -0.04177,0.098403 -0.01716,0.038856 -0.02596,0.058051 -0.04402,0.095878 -0.01805,0.037827 -0.02731,0.0565 -0.04625,0.093261 -0.01894,0.036761 -0.02863,0.054893 -0.04846,0.090544 -0.01983,0.035651 -0.02996,0.05322 -0.05067,0.087711 -0.02071,0.034493 -0.03128,0.051474 -0.05288,0.08475 -0.0216,0.033276 -0.03261,0.049641 -0.0551,0.081633 -0.0225,0.031991 -0.03395,0.047705 -0.05737,0.078327 -0.02341,0.030622 -0.03533,0.045643 -0.0597,0.074782 -0.02437,0.029139 -0.03675,0.043416 -0.06213,0.070913 -0.02538,0.027496 -0.03826,0.040971 -0.06477,0.066567 -0.02651,0.025596 -0.0396,0.038163 -0.06779,0.06141 q -0.02819,0.023248 -0.07318,0.054827 -0.06513,0.027655 -0.106164,0.047289 c -0.04104,0.019634 -0.06062,0.029744 -0.09902,0.050882 -0.03841,0.021138 -0.05705,0.032154 -0.09302,0.054808 -0.03598,0.022654 -0.05338,0.034401 -0.08687,0.058464 -0.03348,0.024062 -0.04962,0.036486 -0.08056,0.061846 -0.03093,0.02536 -0.04578,0.038406 -0.0741,0.064952 -0.02832,0.026546 -0.04185,0.040159 -0.06751,0.067781 -0.02566,0.027622 -0.03784,0.041745 -0.06077,0.070326 -0.02293,0.028582 -0.03374,0.043158 -0.05389,0.072583 -0.02015,0.029423 -0.02956,0.044395 -0.04687,0.074536 -0.01731,0.030142 -0.02528,0.045445 -0.0397,0.076174 -0.01441,0.03073 -0.02092,0.046297 -0.03237,0.077471 -0.01145,0.031174 -0.01646,0.046935 -0.0249,0.078399 -0.0084,0.031464 -0.01192,0.047337 -0.01728,0.07892 -0.0054,0.031582 -0.0073,0.04748 -0.0095,0.078992 -0.0023,0.031512 -0.0026,0.047334 -0.0017,0.078572 8.9e-4,0.031237 0.0021,0.046874 0.0062,0.077616 0.004,0.030742 0.0069,0.046077 0.01403,0.076094 q 0.0072,0.030015 0.02181,0.073987 a 4.3630871,4.3630871 0 0 1 -0.03006,-0.082579"
       id="path2"
       style="fill:#729fcf;fill-opacity:1;stroke:#000000;stroke-width:0.0997339;stroke-miterlimit:4;stroke-dasharray:none;stroke-opacity:1" />
    <path
       d="m 7.3311531,7.0092684 q -0.03214,-0.018059 -0.05456,-0.028043 c -0.02242,-0.00998 -0.03402,-0.014397 -0.05753,-0.021878 -0.0235,-0.00748 -0.0356,-0.010611 -0.05998,-0.015529 -0.02438,-0.00492 -0.03686,-0.00674 -0.06191,-0.00906 -0.02505,-0.00232 -0.03781,-0.00283 -0.06334,-0.00254 -0.02553,2.893e-4 -0.03847,0.00109 -0.06429,0.00399 -0.02582,0.00289 -0.03886,0.005 -0.0648,0.010487 -0.02594,0.00548 -0.039,0.00888 -0.0649,0.016931 -0.0259,0.00805 -0.0389,0.012724 -0.06462,0.023303 -0.02572,0.010579 -0.03858,0.016516 -0.06397,0.029593 -0.02539,0.013078 -0.03805,0.020256 -0.06299,0.035797 -0.02493,0.015541 -0.03733,0.023942 -0.06167,0.041908 -0.02434,0.017966 -0.03641,0.027571 -0.06005,0.047924 -0.02363,0.020353 -0.03531,0.031142 -0.05811,0.053839 -0.02279,0.022697 -0.03403,0.034649 -0.05586,0.059647 -0.02184,0.024998 -0.03256,0.038091 -0.05332,0.065342 -0.02076,0.027251 -0.03091,0.041461 -0.05047,0.070914 -0.01956,0.029454 -0.0289,0.044426 -0.04733,0.076354 q -0.01843,0.031928 -0.0448,0.083286 -0.03104,0.021719 -0.05263,0.034432 c -0.02159,0.012713 -0.03261,0.018103 -0.05532,0.029133 -0.02271,0.01103 -0.03443,0.016182 -0.05824,0.026019 -0.02381,0.00984 -0.03601,0.014441 -0.06079,0.023164 -0.02477,0.00872 -0.03743,0.012797 -0.06308,0.020453 -0.02565,0.00766 -0.03872,0.011211 -0.06518,0.017826 -0.02646,0.00661 -0.03991,0.00966 -0.06712,0.015248 -0.02721,0.00559 -0.04102,0.00813 -0.06894,0.012695 -0.02791,0.00457 -0.04206,0.0066 -0.07063,0.010153 -0.02857,0.00355 -0.04303,0.00508 -0.07222,0.00761 -0.02919,0.00253 -0.04395,0.00355 -0.07371,0.00506 -0.02976,0.00151 -0.0448,0.00202 -0.0751,0.0025 -0.0303,4.855e-4 -0.0456,4.742e-4 -0.0764,-7.48e-5 -0.0308,-5.49e-4 -0.04635,-0.00108 -0.07762,-0.00267 -0.03127,-0.00159 -0.04704,-0.00264 -0.07875,-0.00529 -0.031709,-0.00264 -0.047685,-0.00422 -0.079796,-0.00792 -0.032111,-0.0037 -0.048279,-0.00581 -0.080759,-0.010584 -0.03248,-0.00477 -0.048824,-0.00742 -0.08164,-0.013267 q -0.0328,-0.00585 -0.082424,-0.015974 A 4,4 0 0 1 4.6413198,7.293041 q 0.016044,-0.048037 0.027387,-0.07938 c 0.011343,-0.031343 0.017222,-0.046822 0.02933,-0.077336 0.012109,-0.030513 0.018363,-0.045572 0.031213,-0.075231 0.01285,-0.02966 0.019469,-0.044285 0.033035,-0.073067 0.013566,-0.028782 0.020538,-0.042963 0.034797,-0.070842 0.014259,-0.02788 0.02157,-0.041603 0.036497,-0.068556 0.014927,-0.026952 0.022566,-0.040207 0.038137,-0.066205 0.015571,-0.025999 0.023526,-0.038771 0.039718,-0.063789 0.016191,-0.025018 0.024451,-0.037293 0.041239,-0.061301 0.016788,-0.024008 0.02534,-0.035772 0.042702,-0.058739 0.017362,-0.022966 0.026195,-0.034204 0.044109,-0.056093 0.017914,-0.02189 0.027017,-0.032582 0.045463,-0.053354 0.018446,-0.020773 0.027808,-0.0309 0.046768,-0.050508 0.018959,-0.019609 0.028572,-0.029147 0.048028,-0.047534 0.019456,-0.018387 0.029311,-0.027309 0.049252,-0.044401 0.01994,-0.017092 0.03003,-0.025362 0.05045,-0.04106 0.02042,-0.015697 0.03074,-0.023273 0.05165,-0.037427 0.02091,-0.014153 0.03108,-0.021 0.05289,-0.033341 q 0.0218,-0.012341 0.05613,-0.028365 0.05766,0.00284 0.09453,0.00285 c 0.03686,6.9e-6 0.0545,-5.998e-4 0.08979,-0.00281 0.03529,-0.00221 0.05267,-0.0039 0.08665,-0.00825 0.03398,-0.00435 0.05068,-0.00709 0.08325,-0.013503 0.03257,-0.00641 0.04853,-0.010163 0.07959,-0.018555 0.03105,-0.00839 0.04624,-0.013114 0.07568,-0.023402 0.02944,-0.010288 0.04379,-0.01594 0.07153,-0.028039 0.02773,-0.012099 0.0412,-0.018636 0.06713,-0.032457 0.02592,-0.013821 0.03847,-0.021199 0.06249,-0.036649 0.02402,-0.015451 0.03559,-0.023622 0.05762,-0.040605 0.02202,-0.016982 0.03257,-0.025898 0.05249,-0.044308 0.01992,-0.01841 0.02939,-0.028017 0.04711,-0.047742 0.01772,-0.019724 0.02607,-0.029966 0.04148,-0.050879 0.01542,-0.020913 0.02259,-0.031724 0.0356,-0.053686 0.01301,-0.021962 0.01895,-0.03327 0.02947,-0.056124 0.01051,-0.022854 0.01518,-0.034576 0.02311,-0.058146 0.0079,-0.02357 0.01127,-0.035613 0.01654,-0.059705 0.0053,-0.024093 0.0073,-0.036352 0.0098,-0.060757 q 0.0026,-0.024405 0.003,-0.061268 a 1.75,1.75 0 0 1 0,-0.024942 q -4.3e-4,-0.036863 -0.003,-0.061268 c -0.0026,-0.024405 -0.0045,-0.036664 -0.0098,-0.060757 -0.0053,-0.024092 -0.0086,-0.036135 -0.01654,-0.059705 -0.0079,-0.02357 -0.01259,-0.035292 -0.02311,-0.058146 -0.01051,-0.022854 -0.01645,-0.034162 -0.02947,-0.056124 -0.01301,-0.021962 -0.02018,-0.032773 -0.0356,-0.053686 -0.01542,-0.020913 -0.02377,-0.031155 -0.04148,-0.050879 -0.01772,-0.019724 -0.02719,-0.029332 -0.04711,-0.047742 -0.01992,-0.01841 -0.03047,-0.027326 -0.05249,-0.044308 -0.02202,-0.016983 -0.03359,-0.025154 -0.05762,-0.040605 -0.02402,-0.015451 -0.03657,-0.022828 -0.06249,-0.036649 -0.02593,-0.013821 -0.0394,-0.020358 -0.06713,-0.032457 -0.02773,-0.012099 -0.04209,-0.017751 -0.07153,-0.028039 -0.02944,-0.010288 -0.04463,-0.015011 -0.07568,-0.023402 -0.03105,-0.00839 -0.04702,-0.012143 -0.07959,-0.018555 -0.03257,-0.00641 -0.04927,-0.00915 -0.08325,-0.013503 -0.03398,-0.00435 -0.05136,-0.00604 -0.08665,-0.00825 -0.03529,-0.00221 -0.05293,-0.00282 -0.08979,-0.00281 q -0.03686,6.8e-6 -0.09453,0.00285 -0.03433,-0.016024 -0.05613,-0.028365 C 5.3621848,4.752794 5.3520048,4.745947 5.3310948,4.731794 5.3101848,4.71764 5.2998648,4.710064 5.2794448,4.694367 5.2590248,4.67867 5.2489348,4.670399 5.2289948,4.653307 5.2090538,4.6362 5.1991988,4.627278 5.1797418,4.608891 5.1602858,4.590504 5.1506728,4.580965 5.1317138,4.561357 5.1127548,4.541749 5.1033918,4.531621 5.0849458,4.510849 5.0664998,4.490076 5.0573968,4.479384 5.0394828,4.457495 5.0215688,4.435606 5.0127358,4.424368 4.9953738,4.401402 4.9780118,4.378436 4.9694598,4.366671 4.9526718,4.342663 4.9358838,4.318655 4.9276248,4.30638 4.9114338,4.281362 4.8952428,4.256344 4.8872878,4.243572 4.8717158,4.217573 4.8561448,4.191574 4.8485058,4.17832 4.8335788,4.151368 4.8186518,4.124416 4.8113408,4.110692 4.7970818,4.082812 4.7828228,4.054932 4.7758518,4.040751 4.7622858,4.01197 4.7487198,3.983188 4.7420998,3.968563 4.7292508,3.938903 4.7164008,3.909243 4.7101468,3.894185 4.6980378,3.863672 4.6859288,3.833159 4.6800508,3.81768 4.6687078,3.786336 Q 4.6573638,3.754993 4.6413208,3.706956 A 4,4 0 0 1 4.8763045,3.2999492 q 0.049623,-0.010124 0.082439,-0.015972 c 0.032816,-0.00585 0.04916,-0.0085 0.08164,-0.013267 0.03248,-0.00477 0.048648,-0.00688 0.080759,-0.010584 0.032111,-0.0037 0.048087,-0.00528 0.079796,-0.00792 0.031709,-0.00264 0.047476,-0.0037 0.07875,-0.00529 0.03127,-0.00159 0.04682,-0.00212 0.07762,-0.00267 0.0308,-5.49e-4 0.0461,-5.603e-4 0.0764,-7.48e-5 0.0303,4.854e-4 0.04534,9.891e-4 0.0751,0.0025 0.02976,0.00151 0.04452,0.00253 0.07371,0.00506 0.02919,0.00253 0.04365,0.00406 0.07222,0.00761 0.02857,0.00355 0.04272,0.00558 0.07063,0.010153 0.02791,0.00457 0.04173,0.00711 0.06894,0.012695 0.02721,0.00559 0.04066,0.00863 0.06712,0.015248 0.02646,0.00661 0.03953,0.01017 0.06518,0.017826 0.02565,0.00766 0.03831,0.01173 0.06308,0.020453 0.02477,0.00872 0.03698,0.013327 0.06079,0.023164 0.0238,0.00984 0.03553,0.014988 0.05824,0.026019 0.02271,0.01103 0.03373,0.01642 0.05532,0.029133 q 0.02159,0.012713 0.05263,0.034432 0.02637,0.051358 0.0448,0.083287 c 0.01843,0.031928 0.02777,0.0469 0.04733,0.076354 0.01956,0.029454 0.02971,0.043663 0.05047,0.070914 0.02076,0.027251 0.03148,0.040344 0.05332,0.065342 0.02184,0.024998 0.03307,0.03695 0.05586,0.059647 0.02279,0.022697 0.03448,0.033486 0.05811,0.053839 0.02363,0.020352 0.0357,0.029957 0.06005,0.047924 0.02434,0.017966 0.03674,0.026367 0.06167,0.041908 0.02493,0.015541 0.03759,0.022719 0.06299,0.035797 0.02539,0.013078 0.03825,0.019014 0.06397,0.029594 0.02572,0.010579 0.03871,0.015256 0.06462,0.023303 0.0259,0.00805 0.03896,0.011447 0.0649,0.016931 0.02594,0.00548 0.03898,0.00759 0.0648,0.010487 0.02582,0.0029 0.03877,0.0037 0.06429,0.00399 0.02553,2.894e-4 0.03829,-2.203e-4 0.06334,-0.00254 0.02505,-0.00232 0.03753,-0.00414 0.06191,-0.00906 0.02438,-0.00492 0.03648,-0.00805 0.05998,-0.015529 0.0235,-0.00748 0.03511,-0.011894 0.05753,-0.021878 q 0.02242,-0.00998 0.05456,-0.028043 a 1.75,1.75 0 0 1 0.0216,-0.012471 q 0.03171,-0.018804 0.05156,-0.033224 c 0.01985,-0.014421 0.02948,-0.022268 0.04771,-0.038879 0.01823,-0.016611 0.02699,-0.025524 0.04344,-0.044176 0.01645,-0.018652 0.02427,-0.02855 0.0388,-0.049083 0.01454,-0.020533 0.02136,-0.031331 0.03387,-0.053583 0.01251,-0.022251 0.01829,-0.033866 0.02869,-0.057674 0.0104,-0.023808 0.0151,-0.036158 0.02332,-0.061366 0.0082,-0.025208 0.01181,-0.038216 0.01779,-0.064672 0.006,-0.026457 0.0084,-0.040049 0.01213,-0.067611 0.0037,-0.027562 0.005,-0.041669 0.0064,-0.070198 0.0014,-0.028529 0.0015,-0.043084 4.92e-4,-0.072446 -9.92e-4,-0.029362 -0.0021,-0.0443 -0.0055,-0.074365 -0.0034,-0.030066 -0.0057,-0.045322 -0.01148,-0.075963 -0.0058,-0.030641 -0.0093,-0.046152 -0.01757,-0.077241 -0.0083,-0.031089 -0.01299,-0.046793 -0.02372,-0.078202 -0.01073,-0.031409 -0.01671,-0.047242 -0.02993,-0.078845 -0.01322,-0.031602 -0.02045,-0.0475 -0.03618,-0.079167 -0.01573,-0.031667 -0.02402,-0.047246 -0.04246,-0.079167 q -0.01844,-0.031921 -0.04973,-0.080439 -0.0033,-0.037742 -0.0035,-0.062796 c -2.15e-4,-0.025054 6.26e-4,-0.037291 0.0024,-0.062474 0.0018,-0.025184 0.0032,-0.037912 0.0066,-0.063445 0.0034,-0.025534 0.0055,-0.038408 0.01033,-0.064224 0.0048,-0.025816 0.0076,-0.038811 0.01383,-0.064854 0.0062,-0.026043 0.0097,-0.039137 0.01715,-0.065361 0.0075,-0.026223 0.01159,-0.039395 0.02036,-0.065756 0.0088,-0.026361 0.01348,-0.03959 0.02348,-0.06605 0.01,-0.026459 0.01531,-0.039727 0.02652,-0.066246 0.01121,-0.026519 0.01712,-0.039807 0.02952,-0.06635 0.0124,-0.026543 0.0189,-0.039833 0.03247,-0.066364 0.01357,-0.026531 0.02065,-0.039806 0.03538,-0.066291 0.01473,-0.026484 0.02239,-0.039727 0.03827,-0.066131 0.01588,-0.026403 0.02411,-0.039597 0.04112,-0.065885 0.01701,-0.026288 0.02581,-0.039416 0.04395,-0.065556 0.01814,-0.02614 0.0275,-0.039185 0.04676,-0.065143 0.01926,-0.025958 0.02918,-0.038904 0.04955,-0.064647 0.02037,-0.025743 0.03084,-0.038573 0.05231,-0.064069 q 0.02147,-0.025495 0.05505,-0.063408 a 4,4 0 0 1 0.46997,0 q 0.03358,0.037913 0.05505,0.063408 c 0.02147,0.025495 0.03194,0.038326 0.05231,0.064069 0.02037,0.025743 0.03028,0.038689 0.04955,0.064647 0.01926,0.025958 0.02862,0.039003 0.04676,0.065143 0.01814,0.02614 0.02694,0.039268 0.04395,0.065556 0.01702,0.026288 0.02524,0.039482 0.04112,0.065885 0.01588,0.026403 0.02354,0.039646 0.03827,0.066131 0.01473,0.026484 0.02181,0.03976 0.03538,0.066291 0.01357,0.026531 0.02007,0.039821 0.03247,0.066364 0.0124,0.026543 0.01831,0.039831 0.02952,0.06635 0.01121,0.026519 0.01652,0.039787 0.02652,0.066246 0.01,0.026459 0.01471,0.039688 0.02348,0.06605 0.0088,0.026361 0.01286,0.039533 0.02036,0.065756 0.0075,0.026223 0.01096,0.039318 0.01715,0.065361 0.0062,0.026043 0.009,0.039039 0.01383,0.064854 0.0048,0.025816 0.0069,0.03869 0.01033,0.064224 0.0034,0.025534 0.0048,0.038261 0.0066,0.063445 0.0018,0.025184 0.0026,0.03742 0.0024,0.062474 q -2.14e-4,0.025054 -0.0035,0.062796 -0.03129,0.048518 -0.04973,0.080439 c -0.01844,0.031921 -0.02673,0.0475 -0.04246,0.079167 -0.01573,0.031667 -0.02296,0.047565 -0.03618,0.079167 -0.01322,0.031602 -0.0192,0.047435 -0.02993,0.078845 -0.01073,0.031409 -0.01547,0.047113 -0.02372,0.078202 -0.0083,0.031089 -0.01176,0.0466 -0.01757,0.077241 -0.0058,0.030641 -0.0081,0.045897 -0.01148,0.075963 -0.0034,0.030066 -0.0045,0.045003 -0.0055,0.074365 -9.93e-4,0.029362 -8.78e-4,0.043917 4.92e-4,0.072446 0.0014,0.028529 0.0027,0.042636 0.0064,0.070198 0.0037,0.027562 0.0061,0.041154 0.01213,0.067611 0.006,0.026457 0.0096,0.039465 0.01779,0.064672 0.0082,0.025208 0.01292,0.037558 0.02332,0.061366 0.0104,0.023808 0.01618,0.035423 0.02869,0.057674 0.01251,0.022251 0.01934,0.033049 0.03387,0.053583 0.01453,0.020533 0.02235,0.030431 0.0388,0.049083 0.01645,0.018652 0.02521,0.027565 0.04344,0.044176 0.01823,0.016611 0.02786,0.024458 0.04771,0.038879 q 0.01985,0.014421 0.05156,0.033224 a 1.75,1.75 0 0 1 0.0216,0.012471 q 0.03214,0.018059 0.05456,0.028043 c 0.02242,0.00998 0.03402,0.014397 0.05753,0.021878 0.0235,0.00748 0.0356,0.010611 0.05998,0.015529 0.02438,0.00492 0.03686,0.00674 0.06191,0.00906 0.02505,0.00232 0.03781,0.00283 0.06334,0.00254 0.02553,-2.893e-4 0.03847,-0.00109 0.06429,-0.00399 0.02582,-0.00289 0.03886,-0.005 0.0648,-0.010487 0.02594,-0.00548 0.039,-0.00888 0.0649,-0.016931 0.0259,-0.00805 0.0389,-0.012724 0.06462,-0.023303 0.02572,-0.010579 0.03858,-0.016516 0.06397,-0.029594 0.02539,-0.013078 0.03805,-0.020256 0.06299,-0.035797 0.02493,-0.015541 0.03733,-0.023942 0.06167,-0.041908 0.02434,-0.017966 0.03641,-0.027571 0.06005,-0.047924 0.02363,-0.020352 0.03531,-0.031141 0.05811,-0.053839 0.02279,-0.022697 0.03403,-0.034649 0.055858,-0.059647 0.02184,-0.024998 0.03256,-0.038091 0.05332,-0.065342 0.02076,-0.027251 0.03091,-0.04146 0.05047,-0.070914 0.01956,-0.029454 0.0289,-0.044426 0.04733,-0.076354 q 0.01843,-0.031928 0.0448,-0.083287 0.03104,-0.021719 0.05263,-0.034432 c 0.02159,-0.012713 0.03261,-0.018103 0.05532,-0.029133 0.02271,-0.01103 0.03443,-0.016182 0.05824,-0.026019 0.02381,-0.00984 0.03601,-0.014441 0.06079,-0.023164 0.02477,-0.00872 0.03743,-0.012797 0.06308,-0.020453 0.02565,-0.00766 0.03872,-0.011211 0.06518,-0.017826 0.02646,-0.00661 0.03991,-0.00966 0.06712,-0.015248 0.02721,-0.00559 0.04102,-0.00813 0.06894,-0.012695 0.02791,-0.00457 0.04206,-0.0066 0.07063,-0.010153 0.02857,-0.00355 0.04303,-0.00508 0.07222,-0.00761 0.02919,-0.00253 0.04395,-0.00355 0.07371,-0.00506 0.02976,-0.00151 0.0448,-0.00202 0.0751,-0.0025 0.0303,-4.855e-4 0.0456,-4.742e-4 0.0764,7.48e-5 0.0308,5.49e-4 0.04635,0.00108 0.07762,0.00267 0.03127,0.00159 0.04704,0.00264 0.07875,0.00529 0.03171,0.00264 0.04768,0.00422 0.0798,0.00792 0.03211,0.0037 0.04828,0.00581 0.08076,0.010584 0.03248,0.00477 0.04882,0.00742 0.08164,0.013267 q 0.03281,0.00585 0.08244,0.015972 a 4,4 0 0 1 0.234985,0.4070056 q -0.01604,0.048037 -0.02739,0.07938 c -0.01134,0.031343 -0.01722,0.046822 -0.02933,0.077336 -0.01211,0.030513 -0.01836,0.045572 -0.03121,0.075231 -0.01285,0.02966 -0.01947,0.044285 -0.03303,0.073067 -0.01357,0.028782 -0.02054,0.042963 -0.0348,0.070842 -0.01426,0.02788 -0.02157,0.041603 -0.0365,0.068556 -0.01493,0.026952 -0.02257,0.040207 -0.03814,0.066205 -0.01557,0.025999 -0.02353,0.038771 -0.03972,0.063789 -0.01619,0.025018 -0.02445,0.037293 -0.04124,0.061301 -0.01679,0.024008 -0.02534,0.035772 -0.0427,0.058739 -0.01736,0.022966 -0.0262,0.034204 -0.04411,0.056093 -0.01791,0.02189 -0.02702,0.032582 -0.04546,0.053354 -0.01845,0.020773 -0.02781,0.0309 -0.04677,0.050508 -0.01896,0.019609 -0.02857,0.029147 -0.04803,0.047534 -0.01946,0.018387 -0.02931,0.027309 -0.04925,0.044401 -0.01994,0.017092 -0.03003,0.025362 -0.05045,0.04106 -0.02042,0.015697 -0.03074,0.023273 -0.05165,0.037427 -0.02091,0.014153 -0.03108,0.021 -0.05289,0.033341 q -0.0218,0.012341 -0.05613,0.028365 -0.05766,-0.00284 -0.09453,-0.00285 c -0.03686,-6.9e-6 -0.0545,5.998e-4 -0.08979,0.00281 -0.03529,0.00221 -0.05267,0.0039 -0.08665,0.00825 -0.03398,0.00435 -0.05068,0.00709 -0.08325,0.013503 -0.03257,0.00641 -0.04853,0.010163 -0.07959,0.018555 -0.03105,0.00839 -0.04624,0.013114 -0.07568,0.023402 -0.02944,0.010288 -0.04379,0.01594 -0.07153,0.028039 -0.02773,0.012099 -0.0412,0.018636 -0.06713,0.032457 -0.02592,0.013821 -0.03847,0.021199 -0.06249,0.036649 -0.02402,0.015451 -0.03559,0.023622 -0.05762,0.040605 -0.02202,0.016982 -0.03257,0.025898 -0.05249,0.044308 -0.01992,0.01841 -0.02939,0.028017 -0.04711,0.047742 -0.01772,0.019724 -0.02607,0.029966 -0.04148,0.050879 -0.01542,0.020913 -0.02259,0.031724 -0.0356,0.053686 -0.01301,0.021962 -0.01895,0.03327 -0.02947,0.056124 -0.01051,0.022854 -0.01518,0.034576 -0.02311,0.058146 -0.0079,0.02357 -0.01127,0.035613 -0.01654,0.059705 -0.0053,0.024093 -0.0073,0.036352 -0.0098,0.060757 q -0.0026,0.024405 -0.003,0.061268 a 1.75,1.75 0 0 1 0,0.024942 q 4.3e-4,0.036863 0.003,0.061268 c 0.0026,0.024405 0.0045,0.036664 0.0098,0.060757 0.0053,0.024092 0.0086,0.036135 0.01654,0.059705 0.0079,0.02357 0.012589,0.035292 0.02311,0.058146 0.01051,0.022854 0.01645,0.034162 0.02947,0.056124 0.01301,0.021962 0.02018,0.032773 0.0356,0.053686 0.01542,0.020913 0.02377,0.031155 0.04148,0.050879 0.01772,0.019724 0.02719,0.029332 0.04711,0.047742 0.01992,0.01841 0.03047,0.027326 0.05249,0.044308 0.02202,0.016983 0.03359,0.025154 0.05762,0.040605 0.02402,0.015451 0.03657,0.022828 0.06249,0.036649 0.02593,0.013821 0.0394,0.020358 0.06713,0.032457 0.02773,0.012099 0.04209,0.017751 0.07153,0.028039 0.02944,0.010288 0.04463,0.015011 0.07568,0.023402 0.03105,0.00839 0.04702,0.012143 0.07959,0.018555 0.03257,0.00641 0.04927,0.00915 0.08325,0.013503 0.03398,0.00435 0.05136,0.00604 0.08665,0.00825 0.03529,0.00221 0.05293,0.00282 0.08979,0.00281 q 0.03686,-6.8e-6 0.09453,-0.00285 0.03433,0.016024 0.05613,0.028365 c 0.0218,0.012341 0.03198,0.019188 0.05289,0.033341 0.02091,0.014154 0.03123,0.02173 0.05165,0.037427 0.02042,0.015697 0.03051,0.023968 0.05045,0.04106 0.01994,0.017092 0.0298,0.026014 0.04925,0.044401 0.01946,0.018387 0.02907,0.027926 0.04803,0.047534 0.01896,0.019608 0.02832,0.029736 0.04677,0.050508 0.01845,0.020773 0.02755,0.031465 0.04546,0.053354 0.01791,0.02189 0.02675,0.033127 0.04411,0.056093 0.01736,0.022966 0.02591,0.034731 0.0427,0.058739 0.01679,0.024008 0.02505,0.036283 0.04124,0.061301 0.01619,0.025018 0.02415,0.03779 0.03972,0.063789 0.01557,0.025999 0.02321,0.039253 0.03814,0.066205 0.01493,0.026952 0.02224,0.040676 0.0365,0.068556 0.01426,0.02788 0.02123,0.042061 0.0348,0.070842 0.01357,0.028782 0.02018,0.043407 0.03303,0.073067 0.01285,0.02966 0.0191,0.044718 0.03121,0.075231 0.01211,0.030513 0.01799,0.045992 0.02933,0.077336 q 0.01134,0.031343 0.02739,0.07938 a 4,4 0 0 1 -0.234984,0.4070056 q -0.04962,0.010124 -0.08244,0.015972 c -0.03282,0.00585 -0.04916,0.0085 -0.08164,0.013267 -0.03248,0.00477 -0.04865,0.00688 -0.08076,0.010584 -0.03211,0.0037 -0.04809,0.00528 -0.0798,0.00792 -0.03171,0.00264 -0.04748,0.0037 -0.07875,0.00529 -0.03127,0.00159 -0.04682,0.00212 -0.07762,0.00267 -0.0308,5.49e-4 -0.0461,5.603e-4 -0.0764,7.48e-5 -0.0303,-4.854e-4 -0.04534,-9.891e-4 -0.0751,-0.0025 -0.02976,-0.00151 -0.04452,-0.00253 -0.07371,-0.00506 -0.02919,-0.00253 -0.04365,-0.00406 -0.07222,-0.00761 -0.02857,-0.00355 -0.04272,-0.00558 -0.07063,-0.010153 -0.02791,-0.00457 -0.04173,-0.00711 -0.06894,-0.012695 -0.02721,-0.00559 -0.04066,-0.00863 -0.06712,-0.015248 -0.02646,-0.00661 -0.03953,-0.01017 -0.06518,-0.017826 -0.02565,-0.00766 -0.03831,-0.01173 -0.06308,-0.020453 -0.02477,-0.00872 -0.03698,-0.013327 -0.06079,-0.023164 -0.0238,-0.00984 -0.03553,-0.014988 -0.05824,-0.026019 -0.02271,-0.01103 -0.03373,-0.01642 -0.05532,-0.029133 q -0.02159,-0.012713 -0.05263,-0.034432 -0.02637,-0.051358 -0.0448,-0.083286 c -0.01843,-0.031928 -0.02777,-0.0469 -0.04733,-0.076354 -0.01956,-0.029454 -0.02971,-0.043663 -0.05047,-0.070914 -0.02076,-0.027251 -0.03148,-0.040344 -0.05332,-0.065342 -0.021838,-0.024998 -0.033069,-0.03695 -0.055858,-0.059647 -0.02279,-0.022697 -0.03448,-0.033486 -0.05811,-0.053839 -0.02363,-0.020352 -0.0357,-0.029957 -0.06005,-0.047924 -0.02434,-0.017966 -0.03674,-0.026367 -0.06167,-0.041908 -0.02493,-0.015541 -0.03759,-0.022719 -0.06299,-0.035797 -0.02539,-0.013078 -0.03825,-0.019014 -0.06397,-0.029593 -0.02572,-0.010579 -0.03871,-0.015256 -0.06462,-0.023303 -0.0259,-0.00805 -0.03896,-0.011447 -0.0649,-0.016931 -0.02594,-0.00548 -0.03898,-0.00759 -0.0648,-0.010487 -0.02582,-0.0029 -0.03877,-0.0037 -0.06429,-0.00399 -0.02553,-2.894e-4 -0.03829,2.203e-4 -0.06334,0.00254 -0.02505,0.00232 -0.03753,0.00414 -0.06191,0.00906 -0.02438,0.00492 -0.03648,0.00805 -0.05998,0.015529 -0.0235,0.00748 -0.03511,0.011894 -0.05753,0.021878 q -0.02242,0.00998 -0.05456,0.028043 a 1.75,1.75 0 0 1 -0.0216,0.012471 q -0.03171,0.018804 -0.05156,0.033225 c -0.01985,0.014421 -0.02948,0.022268 -0.04771,0.038879 -0.01823,0.016611 -0.02699,0.025524 -0.04344,0.044176 -0.01645,0.018652 -0.02427,0.02855 -0.0388,0.049083 -0.01454,0.020533 -0.02136,0.031331 -0.03387,0.053583 -0.01251,0.022251 -0.01829,0.033866 -0.02869,0.057674 -0.0104,0.023808 -0.0151,0.036158 -0.02332,0.061366 -0.0082,0.025208 -0.01181,0.038216 -0.01779,0.064672 -0.006,0.026457 -0.0084,0.040049 -0.01213,0.067611 -0.0037,0.027562 -0.005,0.041669 -0.0064,0.070198 -0.0014,0.028529 -0.0015,0.043084 -4.92e-4,0.072446 9.92e-4,0.029362 0.0021,0.0443 0.0055,0.074365 0.0034,0.030066 0.0057,0.045322 0.01148,0.075963 0.0058,0.030641 0.0093,0.046152 0.01757,0.077241 0.0083,0.031089 0.01299,0.046792 0.02372,0.078202 0.01073,0.031409 0.01671,0.047242 0.02993,0.078844 0.01322,0.031602 0.02045,0.0475 0.03618,0.079167 0.01573,0.031667 0.02402,0.047246 0.04246,0.079167 q 0.01844,0.031921 0.04973,0.080439 0.0033,0.037742 0.0035,0.062797 c 2.15e-4,0.025054 -6.26e-4,0.03729 -0.0024,0.062474 -0.0018,0.025184 -0.0032,0.037911 -0.0066,0.063445 -0.0034,0.025534 -0.0055,0.038408 -0.01033,0.064224 -0.0048,0.025815 -0.0076,0.038811 -0.01383,0.064854 -0.0062,0.026043 -0.0097,0.039137 -0.01715,0.065361 -0.0075,0.026223 -0.01159,0.039395 -0.02036,0.065756 -0.0088,0.026361 -0.01348,0.03959 -0.02348,0.06605 -0.01,0.026459 -0.01531,0.039727 -0.02652,0.066246 -0.01121,0.026519 -0.01712,0.039807 -0.02952,0.06635 -0.0124,0.026543 -0.0189,0.039833 -0.03247,0.066364 -0.01357,0.026531 -0.02065,0.039806 -0.03538,0.066291 -0.01473,0.026484 -0.02239,0.039727 -0.03827,0.06613 -0.01588,0.026403 -0.02411,0.039597 -0.04112,0.065885 -0.01701,0.026288 -0.02581,0.039416 -0.04395,0.065556 -0.01814,0.02614 -0.0275,0.039185 -0.04676,0.065143 -0.01926,0.025958 -0.02918,0.038904 -0.04955,0.064647 -0.02037,0.025743 -0.03084,0.038573 -0.05231,0.064068 q -0.02147,0.025495 -0.05505,0.063408 a 4,4 0 0 1 -0.46997,0 q -0.03358,-0.037913 -0.05505,-0.063408 c -0.02147,-0.025495 -0.03194,-0.038325 -0.05231,-0.064068 -0.02037,-0.025743 -0.03028,-0.038689 -0.04955,-0.064647 -0.01926,-0.025958 -0.02862,-0.039003 -0.04676,-0.065143 -0.01814,-0.02614 -0.02694,-0.039268 -0.04395,-0.065556 -0.01702,-0.026288 -0.02524,-0.039482 -0.04112,-0.065885 -0.01588,-0.026403 -0.02354,-0.039646 -0.03827,-0.06613 -0.01473,-0.026484 -0.02181,-0.03976 -0.03538,-0.066291 -0.01357,-0.026531 -0.02007,-0.039821 -0.03247,-0.066364 -0.0124,-0.026543 -0.01831,-0.039831 -0.02952,-0.06635 -0.01121,-0.026519 -0.01652,-0.039787 -0.02652,-0.066246 -0.01,-0.026459 -0.01471,-0.039688 -0.02348,-0.06605 -0.0088,-0.026361 -0.01286,-0.039533 -0.02036,-0.065756 -0.0075,-0.026223 -0.01096,-0.039318 -0.01715,-0.065361 -0.0062,-0.026043 -0.009,-0.039039 -0.01383,-0.064854 -0.0048,-0.025816 -0.0069,-0.03869 -0.01033,-0.064224 -0.0034,-0.025534 -0.0048,-0.038261 -0.0066,-0.063445 -0.0018,-0.025184 -0.0026,-0.03742 -0.0024,-0.062474 q 2.14e-4,-0.025054 0.0035,-0.062797 0.03129,-0.048518 0.04973,-0.080439 c 0.01844,-0.031921 0.02673,-0.0475 0.04246,-0.079167 0.01573,-0.031667 0.02296,-0.047565 0.03618,-0.079167 0.01322,-0.031602 0.0192,-0.047435 0.02993,-0.078844 0.01073,-0.031409 0.01547,-0.047113 0.02372,-0.078202 0.0083,-0.031089 0.01176,-0.0466 0.01757,-0.077241 0.0058,-0.030641 0.0081,-0.045897 0.01148,-0.075963 0.0034,-0.030066 0.0045,-0.045003 0.0055,-0.074365 9.93e-4,-0.029362 8.78e-4,-0.043917 -4.92e-4,-0.072446 -0.0014,-0.028529 -0.0027,-0.042636 -0.0064,-0.070198 -0.0037,-0.027562 -0.0061,-0.041155 -0.01213,-0.067611 -0.006,-0.026457 -0.0096,-0.039465 -0.01779,-0.064672 -0.0082,-0.025208 -0.01292,-0.037558 -0.02332,-0.061366 -0.0104,-0.023808 -0.01618,-0.035423 -0.02869,-0.057674 -0.01251,-0.022251 -0.01934,-0.033049 -0.03387,-0.053583 -0.01453,-0.020533 -0.02235,-0.030431 -0.0388,-0.049083 -0.01645,-0.018652 -0.02521,-0.027565 -0.04344,-0.044176 -0.01823,-0.016611 -0.02786,-0.024458 -0.04771,-0.038879 q -0.01985,-0.014421 -0.05156,-0.033225 a 1.75,1.75 0 0 1 -0.0216,-0.012471"
       id="path4"
       style="fill:#c17d11;fill-opacity:1;stroke:#000000;stroke-width:0.0997339;stroke-miterlimit:4;stroke-dasharray:none;stroke-opacity:1" />
  </g>
</svg>
