<?xml version="1.0" encoding="UTF-8" standalone="no"?>
<!-- Created with Inkscape (http://www.inkscape.org/) -->

<svg
   width="55"
   height="55"
   viewBox="0 0 14.552083 14.552084"
   version="1.1"
   id="svg5"
   xmlns="http://www.w3.org/2000/svg"
   xmlns:svg="http://www.w3.org/2000/svg">
  <defs
     id="defs2" />
  <g
     id="layer1" />
  <g
     id="g6662"
     transform="translate(0.04420772,-0.16174731)">
    <path
       style="fill:#3282d2;fill-opacity:1;stroke:none;stroke-width:0.101001"
       d="m 2.6187676,0.52193195 c -0.612783,0 -1.1056817,0.49343335 -1.1056817,1.10621635 V 13.247429 c 0,0.612783 0.4928987,1.106217 1.1056817,1.106217 h 9.2255974 c 0.612784,0 1.106217,-0.493434 1.106217,-1.106217 V 3.9282656 3.6213693 L 10.142536,0.52193195 H 9.7864503 Z"
       id="rect846" />
    <path
       style="fill:#d28232;fill-opacity:1;stroke:none;stroke-width:0.103525"
       d="M 12.948943,3.6198859 10.142536,0.52193195 V 2.4860336 c 0,0.6280917 0.505761,1.1338521 1.133853,1.1338523 z"
       id="path1957" />
    <g
       aria-label="SVG"
       id="text3747"
       style="font-size:5.29167px;line-height:1.25;fill:#d28232;stroke-width:0.264583"
       transform="matrix(1.0346347,0,0,1.0346347,-0.0181869,0.28988853)">
      <path
         d="m 4.8564205,6.512716 q 0,0.047625 -0.037042,0.084667 -0.03175,0.03175 -0.074083,0.03175 H 4.0520867 q -0.074083,0 -0.1164168,-0.015875 Q 3.8933369,6.592091 3.8404199,6.544466 3.8298369,6.533883 3.7716279,6.475674 3.7134199,6.412174 3.5864194,6.3645489 3.464711,6.3169239 3.3006693,6.3169239 q -0.2275418,0 -0.3757086,0.0635 -0.1428751,0.058208 -0.1428751,0.2063752 0,0.1058333 0.089958,0.1693334 0.089958,0.058208 0.2751668,0.1058334 0.1905002,0.047625 0.6561671,0.1428751 0.5979587,0.1217084 0.8784172,0.3810002 0.2804585,0.2592918 0.2804585,0.7408338 0,0.3492502 -0.2116668,0.6138337 -0.2063744,0.2592921 -0.582083,0.4021672 -0.3704169,0.1375834 -0.8413755,0.1375834 -0.4550836,0 -0.8255005,-0.1587501 Q 2.1312105,8.9627591 1.9195437,8.708759 1.7078769,8.4547588 1.6972936,8.1848836 q 0,-0.047625 0.03175,-0.079375 0.037042,-0.037042 0.079375,-0.037042 h 0.6932087 q 0.1164168,0 0.2010835,0.074083 0.015875,0.015875 0.084667,0.09525 0.068792,0.074083 0.2063751,0.1375835 0.1428751,0.058208 0.3333752,0.058208 0.6561671,0 0.6561671,-0.2804585 0,-0.089958 -0.09525,-0.1481667 Q 3.7980865,7.9414668 3.6287531,7.8991335 3.4594197,7.8568001 3.0890028,7.7774251 L 2.8508776,7.7298 Q 2.3111273,7.6133833 2.0571272,7.3435081 1.803127,7.0683413 1.803127,6.6132577 1.803127,6.3063409 1.9883354,6.047049 2.1735439,5.7824655 2.5122108,5.6290071 2.8561693,5.470257 3.3006696,5.470257 q 0.4286252,0 0.7831671,0.1640418 0.3545419,0.1587501 0.5556253,0.4021669 0.2063752,0.2434168 0.2169585,0.4762503 z"
         style="font-weight:bold;font-family:Rubik;-inkscape-font-specification:'Rubik Bold'"
         id="path6631" />
      <path
         d="m 6.4915415,9.2273426 q -0.2063751,0 -0.2804585,-0.2116668 L 5.1315823,5.7083822 q -0.015875,-0.047625 -0.015875,-0.068792 0,-0.047625 0.03175,-0.079375 0.037042,-0.037042 0.084667,-0.037042 h 0.6667504 q 0.089958,0 0.1375834,0.042333 0.052917,0.037042 0.068792,0.089958 l 0.7355416,2.328336 0.7355421,-2.3283347 q 0.015875,-0.052917 0.0635,-0.089958 0.052917,-0.042333 0.1428751,-0.042333 h 0.6667504 q 0.047625,0 0.079375,0.037042 0.037042,0.03175 0.037042,0.079375 0,0.021167 -0.015875,0.068792 L 7.4705004,9.0156758 Q 7.396417,9.2273426 7.1900419,9.2273426 Z"
         style="font-weight:bold;font-family:Rubik;-inkscape-font-specification:'Rubik Bold'"
         id="path6633" />
      <path
         d="m 9.9046643,6.9307579 q -0.015875,0.1270001 -0.015875,0.4074586 0,0.3280835 0.015875,0.4815419 0.021167,0.2698752 0.1799167,0.4445003 0.15875,0.1693334 0.486834,0.1693334 0.301625,0 0.481542,-0.1375834 0.185208,-0.1428751 0.185208,-0.4445003 h -0.4445 q -0.05821,0 -0.100542,-0.042333 -0.04233,-0.042333 -0.04233,-0.1005417 v -0.560917 q 0,-0.058208 0.04233,-0.1005418 0.04233,-0.042333 0.100542,-0.042333 h 1.280584 q 0.05821,0 0.100542,0.042333 0.04233,0.042333 0.04233,0.1005418 v 0.6773337 q 0,0.4392086 -0.216958,0.7725838 -0.216959,0.3280835 -0.592668,0.5080003 -0.370416,0.1746251 -0.836083,0.1746251 -0.492126,0 -0.8572509,-0.1905001 Q 9.3490389,8.8939674 9.1479555,8.5711755 8.946872,8.243092 8.9257053,7.8462168 8.915122,7.5922166 8.915122,7.4281749 q 0,-0.1957918 0.010583,-0.5238754 Q 8.9415803,6.5074243 9.1426638,6.1846324 9.3437473,5.8565489 9.7088725,5.6660488 10.079289,5.470257 10.571415,5.470257 q 0.470958,0 0.830792,0.1746251 0.365125,0.1746251 0.566209,0.4392086 0.206375,0.2645835 0.22225,0.513292 0.0053,0.047625 -0.03175,0.084667 -0.03704,0.03175 -0.08467,0.03175 h -0.703792 q -0.06879,0 -0.111125,-0.03175 -0.03704,-0.037042 -0.100542,-0.1111251 -0.09525,-0.1164167 -0.227542,-0.1852084 -0.127,-0.068792 -0.359833,-0.068792 -0.597959,0 -0.6667507,0.6138337 z"
         style="font-weight:bold;font-family:Rubik;-inkscape-font-specification:'Rubik Bold'"
         id="path6635" />
    </g>
  </g>
</svg>
